<svg xmlns="http://www.w3.org/2000/svg" xmlns:xlink="http://www.w3.org/1999/xlink" width="1920" zoomAndPan="magnify" viewBox="0 0 1440 809.999993" height="1080" preserveAspectRatio="xMidYMid meet" version="1.0"><defs><g/><clipPath id="1842059f7b"><path d="M 1000.320312 230.855469 L 1184.820312 230.855469 L 1184.820312 474.605469 L 1000.320312 474.605469 Z M 1000.320312 230.855469 " clip-rule="nonzero"/></clipPath><clipPath id="4bb2a04aa2"><path d="M 1036 346.578125 L 1119 346.578125 L 1119 429 L 1036 429 Z M 1036 346.578125 " clip-rule="nonzero"/></clipPath></defs><rect x="-144" width="1728" fill="#ffffff" y="-80.999999" height="971.999992" fill-opacity="1"/><rect x="-144" width="1728" fill="#ffffff" y="-80.999999" height="971.999992" fill-opacity="1"/><g clip-path="url(#1842059f7b)"><path fill="#000000" d="M 1184.722656 451.882812 L 1155.84375 297.402344 C 1155.84375 297.351562 1155.84375 297.304688 1155.792969 297.253906 C 1155.792969 297.207031 1155.792969 297.207031 1155.746094 297.15625 C 1155.695312 297.109375 1155.695312 297.011719 1155.648438 296.964844 C 1155.648438 296.964844 1155.648438 296.914062 1155.648438 296.914062 C 1155.601562 296.816406 1155.550781 296.769531 1155.503906 296.71875 C 1155.503906 296.71875 1155.453125 296.71875 1155.453125 296.671875 C 1155.40625 296.621094 1155.355469 296.574219 1155.308594 296.523438 L 1155.257812 296.476562 C 1155.210938 296.425781 1155.160156 296.378906 1155.0625 296.378906 L 1155.015625 296.378906 C 1154.964844 296.328125 1154.867188 296.328125 1154.820312 296.328125 L 1154.769531 296.328125 C 1154.722656 296.328125 1154.625 296.328125 1154.574219 296.328125 L 1125.160156 296.328125 L 1123.695312 260.890625 C 1122.964844 244.074219 1109.742188 230.863281 1093.59375 230.863281 C 1086.328125 230.863281 1079.300781 233.59375 1073.9375 238.464844 C 1068.421875 243.488281 1064.863281 250.214844 1063.835938 257.574219 L 1058.277344 296.328125 L 1033.347656 296.328125 C 1032.714844 296.328125 1032.128906 296.769531 1031.980469 297.449219 L 1000.46875 455.535156 C 1000.320312 456.269531 1000.761719 457 1001.492188 457.144531 C 1001.539062 457.144531 1001.589844 457.144531 1001.636719 457.144531 L 1141.941406 474.597656 L 1142.085938 474.597656 C 1142.183594 474.597656 1142.28125 474.597656 1142.378906 474.546875 L 1142.476562 474.546875 C 1142.574219 474.546875 1142.625 474.5 1142.722656 474.449219 L 1142.769531 474.449219 L 1183.992188 453.34375 C 1184.527344 453.097656 1184.820312 452.464844 1184.722656 451.882812 Z M 1066.570312 257.917969 C 1068.617188 243.78125 1079.984375 233.542969 1093.59375 233.542969 C 1108.28125 233.542969 1120.28125 245.632812 1120.914062 260.988281 L 1122.378906 296.28125 L 1061.007812 296.28125 Z M 1034.46875 299.011719 L 1057.886719 299.011719 L 1054.570312 322.019531 C 1053.054688 322.457031 1052.03125 323.871094 1052.03125 325.480469 C 1051.933594 327.382812 1053.347656 328.988281 1055.25 329.085938 C 1057.152344 329.183594 1058.765625 327.769531 1058.863281 325.871094 C 1058.863281 325.722656 1058.863281 325.625 1058.863281 325.480469 C 1058.863281 324.261719 1058.277344 323.140625 1057.25 322.457031 L 1060.617188 299.011719 L 1122.425781 299.011719 L 1123.402344 322.261719 C 1122.230469 322.894531 1121.5 324.113281 1121.5 325.480469 C 1121.402344 327.382812 1122.914062 328.941406 1124.769531 329.039062 C 1126.671875 329.136719 1128.230469 327.625 1128.328125 325.773438 C 1128.328125 325.675781 1128.328125 325.578125 1128.328125 325.480469 C 1128.328125 324.019531 1127.453125 322.703125 1126.132812 322.164062 L 1125.160156 299.011719 L 1152.917969 299.011719 L 1144.332031 421.609375 L 1140.867188 471.671875 L 1003.441406 454.609375 Z M 1143.648438 470.890625 L 1147.550781 415.078125 L 1155.0625 308.417969 L 1181.796875 451.394531 Z M 1143.648438 470.890625 " fill-opacity="1" fill-rule="nonzero"/></g><g clip-path="url(#4bb2a04aa2)"><path fill="#78c110" d="M 1118.441406 365.042969 L 1115.710938 367.773438 C 1115.894531 372.773438 1114.078125 377.832031 1110.269531 381.640625 L 1071.363281 420.546875 C 1067.839844 424.070312 1063.152344 426.011719 1058.171875 426.011719 C 1053.1875 426.011719 1048.5 424.070312 1044.976562 420.546875 C 1041.453125 417.023438 1039.511719 412.335938 1039.511719 407.351562 C 1039.511719 402.367188 1041.453125 397.683594 1044.976562 394.160156 L 1083.882812 355.253906 C 1087.40625 351.730469 1092.09375 349.789062 1097.078125 349.789062 C 1102.058594 349.789062 1106.746094 351.730469 1110.269531 355.253906 C 1112.753906 357.734375 1114.386719 360.75 1115.175781 363.933594 L 1117.28125 361.828125 C 1117.378906 361.730469 1117.484375 361.648438 1117.597656 361.589844 C 1116.578125 358.5 1114.835938 355.59375 1112.382812 353.140625 C 1108.292969 349.054688 1102.855469 346.804688 1097.074219 346.800781 C 1091.292969 346.800781 1085.859375 349.050781 1081.769531 353.140625 L 1042.867188 392.046875 C 1034.425781 400.484375 1034.425781 414.21875 1042.863281 422.65625 C 1046.953125 426.746094 1052.390625 429 1058.171875 428.996094 C 1063.953125 428.996094 1069.386719 426.746094 1073.476562 422.65625 L 1112.382812 383.75 C 1117.46875 378.667969 1119.488281 371.65625 1118.441406 365.042969 Z M 1118.441406 365.042969 " fill-opacity="1" fill-rule="nonzero"/></g><path fill="#78c110" d="M 1117.117188 366.390625 L 1105.363281 378.085938 C 1105.070312 378.378906 1104.691406 378.519531 1104.308594 378.519531 C 1103.921875 378.519531 1103.542969 378.371094 1103.25 378.082031 C 1102.667969 377.496094 1102.671875 376.546875 1103.253906 375.96875 L 1116.4375 362.851562 C 1116.433594 362.847656 1116.433594 362.839844 1116.429688 362.832031 C 1116.316406 362.449219 1116.199219 362.066406 1116.0625 361.6875 C 1116.054688 361.660156 1116.042969 361.636719 1116.035156 361.613281 C 1115.914062 361.28125 1115.785156 360.953125 1115.648438 360.625 C 1115.609375 360.53125 1115.570312 360.445312 1115.53125 360.359375 C 1115.414062 360.085938 1115.285156 359.816406 1115.15625 359.550781 C 1115.109375 359.457031 1115.066406 359.367188 1115.023438 359.277344 C 1114.863281 358.96875 1114.699219 358.660156 1114.519531 358.359375 C 1114.5 358.324219 1114.484375 358.289062 1114.464844 358.253906 C 1114.265625 357.917969 1114.054688 357.589844 1113.835938 357.261719 C 1113.78125 357.179688 1113.726562 357.097656 1113.671875 357.019531 C 1113.503906 356.777344 1113.335938 356.542969 1113.15625 356.308594 C 1113.078125 356.203125 1112.996094 356.097656 1112.917969 355.996094 C 1112.746094 355.777344 1112.570312 355.566406 1112.386719 355.351562 C 1112.304688 355.257812 1112.222656 355.164062 1112.144531 355.070312 C 1111.890625 354.78125 1111.625 354.5 1111.351562 354.226562 C 1111.339844 354.214844 1111.335938 354.207031 1111.324219 354.195312 C 1109.699219 352.570312 1107.859375 351.285156 1105.902344 350.332031 C 1098.386719 346.667969 1089.070312 347.953125 1082.828125 354.195312 L 1063.375 373.648438 L 1091.875 402.148438 L 1111.324219 382.695312 C 1115.257812 378.761719 1117.226562 373.601562 1117.226562 368.445312 C 1117.226562 367.757812 1117.191406 367.074219 1117.117188 366.390625 Z M 1097.210938 386.476562 C 1095.753906 386.476562 1094.574219 385.292969 1094.574219 383.835938 C 1094.574219 382.382812 1095.753906 381.199219 1097.210938 381.199219 C 1098.671875 381.199219 1099.847656 382.382812 1099.847656 383.835938 C 1099.847656 385.292969 1098.671875 386.476562 1097.210938 386.476562 Z M 1097.210938 386.476562 " fill-opacity="1" fill-rule="nonzero"/><g fill="#78c110" fill-opacity="1"><g transform="translate(288.614835, 457.168185)"><g><path d="M 40.234375 -111.109375 L 40.234375 -92.59375 L 40.6875 -92.59375 C 42.976562 -99.289062 46.445312 -104.050781 51.09375 -106.875 C 55.738281 -109.695312 62.941406 -111.109375 72.703125 -111.109375 L 72.703125 -77.734375 C 66.753906 -77.273438 61.988281 -76.703125 58.40625 -76.015625 C 54.820312 -75.328125 52.039062 -74.144531 50.0625 -72.46875 C 48.082031 -70.789062 46.75 -68.425781 46.0625 -65.375 C 45.375 -62.332031 45.03125 -58.296875 45.03125 -53.265625 L 45.03125 0 L 8.453125 0 L 8.453125 -111.109375 Z M 40.234375 -111.109375 "/></g></g></g><g fill="#78c110" fill-opacity="1"><g transform="translate(364.740736, 457.168185)"><g><path d="M 62.1875 -40.46875 L 48.234375 -62.40625 L 78.1875 -82.078125 C 75.59375 -83.597656 73.148438 -84.625 70.859375 -85.15625 C 68.578125 -85.6875 66.296875 -85.953125 64.015625 -85.953125 C 60.503906 -85.953125 57.335938 -85.148438 54.515625 -83.546875 C 51.703125 -81.953125 49.265625 -79.820312 47.203125 -77.15625 C 45.148438 -74.488281 43.550781 -71.441406 42.40625 -68.015625 C 41.257812 -64.585938 40.6875 -61.039062 40.6875 -57.375 C 40.6875 -53.414062 41.375 -49.757812 42.75 -46.40625 C 44.125 -43.050781 45.953125 -40.078125 48.234375 -37.484375 C 50.523438 -34.898438 53.15625 -32.882812 56.125 -31.4375 C 59.09375 -29.988281 62.175781 -29.265625 65.375 -29.265625 C 71.78125 -29.265625 78.03125 -31.585938 84.125 -36.234375 C 90.21875 -40.878906 94.867188 -46.863281 98.078125 -54.1875 L 124.359375 -40.6875 C 121.617188 -34.132812 118.113281 -28.191406 113.84375 -22.859375 C 109.582031 -17.523438 104.78125 -12.953125 99.4375 -9.140625 C 94.101562 -5.328125 88.347656 -2.390625 82.171875 -0.328125 C 76.003906 1.722656 69.570312 2.75 62.875 2.75 C 55.09375 2.75 47.734375 1.1875 40.796875 -1.9375 C 33.867188 -5.0625 27.773438 -9.328125 22.515625 -14.734375 C 17.253906 -20.148438 13.097656 -26.363281 10.046875 -33.375 C 7.003906 -40.382812 5.484375 -47.773438 5.484375 -55.546875 C 5.484375 -63.328125 7.003906 -70.722656 10.046875 -77.734375 C 13.097656 -84.742188 17.253906 -90.914062 22.515625 -96.25 C 27.773438 -101.582031 33.867188 -105.847656 40.796875 -109.046875 C 47.734375 -112.242188 55.09375 -113.84375 62.875 -113.84375 C 75.675781 -113.84375 86.457031 -110.640625 95.21875 -104.234375 C 103.976562 -97.835938 111.332031 -89.226562 117.28125 -78.40625 Z M 62.1875 -40.46875 "/></g></g></g><g fill="#000000" fill-opacity="1"><g transform="translate(491.853927, 457.168185)"><g><path d="M 92.359375 -12.796875 C 93.273438 -9.753906 94.265625 -8.234375 95.328125 -8.234375 C 95.941406 -8.234375 96.472656 -8.878906 96.921875 -10.171875 C 97.378906 -11.460938 97.765625 -12.644531 98.078125 -13.71875 L 138.078125 -148.828125 C 138.992188 -151.722656 139.832031 -154.082031 140.59375 -155.90625 C 141.351562 -157.738281 142.226562 -159.148438 143.21875 -160.140625 C 144.207031 -161.128906 145.390625 -161.8125 146.765625 -162.1875 C 148.140625 -162.570312 149.894531 -162.765625 152.03125 -162.765625 C 156.289062 -162.765625 159.179688 -161.164062 160.703125 -157.96875 C 162.234375 -154.769531 163.378906 -150.195312 164.140625 -144.25 L 183.796875 0 L 174.203125 0 L 154.546875 -145.859375 C 154.085938 -149.359375 153.550781 -151.523438 152.9375 -152.359375 C 152.332031 -153.203125 151.722656 -153.625 151.109375 -153.625 C 149.890625 -153.625 149.050781 -152.972656 148.59375 -151.671875 C 148.132812 -150.378906 147.753906 -149.28125 147.453125 -148.375 L 108.59375 -15.78125 C 107.519531 -12.269531 106.640625 -9.367188 105.953125 -7.078125 C 105.273438 -4.796875 104.476562 -3.003906 103.5625 -1.703125 C 102.644531 -0.410156 101.535156 0.5 100.234375 1.03125 C 98.941406 1.5625 97.226562 1.828125 95.09375 1.828125 C 93.113281 1.828125 91.515625 1.632812 90.296875 1.25 C 89.078125 0.875 88.007812 0.078125 87.09375 -1.140625 C 86.1875 -2.359375 85.3125 -4.109375 84.46875 -6.390625 C 83.632812 -8.679688 82.679688 -11.8125 81.609375 -15.78125 L 42.984375 -147.6875 C 42.523438 -149.363281 42.023438 -150.769531 41.484375 -151.90625 C 40.953125 -153.050781 40.15625 -153.625 39.09375 -153.625 C 38.476562 -153.625 37.863281 -153.203125 37.25 -152.359375 C 36.644531 -151.523438 36.191406 -149.738281 35.890625 -147 L 16 0 L 6.40625 0 L 26.296875 -146.078125 C 26.597656 -148.054688 26.9375 -150.070312 27.3125 -152.125 C 27.695312 -154.1875 28.304688 -155.976562 29.140625 -157.5 C 29.984375 -159.03125 31.128906 -160.289062 32.578125 -161.28125 C 34.023438 -162.269531 35.890625 -162.765625 38.171875 -162.765625 C 40.460938 -162.765625 42.332031 -162.535156 43.78125 -162.078125 C 45.226562 -161.617188 46.484375 -160.742188 47.546875 -159.453125 C 48.617188 -158.160156 49.570312 -156.296875 50.40625 -153.859375 C 51.25 -151.421875 52.28125 -148.296875 53.5 -144.484375 Z M 92.359375 -12.796875 "/></g></g></g><g fill="#000000" fill-opacity="1"><g transform="translate(682.282975, 457.168185)"><g><path d="M 35.65625 -31.546875 L 30.171875 -38.859375 L 99.90625 -85.953125 C 95.9375 -90.984375 90.941406 -94.984375 84.921875 -97.953125 C 78.898438 -100.929688 72.234375 -102.421875 64.921875 -102.421875 C 58.210938 -102.421875 52 -101.160156 46.28125 -98.640625 C 40.570312 -96.128906 35.617188 -92.660156 31.421875 -88.234375 C 27.234375 -83.816406 23.921875 -78.632812 21.484375 -72.6875 C 19.046875 -66.75 17.828125 -60.351562 17.828125 -53.5 C 17.828125 -46.945312 19.046875 -40.773438 21.484375 -34.984375 C 23.921875 -29.191406 27.273438 -24.160156 31.546875 -19.890625 C 35.816406 -15.617188 40.804688 -12.222656 46.515625 -9.703125 C 52.234375 -7.191406 58.367188 -5.9375 64.921875 -5.9375 C 71.328125 -5.9375 77.347656 -7.15625 82.984375 -9.59375 C 88.617188 -12.039062 93.609375 -15.320312 97.953125 -19.4375 C 102.296875 -23.550781 105.722656 -28.390625 108.234375 -33.953125 C 110.753906 -39.515625 112.164062 -45.492188 112.46875 -51.890625 L 121.625 -51.890625 C 121.3125 -44.117188 119.628906 -36.914062 116.578125 -30.28125 C 113.535156 -23.65625 109.5 -17.941406 104.46875 -13.140625 C 99.445312 -8.335938 93.695312 -4.566406 87.21875 -1.828125 C 80.738281 0.910156 73.914062 2.28125 66.75 2.28125 C 58.21875 2.28125 50.40625 0.832031 43.3125 -2.0625 C 36.226562 -4.957031 30.09375 -8.914062 24.90625 -13.9375 C 19.726562 -18.96875 15.726562 -24.910156 12.90625 -31.765625 C 10.09375 -38.628906 8.6875 -46.023438 8.6875 -53.953125 C 8.6875 -61.722656 10.09375 -69.078125 12.90625 -76.015625 C 15.726562 -82.953125 19.65625 -88.972656 24.6875 -94.078125 C 29.71875 -99.179688 35.660156 -103.21875 42.515625 -106.1875 C 49.378906 -109.15625 56.847656 -110.640625 64.921875 -110.640625 C 75.441406 -110.640625 84.890625 -108.203125 93.265625 -103.328125 C 101.648438 -98.453125 108.28125 -92.050781 113.15625 -84.125 Z M 35.65625 -31.546875 "/></g></g></g><g fill="#000000" fill-opacity="1"><g transform="translate(809.388083, 457.168185)"><g><path d="M 104.703125 -160.03125 L 113.390625 -160.03125 L 113.390625 -53.5 C 113.390625 -46.03125 112.09375 -38.90625 109.5 -32.125 C 106.914062 -25.34375 103.296875 -19.394531 98.640625 -14.28125 C 93.992188 -9.175781 88.429688 -5.140625 81.953125 -2.171875 C 75.472656 0.796875 68.347656 2.28125 60.578125 2.28125 C 52.960938 2.28125 45.953125 0.832031 39.546875 -2.0625 C 33.148438 -4.957031 27.585938 -8.914062 22.859375 -13.9375 C 18.140625 -18.96875 14.441406 -24.910156 11.765625 -31.765625 C 9.097656 -38.628906 7.765625 -46.101562 7.765625 -54.1875 C 7.765625 -62.101562 9.097656 -69.53125 11.765625 -76.46875 C 14.441406 -83.40625 18.140625 -89.382812 22.859375 -94.40625 C 27.585938 -99.4375 33.148438 -103.398438 39.546875 -106.296875 C 45.953125 -109.191406 52.960938 -110.640625 60.578125 -110.640625 C 72.460938 -110.640625 83.742188 -106.070312 94.421875 -96.9375 L 94.421875 -86.640625 C 89.390625 -91.828125 84.320312 -95.753906 79.21875 -98.421875 C 74.113281 -101.085938 67.898438 -102.421875 60.578125 -102.421875 C 54.785156 -102.421875 49.222656 -101.125 43.890625 -98.53125 C 38.554688 -95.9375 33.90625 -92.46875 29.9375 -88.125 C 25.976562 -83.78125 22.816406 -78.675781 20.453125 -72.8125 C 18.097656 -66.945312 16.921875 -60.738281 16.921875 -54.1875 C 16.921875 -47.476562 18.097656 -41.226562 20.453125 -35.4375 C 22.816406 -29.644531 25.976562 -24.535156 29.9375 -20.109375 C 33.90625 -15.691406 38.554688 -12.222656 43.890625 -9.703125 C 49.222656 -7.191406 54.785156 -5.9375 60.578125 -5.9375 C 67.128906 -5.9375 73.109375 -7.269531 78.515625 -9.9375 C 83.929688 -12.601562 88.582031 -16.144531 92.46875 -20.5625 C 96.351562 -24.988281 99.363281 -30.054688 101.5 -35.765625 C 103.632812 -41.484375 104.703125 -47.394531 104.703125 -53.5 Z M 104.703125 -160.03125 "/></g></g></g><g fill="#000000" fill-opacity="1"><g transform="translate(936.493191, 457.168185)"><g><path d="M 32.234375 -139 C 32.234375 -137.007812 31.582031 -135.367188 30.28125 -134.078125 C 28.988281 -132.785156 27.351562 -132.140625 25.375 -132.140625 C 23.394531 -132.140625 21.753906 -132.785156 20.453125 -134.078125 C 19.160156 -135.367188 18.515625 -137.007812 18.515625 -139 C 18.515625 -140.976562 19.160156 -142.613281 20.453125 -143.90625 C 21.753906 -145.207031 23.394531 -145.859375 25.375 -145.859375 C 27.351562 -145.859375 28.988281 -145.207031 30.28125 -143.90625 C 31.582031 -142.613281 32.234375 -140.976562 32.234375 -139 Z M 21.03125 -108.359375 L 29.71875 -108.359375 L 29.71875 0 L 21.03125 0 Z M 21.03125 -108.359375 "/></g></g></g><g fill="#000000" fill-opacity="1"><g transform="translate(315.475208, 535.305501)"><g><path d="M 16.921875 -27.3125 C 17.804688 -27.3125 18.570312 -27.082031 19.21875 -26.625 C 19.863281 -26.164062 20.1875 -25.597656 20.1875 -24.921875 C 20.1875 -24.109375 19.972656 -23.488281 19.546875 -23.0625 C 19.117188 -22.632812 18.597656 -22.421875 17.984375 -22.421875 C 17.679688 -22.421875 17.222656 -22.523438 16.609375 -22.734375 C 15.898438 -22.972656 15.34375 -23.09375 14.9375 -23.09375 C 13.882812 -23.09375 12.851562 -22.722656 11.84375 -21.984375 C 10.84375 -21.253906 10.023438 -20.253906 9.390625 -18.984375 C 8.765625 -17.710938 8.453125 -16.296875 8.453125 -14.734375 L 8.453125 -2.453125 C 8.453125 -1.765625 8.222656 -1.179688 7.765625 -0.703125 C 7.304688 -0.234375 6.722656 0 6.015625 0 C 5.296875 0 4.71875 -0.226562 4.28125 -0.6875 C 3.84375 -1.144531 3.625 -1.734375 3.625 -2.453125 L 3.625 -24.265625 C 3.625 -24.941406 3.851562 -25.515625 4.3125 -25.984375 C 4.769531 -26.460938 5.335938 -26.703125 6.015625 -26.703125 C 6.722656 -26.703125 7.304688 -26.460938 7.765625 -25.984375 C 8.222656 -25.515625 8.453125 -24.941406 8.453125 -24.265625 L 8.453125 -21.65625 C 9.203125 -23.320312 10.320312 -24.671875 11.8125 -25.703125 C 13.3125 -26.742188 15.015625 -27.28125 16.921875 -27.3125 Z M 16.921875 -27.3125 "/></g></g></g><g fill="#000000" fill-opacity="1"><g transform="translate(375.977202, 535.305501)"><g><path d="M 27.0625 -14.375 C 27.03125 -13.757812 26.773438 -13.238281 26.296875 -12.8125 C 25.828125 -12.394531 25.269531 -12.1875 24.625 -12.1875 L 6.671875 -12.1875 C 6.910156 -9.695312 7.851562 -7.703125 9.5 -6.203125 C 11.15625 -4.710938 13.171875 -3.96875 15.546875 -3.96875 C 17.171875 -3.96875 18.492188 -4.207031 19.515625 -4.6875 C 20.535156 -5.164062 21.4375 -5.78125 22.21875 -6.53125 C 22.726562 -6.832031 23.222656 -6.984375 23.703125 -6.984375 C 24.273438 -6.984375 24.753906 -6.78125 25.140625 -6.375 C 25.535156 -5.96875 25.734375 -5.488281 25.734375 -4.9375 C 25.734375 -4.226562 25.394531 -3.582031 24.71875 -3 C 23.726562 -2.019531 22.414062 -1.1875 20.78125 -0.5 C 19.15625 0.175781 17.492188 0.515625 15.796875 0.515625 C 13.046875 0.515625 10.625 -0.0625 8.53125 -1.21875 C 6.445312 -2.375 4.832031 -3.988281 3.6875 -6.0625 C 2.550781 -8.132812 1.984375 -10.476562 1.984375 -13.09375 C 1.984375 -15.945312 2.566406 -18.453125 3.734375 -20.609375 C 4.910156 -22.773438 6.457031 -24.429688 8.375 -25.578125 C 10.300781 -26.734375 12.367188 -27.3125 14.578125 -27.3125 C 16.753906 -27.3125 18.789062 -26.75 20.6875 -25.625 C 22.59375 -24.507812 24.125 -22.96875 25.28125 -21 C 26.4375 -19.03125 27.03125 -16.820312 27.0625 -14.375 Z M 14.578125 -22.828125 C 12.671875 -22.828125 11.019531 -22.289062 9.625 -21.21875 C 8.238281 -20.15625 7.320312 -18.503906 6.875 -16.265625 L 21.921875 -16.265625 L 21.921875 -16.671875 C 21.742188 -18.472656 20.929688 -19.945312 19.484375 -21.09375 C 18.046875 -22.25 16.410156 -22.828125 14.578125 -22.828125 Z M 14.578125 -22.828125 "/></g></g></g><g fill="#000000" fill-opacity="1"><g transform="translate(444.478309, 535.305501)"><g><path d="M 2.09375 -4.171875 C 1.78125 -4.648438 1.625 -5.113281 1.625 -5.5625 C 1.625 -6.238281 1.984375 -6.8125 2.703125 -7.28125 C 3.046875 -7.519531 3.4375 -7.640625 3.875 -7.640625 C 4.488281 -7.640625 5.050781 -7.382812 5.5625 -6.875 C 6.570312 -5.71875 7.660156 -4.851562 8.828125 -4.28125 C 10.003906 -3.707031 11.410156 -3.421875 13.046875 -3.421875 C 14.335938 -3.453125 15.472656 -3.742188 16.453125 -4.296875 C 17.441406 -4.859375 17.9375 -5.769531 17.9375 -7.03125 C 17.9375 -8.1875 17.4375 -9.066406 16.4375 -9.671875 C 15.4375 -10.285156 13.96875 -10.847656 12.03125 -11.359375 C 10.125 -11.867188 8.539062 -12.40625 7.28125 -12.96875 C 6.03125 -13.53125 4.96875 -14.347656 4.09375 -15.421875 C 3.226562 -16.492188 2.796875 -17.894531 2.796875 -19.625 C 2.796875 -21.15625 3.226562 -22.492188 4.09375 -23.640625 C 4.96875 -24.796875 6.125 -25.695312 7.5625 -26.34375 C 9.007812 -26.988281 10.582031 -27.3125 12.28125 -27.3125 C 13.914062 -27.3125 15.539062 -27.003906 17.15625 -26.390625 C 18.769531 -25.785156 20.082031 -24.851562 21.09375 -23.59375 C 21.507812 -23.125 21.71875 -22.632812 21.71875 -22.125 C 21.71875 -21.582031 21.441406 -21.054688 20.890625 -20.546875 C 20.554688 -20.234375 20.132812 -20.078125 19.625 -20.078125 C 19.007812 -20.078125 18.515625 -20.28125 18.140625 -20.6875 C 17.429688 -21.507812 16.554688 -22.140625 15.515625 -22.578125 C 14.484375 -23.015625 13.335938 -23.234375 12.078125 -23.234375 C 10.785156 -23.234375 9.6875 -22.96875 8.78125 -22.4375 C 7.882812 -21.914062 7.4375 -21.03125 7.4375 -19.78125 C 7.476562 -18.582031 8 -17.695312 9 -17.125 C 10 -16.550781 11.535156 -15.988281 13.609375 -15.4375 C 15.410156 -14.96875 16.90625 -14.457031 18.09375 -13.90625 C 19.28125 -13.363281 20.28125 -12.554688 21.09375 -11.484375 C 21.914062 -10.421875 22.328125 -9.019531 22.328125 -7.28125 C 22.328125 -5.6875 21.867188 -4.300781 20.953125 -3.125 C 20.035156 -1.957031 18.835938 -1.054688 17.359375 -0.421875 C 15.878906 0.203125 14.304688 0.515625 12.640625 0.515625 C 10.492188 0.515625 8.507812 0.140625 6.6875 -0.609375 C 4.875 -1.359375 3.34375 -2.546875 2.09375 -4.171875 Z M 2.09375 -4.171875 "/></g></g></g><g fill="#000000" fill-opacity="1"><g transform="translate(508.241111, 535.305501)"><g><path d="M 27.0625 -14.375 C 27.03125 -13.757812 26.773438 -13.238281 26.296875 -12.8125 C 25.828125 -12.394531 25.269531 -12.1875 24.625 -12.1875 L 6.671875 -12.1875 C 6.910156 -9.695312 7.851562 -7.703125 9.5 -6.203125 C 11.15625 -4.710938 13.171875 -3.96875 15.546875 -3.96875 C 17.171875 -3.96875 18.492188 -4.207031 19.515625 -4.6875 C 20.535156 -5.164062 21.4375 -5.78125 22.21875 -6.53125 C 22.726562 -6.832031 23.222656 -6.984375 23.703125 -6.984375 C 24.273438 -6.984375 24.753906 -6.78125 25.140625 -6.375 C 25.535156 -5.96875 25.734375 -5.488281 25.734375 -4.9375 C 25.734375 -4.226562 25.394531 -3.582031 24.71875 -3 C 23.726562 -2.019531 22.414062 -1.1875 20.78125 -0.5 C 19.15625 0.175781 17.492188 0.515625 15.796875 0.515625 C 13.046875 0.515625 10.625 -0.0625 8.53125 -1.21875 C 6.445312 -2.375 4.832031 -3.988281 3.6875 -6.0625 C 2.550781 -8.132812 1.984375 -10.476562 1.984375 -13.09375 C 1.984375 -15.945312 2.566406 -18.453125 3.734375 -20.609375 C 4.910156 -22.773438 6.457031 -24.429688 8.375 -25.578125 C 10.300781 -26.734375 12.367188 -27.3125 14.578125 -27.3125 C 16.753906 -27.3125 18.789062 -26.75 20.6875 -25.625 C 22.59375 -24.507812 24.125 -22.96875 25.28125 -21 C 26.4375 -19.03125 27.03125 -16.820312 27.0625 -14.375 Z M 14.578125 -22.828125 C 12.671875 -22.828125 11.019531 -22.289062 9.625 -21.21875 C 8.238281 -20.15625 7.320312 -18.503906 6.875 -16.265625 L 21.921875 -16.265625 L 21.921875 -16.671875 C 21.742188 -18.472656 20.929688 -19.945312 19.484375 -21.09375 C 18.046875 -22.25 16.410156 -22.828125 14.578125 -22.828125 Z M 14.578125 -22.828125 "/></g></g></g><g fill="#000000" fill-opacity="1"><g transform="translate(576.742211, 535.305501)"><g><path d="M 8.875 -2.453125 C 8.875 -1.765625 8.632812 -1.179688 8.15625 -0.703125 C 7.675781 -0.234375 7.097656 0 6.421875 0 C 5.742188 0 5.175781 -0.234375 4.71875 -0.703125 C 4.257812 -1.179688 4.03125 -1.765625 4.03125 -2.453125 L 4.03125 -35.265625 C 4.03125 -35.953125 4.265625 -36.53125 4.734375 -37 C 5.210938 -37.476562 5.789062 -37.71875 6.46875 -37.71875 C 7.15625 -37.71875 7.726562 -37.476562 8.1875 -37 C 8.644531 -36.53125 8.875 -35.953125 8.875 -35.265625 Z M 8.875 -2.453125 "/></g></g></g><g fill="#000000" fill-opacity="1"><g transform="translate(629.092192, 535.305501)"><g><path d="M 8.875 -2.453125 C 8.875 -1.765625 8.632812 -1.179688 8.15625 -0.703125 C 7.675781 -0.234375 7.097656 0 6.421875 0 C 5.742188 0 5.175781 -0.234375 4.71875 -0.703125 C 4.257812 -1.179688 4.03125 -1.765625 4.03125 -2.453125 L 4.03125 -35.265625 C 4.03125 -35.953125 4.265625 -36.53125 4.734375 -37 C 5.210938 -37.476562 5.789062 -37.71875 6.46875 -37.71875 C 7.15625 -37.71875 7.726562 -37.476562 8.1875 -37 C 8.644531 -36.53125 8.875 -35.953125 8.875 -35.265625 Z M 8.875 -2.453125 "/></g></g></g><g fill="#000000" fill-opacity="1"><g transform="translate(681.442173, 535.305501)"><g><path d="M 8.203125 -2.453125 C 8.203125 -1.765625 7.972656 -1.179688 7.515625 -0.703125 C 7.054688 -0.234375 6.472656 0 5.765625 0 C 5.078125 0 4.503906 -0.234375 4.046875 -0.703125 C 3.585938 -1.179688 3.359375 -1.765625 3.359375 -2.453125 L 3.359375 -24.515625 C 3.359375 -25.191406 3.585938 -25.769531 4.046875 -26.25 C 4.503906 -26.726562 5.078125 -26.96875 5.765625 -26.96875 C 6.472656 -26.96875 7.054688 -26.726562 7.515625 -26.25 C 7.972656 -25.769531 8.203125 -25.191406 8.203125 -24.515625 Z M 5.765625 -30.328125 C 4.773438 -30.328125 4.066406 -30.503906 3.640625 -30.859375 C 3.222656 -31.210938 3.015625 -31.78125 3.015625 -32.5625 L 3.015625 -33.390625 C 3.015625 -34.203125 3.242188 -34.773438 3.703125 -35.109375 C 4.160156 -35.453125 4.863281 -35.625 5.8125 -35.625 C 6.757812 -35.625 7.445312 -35.445312 7.875 -35.09375 C 8.300781 -34.738281 8.515625 -34.171875 8.515625 -33.390625 L 8.515625 -32.5625 C 8.515625 -31.75 8.289062 -31.171875 7.84375 -30.828125 C 7.40625 -30.492188 6.710938 -30.328125 5.765625 -30.328125 Z M 5.765625 -30.328125 "/></g></g></g><g fill="#000000" fill-opacity="1"><g transform="translate(732.467421, 535.305501)"><g><path d="M 17.234375 -27.3125 C 23.347656 -27.3125 26.40625 -23.644531 26.40625 -16.3125 L 26.40625 -2.453125 C 26.40625 -1.765625 26.175781 -1.179688 25.71875 -0.703125 C 25.257812 -0.234375 24.671875 0 23.953125 0 C 23.273438 0 22.707031 -0.234375 22.25 -0.703125 C 21.789062 -1.179688 21.5625 -1.765625 21.5625 -2.453125 L 21.5625 -16.265625 C 21.5625 -18.265625 21.101562 -19.859375 20.1875 -21.046875 C 19.269531 -22.234375 17.773438 -22.828125 15.703125 -22.828125 C 14.335938 -22.828125 13.101562 -22.53125 12 -21.9375 C 10.894531 -21.34375 10.023438 -20.546875 9.390625 -19.546875 C 8.765625 -18.546875 8.453125 -17.453125 8.453125 -16.265625 L 8.453125 -2.453125 C 8.453125 -1.765625 8.222656 -1.179688 7.765625 -0.703125 C 7.304688 -0.234375 6.722656 0 6.015625 0 C 5.296875 0 4.71875 -0.226562 4.28125 -0.6875 C 3.84375 -1.144531 3.625 -1.734375 3.625 -2.453125 L 3.625 -24.265625 C 3.625 -24.941406 3.851562 -25.515625 4.3125 -25.984375 C 4.769531 -26.460938 5.335938 -26.703125 6.015625 -26.703125 C 6.722656 -26.703125 7.304688 -26.460938 7.765625 -25.984375 C 8.222656 -25.515625 8.453125 -24.941406 8.453125 -24.265625 L 8.453125 -22.484375 C 9.335938 -23.835938 10.570312 -24.976562 12.15625 -25.90625 C 13.738281 -26.84375 15.429688 -27.3125 17.234375 -27.3125 Z M 17.234375 -27.3125 "/></g></g></g><g fill="#000000" fill-opacity="1"><g transform="translate(801.936615, 535.305501)"><g><path d="M 25.9375 -27.0625 C 26.65625 -27.0625 27.242188 -26.832031 27.703125 -26.375 C 28.160156 -25.914062 28.390625 -25.3125 28.390625 -24.5625 L 28.390625 -2.140625 C 28.390625 0.609375 27.800781 2.910156 26.625 4.765625 C 25.457031 6.617188 23.867188 7.984375 21.859375 8.859375 C 19.859375 9.742188 17.601562 10.1875 15.09375 10.1875 C 13.726562 10.1875 12.132812 9.945312 10.3125 9.46875 C 8.5 9 7.335938 8.507812 6.828125 8 C 5.773438 7.457031 5.25 6.78125 5.25 5.96875 C 5.25 5.757812 5.316406 5.484375 5.453125 5.140625 C 5.828125 4.296875 6.457031 3.875 7.34375 3.875 C 7.78125 3.875 8.253906 3.972656 8.765625 4.171875 C 11.484375 5.234375 13.609375 5.765625 15.140625 5.765625 C 17.859375 5.765625 19.9375 5.109375 21.375 3.796875 C 22.820312 2.484375 23.546875 0.691406 23.546875 -1.578125 L 23.546875 -4.328125 C 22.835938 -3.003906 21.640625 -1.863281 19.953125 -0.90625 C 18.273438 0.0390625 16.5 0.515625 14.625 0.515625 C 12.28125 0.515625 10.140625 -0.078125 8.203125 -1.265625 C 6.265625 -2.460938 4.742188 -4.117188 3.640625 -6.234375 C 2.535156 -8.359375 1.984375 -10.75 1.984375 -13.40625 C 1.984375 -16.050781 2.535156 -18.4375 3.640625 -20.5625 C 4.742188 -22.6875 6.253906 -24.34375 8.171875 -25.53125 C 10.097656 -26.71875 12.21875 -27.3125 14.53125 -27.3125 C 16.394531 -27.3125 18.132812 -26.882812 19.75 -26.03125 C 21.363281 -25.1875 22.628906 -24.15625 23.546875 -22.9375 L 23.546875 -24.5625 C 23.546875 -25.28125 23.765625 -25.875 24.203125 -26.34375 C 24.648438 -26.820312 25.226562 -27.0625 25.9375 -27.0625 Z M 15.1875 -3.96875 C 16.851562 -3.96875 18.332031 -4.367188 19.625 -5.171875 C 20.914062 -5.972656 21.925781 -7.09375 22.65625 -8.53125 C 23.382812 -9.976562 23.75 -11.601562 23.75 -13.40625 C 23.75 -15.207031 23.382812 -16.820312 22.65625 -18.25 C 21.925781 -19.675781 20.914062 -20.796875 19.625 -21.609375 C 18.332031 -22.421875 16.851562 -22.828125 15.1875 -22.828125 C 13.550781 -22.828125 12.085938 -22.421875 10.796875 -21.609375 C 9.515625 -20.796875 8.503906 -19.664062 7.765625 -18.21875 C 7.035156 -16.78125 6.671875 -15.175781 6.671875 -13.40625 C 6.671875 -11.632812 7.035156 -10.023438 7.765625 -8.578125 C 8.503906 -7.140625 9.515625 -6.007812 10.796875 -5.1875 C 12.085938 -4.375 13.550781 -3.96875 15.1875 -3.96875 Z M 15.1875 -3.96875 "/></g></g></g><g fill="#000000" fill-opacity="1"><g transform="translate(873.341932, 535.305501)"><g/></g></g><g fill="#000000" fill-opacity="1"><g transform="translate(926.914728, 535.305501)"><g><path d="M 34.25 -27.171875 C 40.195312 -27.171875 43.171875 -23.46875 43.171875 -16.0625 L 43.171875 -2.453125 C 43.171875 -1.734375 42.945312 -1.144531 42.5 -0.6875 C 42.0625 -0.226562 41.488281 0 40.78125 0 C 40.0625 0 39.472656 -0.234375 39.015625 -0.703125 C 38.554688 -1.179688 38.328125 -1.765625 38.328125 -2.453125 L 38.328125 -16 C 38.328125 -20.457031 36.457031 -22.6875 32.71875 -22.6875 C 31.394531 -22.6875 30.195312 -22.382812 29.125 -21.78125 C 28.050781 -21.1875 27.21875 -20.378906 26.625 -19.359375 C 26.03125 -18.347656 25.734375 -17.226562 25.734375 -16 L 25.734375 -2.453125 C 25.734375 -1.765625 25.503906 -1.179688 25.046875 -0.703125 C 24.585938 -0.234375 24.003906 0 23.296875 0 C 22.578125 0 21.992188 -0.226562 21.546875 -0.6875 C 21.109375 -1.144531 20.890625 -1.734375 20.890625 -2.453125 L 20.890625 -16.0625 C 20.890625 -18.0625 20.460938 -19.664062 19.609375 -20.875 C 18.765625 -22.082031 17.359375 -22.6875 15.390625 -22.6875 C 13.390625 -22.6875 11.734375 -22.046875 10.421875 -20.765625 C 9.109375 -19.492188 8.453125 -17.925781 8.453125 -16.0625 L 8.453125 -2.453125 C 8.453125 -1.765625 8.222656 -1.179688 7.765625 -0.703125 C 7.304688 -0.234375 6.722656 0 6.015625 0 C 5.296875 0 4.71875 -0.226562 4.28125 -0.6875 C 3.84375 -1.144531 3.625 -1.734375 3.625 -2.453125 L 3.625 -24.265625 C 3.625 -24.941406 3.851562 -25.515625 4.3125 -25.984375 C 4.769531 -26.460938 5.335938 -26.703125 6.015625 -26.703125 C 6.722656 -26.703125 7.304688 -26.460938 7.765625 -25.984375 C 8.222656 -25.515625 8.453125 -24.941406 8.453125 -24.265625 L 8.453125 -22.484375 C 9.335938 -23.804688 10.519531 -24.914062 12 -25.8125 C 13.476562 -26.71875 15.082031 -27.171875 16.8125 -27.171875 C 21.03125 -27.171875 23.769531 -25.300781 25.03125 -21.5625 C 25.769531 -22.988281 27.003906 -24.28125 28.734375 -25.4375 C 30.472656 -26.59375 32.3125 -27.171875 34.25 -27.171875 Z M 34.25 -27.171875 "/></g></g></g><g fill="#000000" fill-opacity="1"><g transform="translate(1013.14649, 535.305501)"><g><path d="M 27.0625 -14.375 C 27.03125 -13.757812 26.773438 -13.238281 26.296875 -12.8125 C 25.828125 -12.394531 25.269531 -12.1875 24.625 -12.1875 L 6.671875 -12.1875 C 6.910156 -9.695312 7.851562 -7.703125 9.5 -6.203125 C 11.15625 -4.710938 13.171875 -3.96875 15.546875 -3.96875 C 17.171875 -3.96875 18.492188 -4.207031 19.515625 -4.6875 C 20.535156 -5.164062 21.4375 -5.78125 22.21875 -6.53125 C 22.726562 -6.832031 23.222656 -6.984375 23.703125 -6.984375 C 24.273438 -6.984375 24.753906 -6.78125 25.140625 -6.375 C 25.535156 -5.96875 25.734375 -5.488281 25.734375 -4.9375 C 25.734375 -4.226562 25.394531 -3.582031 24.71875 -3 C 23.726562 -2.019531 22.414062 -1.1875 20.78125 -0.5 C 19.15625 0.175781 17.492188 0.515625 15.796875 0.515625 C 13.046875 0.515625 10.625 -0.0625 8.53125 -1.21875 C 6.445312 -2.375 4.832031 -3.988281 3.6875 -6.0625 C 2.550781 -8.132812 1.984375 -10.476562 1.984375 -13.09375 C 1.984375 -15.945312 2.566406 -18.453125 3.734375 -20.609375 C 4.910156 -22.773438 6.457031 -24.429688 8.375 -25.578125 C 10.300781 -26.734375 12.367188 -27.3125 14.578125 -27.3125 C 16.753906 -27.3125 18.789062 -26.75 20.6875 -25.625 C 22.59375 -24.507812 24.125 -22.96875 25.28125 -21 C 26.4375 -19.03125 27.03125 -16.820312 27.0625 -14.375 Z M 14.578125 -22.828125 C 12.671875 -22.828125 11.019531 -22.289062 9.625 -21.21875 C 8.238281 -20.15625 7.320312 -18.503906 6.875 -16.265625 L 21.921875 -16.265625 L 21.921875 -16.671875 C 21.742188 -18.472656 20.929688 -19.945312 19.484375 -21.09375 C 18.046875 -22.25 16.410156 -22.828125 14.578125 -22.828125 Z M 14.578125 -22.828125 "/></g></g></g><g fill="#000000" fill-opacity="1"><g transform="translate(1081.647619, 535.305501)"><g><path d="M 25.28125 -37.71875 C 25.988281 -37.71875 26.570312 -37.488281 27.03125 -37.03125 C 27.5 -36.570312 27.734375 -35.984375 27.734375 -35.265625 L 27.734375 -2.453125 C 27.734375 -1.765625 27.5 -1.179688 27.03125 -0.703125 C 26.570312 -0.234375 25.988281 0 25.28125 0 C 24.5625 0 23.984375 -0.226562 23.546875 -0.6875 C 23.109375 -1.144531 22.890625 -1.734375 22.890625 -2.453125 L 22.890625 -3.875 C 22.035156 -2.644531 20.832031 -1.601562 19.28125 -0.75 C 17.738281 0.09375 16.085938 0.515625 14.328125 0.515625 C 12.015625 0.515625 9.921875 -0.078125 8.046875 -1.265625 C 6.179688 -2.460938 4.703125 -4.117188 3.609375 -6.234375 C 2.523438 -8.359375 1.984375 -10.75 1.984375 -13.40625 C 1.984375 -16.050781 2.519531 -18.4375 3.59375 -20.5625 C 4.664062 -22.6875 6.132812 -24.34375 8 -25.53125 C 9.875 -26.71875 11.929688 -27.3125 14.171875 -27.3125 C 15.972656 -27.3125 17.632812 -26.9375 19.15625 -26.1875 C 20.6875 -25.445312 21.929688 -24.484375 22.890625 -23.296875 L 22.890625 -35.265625 C 22.890625 -35.984375 23.109375 -36.570312 23.546875 -37.03125 C 23.984375 -37.488281 24.5625 -37.71875 25.28125 -37.71875 Z M 14.890625 -3.96875 C 16.484375 -3.96875 17.898438 -4.375 19.140625 -5.1875 C 20.378906 -6.007812 21.347656 -7.132812 22.046875 -8.5625 C 22.742188 -9.988281 23.09375 -11.601562 23.09375 -13.40625 C 23.09375 -15.175781 22.742188 -16.78125 22.046875 -18.21875 C 21.347656 -19.664062 20.378906 -20.796875 19.140625 -21.609375 C 17.898438 -22.421875 16.484375 -22.828125 14.890625 -22.828125 C 13.285156 -22.828125 11.863281 -22.421875 10.625 -21.609375 C 9.382812 -20.796875 8.414062 -19.664062 7.71875 -18.21875 C 7.019531 -16.78125 6.671875 -15.175781 6.671875 -13.40625 C 6.671875 -11.601562 7.019531 -9.988281 7.71875 -8.5625 C 8.414062 -7.132812 9.382812 -6.007812 10.625 -5.1875 C 11.863281 -4.375 13.285156 -3.96875 14.890625 -3.96875 Z M 14.890625 -3.96875 "/></g></g></g><g fill="#000000" fill-opacity="1"><g transform="translate(1152.390599, 535.305501)"><g><path d="M 2.09375 -4.171875 C 1.78125 -4.648438 1.625 -5.113281 1.625 -5.5625 C 1.625 -6.238281 1.984375 -6.8125 2.703125 -7.28125 C 3.046875 -7.519531 3.4375 -7.640625 3.875 -7.640625 C 4.488281 -7.640625 5.050781 -7.382812 5.5625 -6.875 C 6.570312 -5.71875 7.660156 -4.851562 8.828125 -4.28125 C 10.003906 -3.707031 11.410156 -3.421875 13.046875 -3.421875 C 14.335938 -3.453125 15.472656 -3.742188 16.453125 -4.296875 C 17.441406 -4.859375 17.9375 -5.769531 17.9375 -7.03125 C 17.9375 -8.1875 17.4375 -9.066406 16.4375 -9.671875 C 15.4375 -10.285156 13.96875 -10.847656 12.03125 -11.359375 C 10.125 -11.867188 8.539062 -12.40625 7.28125 -12.96875 C 6.03125 -13.53125 4.96875 -14.347656 4.09375 -15.421875 C 3.226562 -16.492188 2.796875 -17.894531 2.796875 -19.625 C 2.796875 -21.15625 3.226562 -22.492188 4.09375 -23.640625 C 4.96875 -24.796875 6.125 -25.695312 7.5625 -26.34375 C 9.007812 -26.988281 10.582031 -27.3125 12.28125 -27.3125 C 13.914062 -27.3125 15.539062 -27.003906 17.15625 -26.390625 C 18.769531 -25.785156 20.082031 -24.851562 21.09375 -23.59375 C 21.507812 -23.125 21.71875 -22.632812 21.71875 -22.125 C 21.71875 -21.582031 21.441406 -21.054688 20.890625 -20.546875 C 20.554688 -20.234375 20.132812 -20.078125 19.625 -20.078125 C 19.007812 -20.078125 18.515625 -20.28125 18.140625 -20.6875 C 17.429688 -21.507812 16.554688 -22.140625 15.515625 -22.578125 C 14.484375 -23.015625 13.335938 -23.234375 12.078125 -23.234375 C 10.785156 -23.234375 9.6875 -22.96875 8.78125 -22.4375 C 7.882812 -21.914062 7.4375 -21.03125 7.4375 -19.78125 C 7.476562 -18.582031 8 -17.695312 9 -17.125 C 10 -16.550781 11.535156 -15.988281 13.609375 -15.4375 C 15.410156 -14.96875 16.90625 -14.457031 18.09375 -13.90625 C 19.28125 -13.363281 20.28125 -12.554688 21.09375 -11.484375 C 21.914062 -10.421875 22.328125 -9.019531 22.328125 -7.28125 C 22.328125 -5.6875 21.867188 -4.300781 20.953125 -3.125 C 20.035156 -1.957031 18.835938 -1.054688 17.359375 -0.421875 C 15.878906 0.203125 14.304688 0.515625 12.640625 0.515625 C 10.492188 0.515625 8.507812 0.140625 6.6875 -0.609375 C 4.875 -1.359375 3.34375 -2.546875 2.09375 -4.171875 Z M 2.09375 -4.171875 "/></g></g></g></svg>