<svg width="2500" height="700" viewBox="0 0 3700 600" fill="none" xmlns="http://www.w3.org/2000/svg">
<path d="M-0.000976562 358.5L1920 0V447.623L-0.000976562 801L-0.000976562 358.5Z" fill="#0E72E8"/>
<path d="M-69.4289 809.891C-61.7542 677.283 156.814 408.363 370.86 493.593C638.418 600.131 663.905 715.76 808.195 498.46C952.484 281.16 1019.48 223.428 1143.24 265.183C1266.99 306.937 1531.08 480.812 1659.94 279.637C1763.02 118.697 2013.12 68.6896 2125.29 63.8034" stroke="#2086FF" strokeWidth="2"/>
<path d="M-71.3507 807.874C-63.676 675.266 149.46 407.253 363.507 492.484C631.065 599.022 656.552 714.65 800.841 497.35C945.131 280.05 1012.12 222.319 1135.88 264.073C1259.64 305.828 1523.73 479.703 1652.59 278.528C1755.67 117.588 2005.77 67.5802 2117.93 62.694" stroke="#2086FF" strokeWidth="2"/>
<path d="M-73.348 805.778C-65.6732 673.171 141.815 406.101 355.862 491.332C623.42 597.87 648.907 713.498 793.196 496.198C937.486 278.898 1004.48 221.167 1128.24 262.921C1252 304.675 1516.09 478.551 1644.94 277.376C1748.02 116.436 1998.12 66.4281 2110.29 61.5419" stroke="#2086FF" strokeWidth="2"/>
<path d="M-75.4226 803.599C-67.7479 670.992 133.877 404.902 347.923 490.133C615.481 596.671 640.968 712.299 785.258 494.999C929.547 277.699 996.54 219.968 1120.3 261.722C1244.06 303.477 1508.15 477.352 1637 276.177C1740.09 115.237 1990.19 65.2293 2102.35 60.3431" stroke="#2086FF" strokeWidth="2"/>
<path d="M-77.5727 801.342C-69.898 668.735 125.646 403.661 339.693 488.891C607.251 595.43 632.738 711.058 777.027 493.758C921.317 276.458 988.31 218.726 1112.07 260.481C1235.83 302.235 1499.92 476.111 1628.77 274.935C1731.86 113.995 1981.96 63.9877 2094.12 59.1015" stroke="#2086FF" strokeWidth="2"/>
<path d="M-79.8003 799.004C-72.1256 666.396 117.122 402.374 331.169 487.605C598.727 594.143 624.214 709.772 768.504 492.472C912.793 275.172 979.786 217.44 1103.54 259.194C1227.3 300.949 1491.39 474.824 1620.25 273.649C1723.33 112.709 1973.43 62.7014 2085.6 57.8152" stroke="#2086FF" strokeWidth="2"/>
<path d="M-82.1032 796.586C-74.4285 663.979 108.307 401.045 322.354 486.276C589.912 592.814 615.399 708.442 759.688 491.142C903.977 273.842 970.97 216.111 1094.73 257.865C1218.49 299.62 1482.58 473.495 1611.43 272.32C1714.52 111.38 1964.62 61.3723 2076.78 56.4861" stroke="#2086FF" strokeWidth="2"/>
<path d="M-84.4836 794.088C-76.8089 661.481 99.1979 399.672 313.244 484.902C580.803 591.44 606.289 707.069 750.579 489.769C894.868 272.469 961.861 214.737 1085.62 256.491C1209.38 298.246 1473.47 472.121 1602.32 270.946C1705.41 110.006 1955.51 59.9985 2067.67 55.1123" stroke="#2086FF" strokeWidth="2"/>
<path d="M-86.9395 791.509C-79.2648 658.902 89.7971 398.253 303.844 483.484C571.402 590.022 596.889 705.65 741.178 488.35C885.468 271.05 952.46 213.318 1076.22 255.073C1199.98 296.827 1464.07 470.703 1592.92 269.528C1696.01 108.587 1946.11 58.5799 2058.27 53.6937" stroke="#2086FF" strokeWidth="2"/>
<path d="M-89.4728 788.85C-81.7981 656.242 80.1028 396.79 294.149 482.02C561.708 588.558 587.194 704.187 731.484 486.887C875.773 269.587 942.766 211.855 1066.52 253.61C1190.28 295.364 1454.37 469.239 1583.23 268.064C1686.31 107.124 1936.41 57.1166 2048.58 52.2304" stroke="#2086FF" strokeWidth="2"/>
<path d="M-92.0835 786.111C-84.4088 653.503 70.1148 395.284 284.161 480.514C551.72 587.052 577.206 702.681 721.496 485.381C865.785 268.081 932.778 210.349 1056.54 252.103C1180.3 293.858 1444.39 467.733 1573.24 266.558C1676.32 105.618 1926.42 55.6105 2038.59 50.7243" stroke="#2086FF" strokeWidth="2"/>
<path d="M-94.7696 783.291C-87.0949 650.684 59.8353 393.733 273.882 478.963C541.44 585.502 566.927 701.13 711.216 483.83C855.506 266.53 922.499 208.798 1046.26 250.553C1170.02 292.307 1434.11 466.183 1562.96 265.007C1666.04 104.067 1916.14 54.0596 2028.31 49.1735" stroke="#2086FF" strokeWidth="2"/>
<path d="M-97.5312 780.391C-89.8565 647.783 49.2641 392.137 263.311 477.368C530.869 583.906 556.356 699.534 700.645 482.234C844.935 264.934 911.927 207.203 1035.69 248.957C1159.44 290.711 1423.53 464.587 1552.39 263.412C1655.47 102.471 1905.57 52.4641 2017.74 47.5779" stroke="#2086FF" strokeWidth="2"/>
<path d="M-100.37 777.409C-92.6955 644.802 38.3993 390.497 252.446 475.727C520.004 582.266 545.491 697.894 689.78 480.594C834.07 263.294 901.062 205.562 1024.82 247.317C1148.58 289.071 1412.67 462.947 1541.52 261.771C1644.61 100.831 1894.71 50.8238 2006.87 45.9376" stroke="#2086FF" strokeWidth="2"/>
<path d="M-103.289 774.349C-95.6139 641.742 27.2389 388.814 241.285 474.044C508.844 580.583 534.33 696.211 678.62 478.911C822.909 261.611 889.902 203.879 1013.66 245.634C1137.42 287.388 1401.51 461.264 1530.36 260.088C1633.45 99.1481 1883.55 49.1407 1995.71 44.2545" stroke="#2086FF" strokeWidth="2"/>
<path d="M-106.281 771.208C-98.6058 638.601 15.7888 387.086 229.835 472.317C497.394 578.855 522.88 694.483 667.17 477.183C811.459 259.883 878.452 202.151 1002.21 243.906C1125.97 285.66 1390.06 459.536 1518.91 258.36C1622 97.4203 1872.1 47.4129 1984.26 42.5267" stroke="#2086FF" strokeWidth="2"/>
<path d="M-109.346 767.988C-101.671 635.381 4.04909 385.315 218.096 470.546C485.654 577.084 511.141 692.712 655.43 475.412C799.72 258.112 866.712 200.381 990.471 242.135C1114.23 283.89 1378.32 457.765 1507.17 256.59C1610.26 95.6497 1860.36 45.6423 1972.52 40.7561" stroke="#2086FF" strokeWidth="2"/>
<path d="M-112.491 764.688C-104.816 632.08 -7.98618 383.5 206.06 468.731C473.619 575.269 499.105 690.897 643.395 473.597C787.684 256.297 854.677 198.565 978.436 240.32C1102.19 282.074 1366.28 455.95 1495.14 254.775C1598.22 93.8343 1848.32 43.8269 1960.49 38.9407" stroke="#2086FF" strokeWidth="2"/>
<path d="M-115.713 761.306C-108.038 628.699 -20.3151 381.64 193.731 466.871C461.29 573.409 486.776 689.037 631.066 471.737C775.355 254.437 842.348 196.705 966.107 238.46C1089.87 280.214 1353.96 454.09 1482.81 252.914C1585.89 91.9743 1835.99 41.9668 1948.16 37.0807" stroke="#2086FF" strokeWidth="2"/>
<path d="M-119.01 757.843C-111.336 625.236 -32.9356 379.735 181.111 464.966C448.669 571.504 474.156 687.132 618.445 469.832C762.735 252.532 829.728 194.801 953.486 236.555C1077.24 278.309 1341.34 452.185 1470.19 251.01C1573.27 90.0694 1823.37 40.062 1935.54 35.1759" stroke="#2086FF" strokeWidth="2"/>
</svg>
