<svg width="800%" height="5000px" viewBox="0 0 3000 2700" fill="none" xmlns="http://www.w3.org/2000/svg">
    <path d="M-173.253 157.101C23.8277 626.688 35.0349 962.572 2.71301 1190.07C-24.2441 1379.72 -70.5475 1417.09 -64.5598 1588.33C-51.5562 1959.93 190.914 2482.28 520.232 2550.98C682.455 2584.82 745.432 2465.19 967.309 2355.72C1166.91 2257.25 1486.78 2173.51 1999.65 2270.8" stroke="#CBE3FF" stroke-miterlimit="10"/>
    <path d="M-211.934 192.066C-6.44028 636.8 12.5682 962.434 -11.3741 1182.53C-31.5496 1367.74 -66.181 1411.53 -53.3309 1587.76C-26.3757 1957.46 198.875 2450.16 518.234 2528.04C682.728 2568.15 755.549 2463.02 984.052 2362.16C1185.22 2273.37 1503.26 2195.2 2009.3 2289.07" stroke="#CBE3FF" stroke-miterlimit="10"/>
    <path d="M-250.609 227.028C-36.7142 646.908 -9.81014 962.475 -25.4439 1175.01C-38.7634 1356.07 -61.9694 1405.8 -42.0845 1587.22C-1.80508 1954.7 207.111 2418.91 516.26 2505.13C683.275 2551.7 765.442 2460.78 1000.81 2368.63C1203.35 2289.36 1519.76 2216.93 2018.96 2307.41" stroke="#CBE3FF" stroke-miterlimit="10"/>
    <path d="M-289.285 261.993C-66.9885 657.019 -32.0546 962.737 -39.5411 1167.52C-45.9661 1344.61 -57.9571 1399.92 -30.8041 1586.69C22.1796 1951.7 215.565 2388.51 514.309 2482.23C684.04 2535.49 775.12 2458.44 1017.6 2375.12C1221.24 2305.14 1536.27 2238.69 2028.62 2325.72" stroke="#CBE3FF" stroke-miterlimit="10"/>
    <path d="M-327.957 296.955C-97.22 667.15 -54.1059 963.225 -53.5806 1159.97C-53.1087 1333.39 -54.094 1393.97 -19.5891 1586.11C45.5245 1948.43 224.104 2358.87 512.303 2459.28C684.969 2519.44 784.533 2455.89 1034.34 2381.55C1238.9 2320.67 1552.74 2260.39 2038.22 2344" stroke="#CBE3FF" stroke-miterlimit="10"/>
    <path d="M-366.632 331.919C-127.516 677.232 -75.9516 963.96 -67.6492 1152.46C-60.1615 1322.47 -50.5158 1387.85 -8.33565 1585.56C68.3411 1945.05 232.763 2330.03 510.319 2436.36C686.065 2503.68 793.723 2453.15 1051.1 2388.01C1256.39 2336.01 1569.23 2282.12 2047.91 2362.28" stroke="#CBE3FF" stroke-miterlimit="10"/>
    <path d="M-405.307 366.879C-157.762 687.314 -97.4906 964.933 -81.7184 1144.94C-67.0958 1311.84 -47.123 1381.69 2.90611 1585C90.6531 1941.57 241.453 2301.93 508.34 2413.44C687.263 2488.19 802.791 2450.27 1067.85 2394.47C1273.73 2351.13 1585.74 2303.87 2057.55 2380.58" stroke="#CBE3FF" stroke-miterlimit="10"/>
    <path d="M-443.965 401.87C-188.036 697.465 -118.672 966.194 -95.7657 1137.44C-73.8216 1301.53 -43.9092 1375.54 14.1699 1584.48C112.506 1938.06 250.166 2274.55 506.383 2390.54C688.557 2473.01 811.668 2447.15 1084.64 2400.95C1290.9 2366.01 1602.19 2325.59 2067.21 2398.88" stroke="#CBE3FF" stroke-miterlimit="10"/>
    <path d="M-482.662 436.806C-218.331 707.546 -139.477 967.641 -109.861 1129.9C-80.3419 1291.49 -41.0345 1369.32 25.402 1583.9C133.91 1934.52 258.793 2247.77 504.378 2367.59C689.851 2458.11 820.367 2443.72 1101.38 2407.39C1307.98 2380.68 1618.7 2347.3 2076.9 2417.22" stroke="#CBE3FF" stroke-miterlimit="10"/>
    <path d="M-521.319 471.752C-248.581 717.643 -159.775 969.303 -123.913 1122.37C-86.5774 1281.69 -38.2607 1363.08 36.6619 1583.33C154.934 1930.98 267.346 2221.53 502.417 2344.65C691.136 2443.5 828.986 2440.03 1118.16 2413.83C1324.97 2395.09 1635.21 2369.02 2086.54 2435.46" stroke="#CBE3FF" stroke-miterlimit="10"/>
    <path d="M-560.015 506.736C-278.84 727.8 -179.588 971.172 -137.99 1114.87C-92.4531 1272.2 -35.7568 1356.95 47.9009 1582.79C175.606 1927.55 275.752 2195.87 500.418 2321.75C692.336 2429.28 837.475 2436.08 1134.91 2420.31C1341.86 2409.33 1651.69 2390.76 2096.17 2453.79" stroke="#CBE3FF" stroke-miterlimit="10"/>
    <path d="M-598.69 541.699C-309.137 737.869 -198.831 973.131 -152.059 1107.35C-97.8745 1262.86 -33.4307 1350.89 59.1438 1582.24C195.993 1924.19 284.03 2170.65 498.44 2298.83C693.434 2415.4 845.917 2431.82 1151.66 2426.77C1358.72 2423.34 1668.18 2412.49 2105.83 2472.08" stroke="#CBE3FF" stroke-miterlimit="10"/>
    <path d="M-637.369 576.665C-339.409 747.976 -217.515 975.111 -166.132 1099.83C-102.779 1253.61 -31.3479 1344.85 70.3941 1581.69C216.124 1920.94 292.119 2145.82 496.469 2275.91C694.347 2401.87 854.318 2427.26 1168.43 2433.23C1375.55 2437.16 1684.67 2434.22 2115.49 2490.39" stroke="#CBE3FF" stroke-miterlimit="10"/>
    <path d="M-676.044 611.629C-369.676 758.09 -235.649 977.041 -180.2 1092.32C-107.09 1244.31 -29.4358 1338.93 81.6313 1581.12C236.021 1917.79 300.02 2121.3 494.473 2252.98C695.058 2388.76 862.698 2422.37 1185.18 2439.68C1392.39 2450.81 1701.18 2455.93 2125.13 2508.7" stroke="#CBE3FF" stroke-miterlimit="10"/>
    <path d="M-714.721 646.59C-399.946 768.191 -253.283 978.808 -194.293 1084.77C-110.779 1234.76 -27.7243 1333.08 92.8667 1580.56C255.731 1914.78 307.632 2097.1 492.482 2230.04C695.459 2376.01 871.096 2417.18 1201.95 2446.11C1409.23 2464.23 1717.65 2477.63 2134.79 2526.94" stroke="#CBE3FF" stroke-miterlimit="10"/>
    <path d="M-753.4 681.558C-430.189 778.331 -270.485 980.32 -208.337 1077.27C-113.739 1224.86 -26.1379 1327.41 104.14 1580.03C275.283 1911.96 315.054 2073.13 490.523 2207.14C695.547 2363.71 879.547 2411.75 1218.71 2452.61C1426.14 2477.6 1734.15 2499.4 2144.45 2545.28" stroke="#CBE3FF" stroke-miterlimit="10"/>
    <path d="M-792.048 716.554C-460.465 788.438 -306.251 999.557 -222.384 1069.79C-85.2015 1184.67 -24.7077 1321.89 115.416 1579.51C294.757 1909.27 322.175 2049.31 488.543 2184.22C695.174 2351.8 888.085 2405.97 1235.47 2459.07C1443.07 2490.8 1750.64 2521.13 2154.08 2563.61" stroke="#CBE3FF" stroke-miterlimit="10"/>
    <path d="M-830.738 751.485C-490.749 798.52 -318.675 998.2 -236.469 1062.24C-92.3899 1174.48 -23.4688 1316.42 126.642 1578.92C314.091 1906.77 328.97 2025.57 486.574 2161.29C694.342 2340.26 896.698 2399.93 1252.25 2465.51C1460.09 2503.86 1767.15 2542.84 2163.77 2581.87" stroke="#CBE3FF" stroke-miterlimit="10"/>
    <path d="M-869.403 786.448C-521.003 808.617 -331.266 995.388 -250.525 1054.71C-99.8135 1165.46 -22.3416 1311.13 137.88 1578.39C333.362 1904.39 335.476 2001.85 484.573 2138.38C692.913 2329.14 905.4 2393.64 1268.99 2471.99C1477.14 2516.85 1783.62 2564.59 2173.39 2600.19" stroke="#CBE3FF" stroke-miterlimit="10"/>
    <path d="M-908.063 821.407C-551.263 818.72 -337.925 981.64 -264.576 1047.19C-120.137 1176.35 -21.3167 1306 149.151 1577.82C352.604 1902.19 341.669 1978.1 482.621 2115.44C690.896 2318.34 914.293 2387.05 1285.79 2478.43C1494.35 2529.72 1800.14 2586.3 2183.08 2618.45" stroke="#CBE3FF" stroke-miterlimit="10"/>
    <path d="M-946.723 856.369C-581.522 828.826 -355.18 980.557 -278.642 1039.67C-121.287 1161.21 -20.4213 1301 160.405 1577.25C371.784 1900.13 347.486 1954.26 480.646 2092.5C688.137 2307.91 923.261 2380.3 1302.53 2484.88C1511.6 2542.52 1816.61 2608.02 2192.72 2636.75" stroke="#CBE3FF" stroke-miterlimit="10"/>
    <path d="M-985.385 891.333C-611.773 838.937 -372.989 978.86 -292.696 1032.15C-122.779 1144.88 -19.6144 1296.17 171.678 1576.69C390.964 1898.26 352.966 1930.27 478.691 2069.57C684.668 2297.73 932.419 2373.31 1319.32 2491.33C1528.95 2555.28 1833.12 2629.72 2202.39 2655.03" stroke="#CBE3FF" stroke-miterlimit="10"/>
</svg>
