<svg width="100%" height="100%" viewBox="0 0 2220 1500" fill="none" xmlns="http://www.w3.org/2000/svg">
    <path d="M-1103.22 238.886C-620.067 403.796 -360.589 618.467 -211.333 793.611C-86.9124 939.63 -89.5932 998.96 42.8734 1108.2C330.339 1345.24 883.212 1511.36 1153.31 1311.52C1286.36 1213.08 1238.39 1086.71 1303.49 848.648C1362.05 634.496 1511.49 340.477 1924.86 22.8159" stroke="#CBE3FF" stroke-miterlimit="10"/>
    <path d="M-1102.66 290.929C-632.565 433.067 -375.603 635.117 -226.339 799.102C-100.748 937.12 -90.8704 992.01 49.8988 1099.45C345.201 1324.84 864.395 1484.1 1134.76 1297.77C1274.03 1201.81 1243.47 1077.72 1319.43 840.441C1386.3 631.542 1538.71 342.591 1944.97 27.7524" stroke="#CBE3FF" stroke-miterlimit="10"/>
    <path d="M-1102.08 342.967C-645.068 462.34 -390.42 651.821 -241.315 804.594C-114.293 934.743 -92.3704 985.065 56.9547 1090.7C359.436 1304.69 846.409 1457.2 1116.27 1284.03C1262.05 1190.47 1248.35 1068.86 1335.41 832.243C1410.33 628.644 1565.96 344.728 1965.14 32.7264" stroke="#CBE3FF" stroke-miterlimit="10"/>
    <path d="M-1101.51 395.013C-657.575 491.621 -404.988 668.578 -256.296 810.13C-127.676 932.504 -94.128 978.17 64.0418 1081.95C373.098 1284.82 829.203 1430.72 1097.78 1270.29C1250.39 1179.14 1253.01 1060.09 1351.41 824.037C1434.04 625.788 1593.24 346.865 1985.28 37.6788" stroke="#CBE3FF" stroke-miterlimit="10"/>
    <path d="M-1100.94 447.05C-670.034 520.879 -419.256 685.336 -271.271 815.585C-140.83 930.382 -96.0305 971.337 71.0454 1073.2C386.132 1265.25 812.626 1404.67 1079.23 1256.54C1238.96 1167.79 1257.34 1051.38 1367.33 815.831C1457.41 622.943 1620.45 348.993 2005.37 42.6659" stroke="#CBE3FF" stroke-miterlimit="10"/>
    <path d="M-1100.37 499.088C-682.572 550.152 -433.201 702.104 -286.248 821.076C-153.705 928.384 -98.2488 964.603 78.101 1064.44C398.736 1245.99 796.734 1379.07 1060.71 1242.8C1227.86 1156.51 1261.38 1042.71 1383.3 807.624C1480.53 620.089 1647.69 351.129 2025.51 47.5811" stroke="#CBE3FF" stroke-miterlimit="10"/>
    <path d="M-1099.8 551.128C-695.079 579.39 -446.764 718.804 -301.228 826.57C-166.288 926.491 -100.62 957.985 85.1445 1055.7C410.932 1227.05 781.413 1353.94 1042.19 1229.05C1217.02 1145.33 1265.24 1034.04 1399.27 799.427C1503.37 617.205 1674.97 353.267 2045.64 52.5412" stroke="#CBE3FF" stroke-miterlimit="10"/>
    <path d="M-1099.2 603.175C-707.551 608.693 -459.873 735.428 -316.173 832.062C-178.486 924.658 -103.097 951.509 92.2229 1046.95C422.803 1208.44 766.647 1329.26 1023.71 1215.3C1206.49 1134.28 1268.79 1025.36 1415.27 791.221C1525.93 614.283 1702.18 355.425 2065.78 57.4933" stroke="#CBE3FF" stroke-miterlimit="10"/>
    <path d="M-1098.66 655.213C-720.089 637.965 -472.592 751.895 -331.184 837.561C-190.341 922.855 -105.86 945.232 99.2438 1038.19C434.352 1190.13 752.274 1305.04 1005.16 1201.56C1196.17 1123.42 1271.98 1016.59 1431.21 783.014C1548.27 611.292 1729.42 357.532 2085.96 62.4442" stroke="#CBE3FF" stroke-miterlimit="10"/>
    <path d="M-1098.09 707.232C-732.587 667.218 -484.816 768.129 -346.165 843.032C-201.833 920.998 -108.698 939.028 106.287 1029.43C445.64 1172.11 738.26 1281.25 986.644 1187.79C1186.05 1112.77 1274.93 1007.72 1447.17 774.787C1570.36 608.2 1756.67 359.647 2106.04 67.3747" stroke="#CBE3FF" stroke-miterlimit="10"/>
    <path d="M-1097.52 759.303C-745.047 696.516 -496.563 784.137 -361.132 848.548C-212.857 919.074 -111.638 933.09 113.343 1020.69C456.783 1154.43 724.579 1257.95 968.129 1174.08C1176.18 1102.43 1277.6 998.769 1463.14 766.604C1592.24 605.065 1783.92 361.807 2126.19 72.3642" stroke="#CBE3FF" stroke-miterlimit="10"/>
    <path d="M-1096.95 811.341C-757.598 725.781 -507.865 799.778 -376.113 854.038C-223.464 916.912 -114.644 927.33 120.386 1011.94C467.788 1137 711.144 1235.03 949.611 1160.33C1166.49 1092.4 1280 989.645 1479.11 758.404C1613.94 601.802 1811.16 363.934 2146.31 77.3067" stroke="#CBE3FF" stroke-miterlimit="10"/>
    <path d="M-1096.38 863.391C-770.099 755.057 -518.774 815.021 -391.087 859.539C-233.661 914.424 -117.795 921.765 127.444 1003.2C478.71 1119.84 697.887 1212.52 931.107 1146.58C1156.94 1082.73 1282.15 980.357 1495.08 750.198C1635.48 598.432 1838.41 366.072 2166.46 82.2591" stroke="#CBE3FF" stroke-miterlimit="10"/>
    <path d="M-1095.81 915.433C-782.597 784.332 -529.362 829.818 -406.067 865.032C-243.501 911.462 -120.971 916.409 134.47 994.443C489.545 1102.91 684.726 1190.35 912.571 1132.84C1147.57 1073.5 1284.04 970.864 1511.03 741.992C1656.89 594.939 1865.65 368.187 2186.58 87.2328" stroke="#CBE3FF" stroke-miterlimit="10"/>
    <path d="M-1095.24 967.476C-795.103 813.601 -539.736 844.135 -421.081 870.525C-253.109 907.875 -124.217 911.255 141.505 985.696C500.371 1086.23 671.615 1168.6 894.037 1119.1C1138.27 1064.73 1285.72 961.162 1526.98 733.765C1678.14 591.3 1892.87 370.317 2206.69 92.142" stroke="#CBE3FF" stroke-miterlimit="10"/>
    <path d="M-1094.67 1019.52C-807.564 842.876 -550.017 857.961 -436.024 876.017C-262.509 903.502 -127.419 906.308 148.586 976.941C511.223 1069.78 658.556 1147.16 875.556 1105.35C1129.09 1056.5 1287.25 951.254 1542.98 725.587C1699.39 587.573 1920.15 372.474 2226.85 97.1219" stroke="#CBE3FF" stroke-miterlimit="10"/>
    <path d="M-1094.05 1071.57C-820.07 872.153 -559.316 897.392 -450.959 881.519C-273.725 855.547 -130.616 901.573 155.683 968.195C522.134 1053.48 645.405 1126.03 857.039 1091.61C1119.91 1048.87 1288.57 941.051 1558.95 717.382C1720.52 583.718 1947.39 374.612 2246.99 102.103" stroke="#CBE3FF" stroke-miterlimit="10"/>
    <path d="M-1093.52 1123.6C-832.604 901.421 -568.581 905.753 -465.976 887.003C-286.139 854.144 -133.896 897.022 162.689 959.438C533.083 1037.41 632.1 1105.2 838.527 1077.85C1110.7 1041.83 1289.76 930.621 1574.92 709.155C1741.62 579.704 1974.64 376.723 2267.13 107.011" stroke="#CBE3FF" stroke-miterlimit="10"/>
    <path d="M-1092.95 1175.64C-845.107 930.681 -579.049 913.276 -480.953 892.488C-297.839 853.691 -137.12 892.674 169.744 950.71C544.087 1021.47 618.624 1084.61 820.01 1064.14C1101.41 1035.52 1290.82 919.967 1590.89 700.993C1762.68 575.633 2001.89 378.894 2287.26 112.014" stroke="#CBE3FF" stroke-miterlimit="10"/>
    <path d="M-1092.37 1227.67C-857.611 959.948 -593.787 909.115 -495.922 897.972C-303.154 876.076 -140.294 888.505 176.798 941.939C555.204 1005.67 604.909 1064.23 801.501 1050.36C1091.97 1029.85 1291.77 908.966 1606.87 692.744C1783.76 571.353 2029.15 381.005 2307.4 116.929" stroke="#CBE3FF" stroke-miterlimit="10"/>
    <path d="M-1091.8 1279.71C-870.112 989.215 -606.053 921.261 -510.905 903.465C-315.283 866.881 -143.449 884.526 183.837 933.176C566.392 990.019 590.88 1044.07 782.978 1036.61C1082.31 1024.99 1292.66 897.807 1622.82 684.554C1804.82 567.001 2056.38 383.154 2327.53 121.902" stroke="#CBE3FF" stroke-miterlimit="10"/>
    <path d="M-1091.22 1331.74C-882.603 1018.48 -619.147 933.414 -525.879 908.949C-328.525 857.159 -146.543 880.719 190.895 924.405C577.712 974.48 576.52 1024.06 764.474 1022.84C1072.37 1020.82 1293.5 886.344 1638.8 676.334C1825.92 562.548 2083.62 385.265 2347.67 126.839" stroke="#CBE3FF" stroke-miterlimit="10"/>
</svg>
