<svg width="1920" height="3529" viewBox="0 0 1920 3529" fill="none" xmlns="http://www.w3.org/2000/svg">
<path d="M-136.418 152.798C49.5217 626.907 52.7959 962.961 15.1121 1189.63C-16.3149 1378.59 -63.4878 1414.86 -61.5446 1586.2C-57.3175 1957.99 172.752 2485.92 500.357 2562.38C661.736 2600.04 727.52 2481.94 951.919 2377.73C1153.79 2284 1475.55 2207.83 1985.98 2317.21" stroke="black" stroke-miterlimit="10"/>
<path d="M-175.913 186.839C19.0232 636.301 30.3386 962.292 1.20692 1181.76C-23.3357 1366.44 -58.9913 1409.41 -50.3055 1585.89C-32.086 1956.13 181.47 2454.01 498.902 2539.4C662.403 2583.39 737.685 2480 968.505 2384.56C1171.72 2300.55 1491.51 2229.91 1995.19 2335.7" stroke="black" stroke-miterlimit="10"/>
<path d="M-215.403 220.878C-11.4805 645.691 7.96589 961.805 -12.6811 1173.91C-30.2716 1354.6 -54.6453 1403.78 -39.049 1585.61C-7.4567 1953.94 190.442 2422.96 497.469 2516.45C663.338 2566.95 747.628 2477.99 985.109 2391.43C1189.46 2316.96 1507.49 2252.03 2004.42 2354.27" stroke="black" stroke-miterlimit="10"/>
<path d="M-254.893 254.921C-41.985 655.085 -14.2786 961.543 -26.5975 1166.09C-37.2016 1342.98 -50.4951 1397.99 -27.7593 1585.35C16.5922 1951.51 199.611 2392.77 496.059 2493.51C664.486 2550.77 757.359 2475.88 1001.74 2398.31C1206.98 2333.16 1523.49 2274.17 2013.65 2372.79" stroke="black" stroke-miterlimit="10"/>
<path d="M-294.381 288.961C-72.4476 664.5 -36.3355 961.51 -40.4554 1158.22C-44.0778 1331.6 -46.493 1392.13 -16.5339 1585.03C40.0075 1948.79 208.847 2363.33 494.596 2470.52C665.793 2534.74 766.83 2473.56 1018.32 2405.13C1224.26 2349.11 1539.44 2296.25 2022.81 2391.3" stroke="black" stroke-miterlimit="10"/>
<path d="M-333.869 323C-102.973 673.863 -58.192 961.728 -54.342 1150.37C-50.8703 1320.51 -42.7707 1386.1 -5.27006 1584.75C62.8982 1945.95 218.185 2334.71 493.154 2447.56C667.261 2519.01 776.082 2471.03 1034.92 2411.99C1241.39 2364.85 1555.41 2318.36 2032.06 2409.8" stroke="black" stroke-miterlimit="10"/>
<path d="M-373.36 357.037C-133.449 683.227 -79.7487 962.192 -68.2306 1142.52C-57.5523 1309.72 -39.2342 1380.02 5.98084 1584.46C85.2852 1943 227.535 2306.82 491.716 2424.59C668.824 2503.55 785.215 2468.37 1051.52 2418.84C1258.36 2380.37 1571.4 2340.5 2041.27 2428.32" stroke="black" stroke-miterlimit="10"/>
<path d="M-412.833 391.107C-163.953 692.661 -100.953 962.954 -82.0963 1134.69C-64.0322 1299.25 -35.8756 1373.95 17.2546 1584.2C107.216 1940.01 236.894 2279.65 490.3 2401.66C670.477 2488.41 794.164 2465.46 1068.15 2425.72C1275.18 2395.66 1587.34 2362.6 2050.5 2446.85" stroke="black" stroke-miterlimit="10"/>
<path d="M-452.344 425.12C-194.478 702.024 -121.787 963.909 -96.0106 1126.82C-70.3143 1289.07 -32.8552 1367.8 28.4967 1583.89C128.697 1936.98 246.15 2253.08 488.837 2378.67C672.122 2473.54 802.94 2462.24 1084.73 2432.55C1291.9 2410.72 1603.33 2384.69 2059.75 2465.41" stroke="black" stroke-miterlimit="10"/>
<path d="M-491.815 459.144C-224.958 711.406 -142.118 965.092 -109.879 1118.96C-76.3161 1279.12 -29.9344 1361.63 39.7676 1583.58C149.8 1933.93 255.32 2227.06 487.418 2355.69C673.751 2458.97 811.645 2458.76 1101.36 2439.39C1308.55 2425.54 1619.32 2406.79 2068.96 2483.88" stroke="black" stroke-miterlimit="10"/>
<path d="M-531.326 493.205C-255.449 720.845 -161.97 966.493 -123.777 1111.13C-81.9664 1269.5 -27.2868 1355.56 51.0157 1583.31C170.546 1930.99 264.329 2201.6 485.96 2332.75C675.287 2444.78 820.225 2455 1117.95 2446.26C1325.1 2440.16 1635.28 2428.92 2078.15 2502.43" stroke="black" stroke-miterlimit="10"/>
<path d="M-570.815 527.244C-285.975 730.196 -181.254 967.996 -137.664 1103.28C-87.1657 1260.03 -24.8182 1349.56 62.2686 1583.03C191.007 1928.11 273.2 2176.58 484.524 2309.78C676.712 2430.93 828.765 2450.94 1134.55 2453.11C1341.62 2454.58 1651.26 2451.03 2087.38 2520.94" stroke="black" stroke-miterlimit="10"/>
<path d="M-610.309 561.287C-316.477 739.585 -199.979 969.534 -151.555 1095.44C-91.8506 1250.66 -22.5932 1343.56 73.5287 1582.74C211.208 1925.34 281.873 2151.95 483.095 2286.82C677.944 2417.42 837.271 2446.58 1151.15 2459.97C1358.12 2468.79 1667.23 2473.14 2096.6 2539.47" stroke="black" stroke-miterlimit="10"/>
<path d="M-649.799 595.328C-346.975 748.981 -218.155 971.035 -165.442 1087.59C-95.9411 1241.26 -20.5424 1337.69 84.7757 1582.44C231.174 1922.65 290.351 2127.62 481.641 2263.85C678.964 2404.33 845.764 2441.89 1167.75 2466.81C1374.64 2482.83 1683.22 2495.24 2105.8 2558" stroke="black" stroke-miterlimit="10"/>
<path d="M-689.291 629.367C-377.475 758.365 -235.825 972.386 -179.353 1079.71C-99.4038 1231.64 -18.6931 1331.89 96.0216 1582.14C250.95 1920.12 298.532 2103.61 480.192 2240.87C679.666 2391.6 854.282 2436.91 1184.36 2473.63C1391.16 2496.65 1699.18 2517.33 2115.03 2576.47" stroke="black" stroke-miterlimit="10"/>
<path d="M-728.785 663.411C-407.949 767.788 -253.058 973.491 -193.217 1071.89C-102.129 1221.66 -16.9739 1326.26 107.304 1581.88C270.563 1917.75 306.517 2079.82 478.774 2217.94C680.044 2379.3 862.858 2431.67 1200.96 2480.53C1407.74 2510.41 1715.15 2539.48 2124.25 2595.03" stroke="black" stroke-miterlimit="10"/>
<path d="M-768.249 697.485C-438.455 777.177 -289.268 991.878 -207.083 1064.07C-72.6505 1182.16 -15.4131 1320.77 118.59 1581.63C290.095 1915.53 314.199 2056.17 477.336 2194.97C679.953 2367.39 871.531 2426.09 1217.57 2487.38C1424.36 2524 1731.12 2561.59 2133.45 2613.58" stroke="black" stroke-miterlimit="10"/>
<path d="M-807.753 731.492C-468.968 786.54 -301.657 990.227 -220.986 1056.19C-79.5968 1171.8 -14.046 1315.33 129.825 1581.3C309.482 1913.48 321.552 2032.6 475.909 2172C679.393 2355.83 880.284 2420.26 1234.19 2494.22C1441.07 2537.46 1747.12 2583.68 2142.71 2632.06" stroke="black" stroke-miterlimit="10"/>
<path d="M-847.232 765.535C-499.451 795.923 -314.177 987.121 -234.859 1048.34C-86.8045 1162.61 -12.7933 1310.07 141.074 1581.03C328.805 1911.56 328.618 2009.05 474.45 2149.05C678.228 2344.69 889.132 2414.18 1250.77 2501.09C1457.8 2550.85 1763.07 2605.81 2151.89 2650.6" stroke="black" stroke-miterlimit="10"/>
<path d="M-886.707 799.572C-529.942 805.309 -320.51 973.22 -248.729 1040.49C-107.38 1173.02 -11.648 1304.96 152.354 1580.74C348.093 1909.81 335.369 1985.45 473.039 2126.07C676.466 2333.84 898.178 2407.8 1267.42 2507.92C1474.71 2564.12 1779.07 2627.91 2161.15 2669.09" stroke="black" stroke-miterlimit="10"/>
<path d="M-926.18 833.61C-560.431 814.697 -337.734 971.73 -262.614 1032.63C-108.171 1157.85 -10.6343 1299.99 163.619 1580.43C367.317 1908.21 341.748 1961.75 471.607 2103.09C673.955 2323.35 907.303 2401.27 1284 2514.77C1491.65 2577.33 1795.03 2650.01 2170.35 2687.61" stroke="black" stroke-miterlimit="10"/>
<path d="M-965.658 867.653C-590.913 824.092 -355.499 969.614 -276.486 1024.78C-109.277 1141.5 -9.71367 1295.18 174.902 1580.13C386.536 1906.79 347.793 1937.9 470.193 2080.12C670.727 2313.09 916.624 2394.49 1300.63 2521.61C1508.7 2590.5 1811.02 2672.1 2179.59 2706.12" stroke="black" stroke-miterlimit="10"/>
</svg>
