<svg width="2520" height="2254" viewBox="0 0 2020 2254" fill="none" xmlns="http://www.w3.org/2000/svg">
<path d="M-946.992 230.313C-522.879 514.504 -327.707 788.949 -228.793 996.721C-146.343 1169.94 -164.269 1226.56 -64.5389 1366.32C151.888 1669.61 643.035 1972.99 955.607 1849.76C1109.58 1789.05 1095.9 1654.58 1220.32 1441.43C1332.25 1249.7 1552.61 1004.3 2034.04 804.275" stroke="#2A89FB" stroke-miterlimit="10"/>
<path d="M-959.895 280.736C-542.519 539.551 -346.514 801.154 -244.709 998.147C-159.06 1163.94 -163.706 1219.51 -55.491 1359.69C171.519 1653.74 631.904 1941.79 941.246 1831.68C1100.59 1774.98 1103.13 1647.21 1237.84 1437.63C1356.44 1253.11 1578.35 1013.37 2052.19 814.242" stroke="#2A89FB" stroke-miterlimit="10"/>
<path d="M-972.792 331.154C-562.163 564.599 -365.145 813.461 -260.596 999.582C-171.53 1158.14 -163.36 1212.42 -46.414 1353.06C190.478 1637.96 621.481 1911.17 926.929 1813.63C1091.94 1760.93 1110.14 1639.91 1255.4 1433.84C1380.4 1256.52 1604.13 1022.48 2070.39 824.263" stroke="#2A89FB" stroke-miterlimit="10"/>
<path d="M-985.695 381.577C-581.813 589.651 -383.55 825.882 -276.498 1001.06C-183.88 1152.52 -163.275 1205.3 -37.3049 1346.44C208.811 1622.3 611.704 1881.13 912.628 1795.57C1083.6 1746.97 1116.91 1632.65 1272.98 1430.05C1404.04 1259.89 1629.93 1031.6 2088.56 834.252" stroke="#2A89FB" stroke-miterlimit="10"/>
<path d="M-998.592 431.994C-601.411 614.694 -401.663 838.382 -292.374 1002.46C-196.038 1147.07 -163.347 1198.21 -28.2776 1339.8C226.462 1606.76 602.424 1851.69 898.255 1777.5C1075.5 1733.05 1123.34 1625.35 1290.48 1426.23C1427.35 1263.18 1655.66 1040.69 2106.68 844.261" stroke="#2A89FB" stroke-miterlimit="10"/>
<path d="M-1011.49 482.412C-621.09 639.731 -419.469 850.977 -308.262 1003.89C-207.96 1141.81 -163.75 1191.13 -19.1993 1333.16C243.614 1591.42 593.689 1822.85 883.92 1759.44C1067.69 1719.28 1129.49 1618.02 1308.03 1422.44C1450.42 1266.4 1681.43 1049.79 2124.87 854.216" stroke="#2A89FB" stroke-miterlimit="10"/>
<path d="M-1024.39 532.83C-640.729 664.743 -436.888 863.603 -324.153 1005.32C-219.625 1136.73 -164.329 1184.13 -10.1342 1326.53C260.291 1576.28 585.385 1794.61 869.585 1741.37C1060.11 1705.68 1135.46 1610.64 1325.57 1418.64C1473.24 1269.52 1707.23 1058.91 2143.03 864.21" stroke="#2A89FB" stroke-miterlimit="10"/>
<path d="M-1037.26 583.265C-660.351 689.826 -453.848 876.274 -340.009 1006.77C-230.935 1131.81 -165.048 1177.23 -1.03521 1319.91C276.57 1561.36 577.5 1766.95 855.284 1723.32C1052.8 1692.29 1141.13 1603.17 1343.15 1414.85C1495.79 1272.53 1732.95 1068.02 2161.2 874.199" stroke="#2A89FB" stroke-miterlimit="10"/>
<path d="M-1050.19 633.675C-680.03 714.865 -470.392 888.895 -355.932 1008.2C-241.922 1127 -166.095 1170.45 8.00989 1313.27C292.457 1546.67 569.874 1739.85 840.916 1705.25C1045.63 1679.13 1146.48 1595.53 1360.67 1411.04C1518.13 1275.41 1758.73 1077.1 2179.42 884.2" stroke="#2A89FB" stroke-miterlimit="10"/>
<path d="M-1063.09 684.071C-699.664 739.892 -486.396 901.416 -371.817 1009.61C-252.543 1122.24 -167.232 1163.73 17.0804 1306.62C308.021 1532.17 562.487 1713.24 826.586 1687.16C1038.61 1666.22 1151.62 1587.72 1378.22 1407.22C1540.28 1278.14 1784.51 1086.19 2197.55 894.153" stroke="#2A89FB" stroke-miterlimit="10"/>
<path d="M-1076 734.52C-719.273 764.973 -501.881 913.844 -387.702 1011.07C-262.694 1117.53 -168.538 1157.23 26.1535 1300.01C323.356 1517.97 555.294 1687.19 812.246 1669.12C1031.74 1653.69 1156.51 1579.76 1395.76 1403.45C1562.22 1280.76 1810.27 1095.32 2215.72 904.178" stroke="#2A89FB" stroke-miterlimit="10"/>
<path d="M-1088.9 784.938C-738.962 790 -516.8bg-no-repeat bg-contain43 926.033 -403.593 1012.5C-272.383 1112.7 -169.954 1150.89 35.2183 1293.38C338.491 1503.98 548.239 1661.58 797.911 1651.05C1024.98 1641.49 1161.19 1571.57 1413.3 1399.65C1584.03 1283.22 1836.03 1104.41 2233.88 914.156" stroke="#2A89FB" stroke-miterlimit="10"/>
<path d="M-1101.8 835.367C-758.605 815.049 -531.32 937.937 -419.48 1013.95C-281.589 1107.66 -171.559 1144.7 44.2976 1286.75C353.478 1490.22 541.251 1636.41 783.589 1632.99C1018.25 1629.68 1165.67 1563.15 1430.85 1395.85C1605.71 1285.53 1861.8 1113.52 2252.06 924.147" stroke="#2A89FB" stroke-miterlimit="10"/>
<path d="M-1114.7 885.787C-778.246 840.099 -545.374 949.495 -435.371 1015.38C-290.33 1102.25 -173.243 1138.7 53.3473 1280.11C368.319 1476.67 534.268 1611.59 769.234 1614.93C1011.58 1618.34 1169.95 1554.47 1448.38 1392.05C1627.29 1287.69 1887.57 1122.61 2270.22 934.154" stroke="#2A89FB" stroke-miterlimit="10"/>
<path d="M-1127.6 936.208C-797.891 865.141 -559.095 960.644 -451.293 1016.81C-298.684 1096.3 -175.045 1132.88 62.4057 1273.48C383.091 1463.35 527.224 1587.19 754.884 1596.86C1004.87 1607.47 1174.08 1545.53 1465.92 1388.22C1648.76 1289.67 1913.31 1131.7 2288.37 944.092" stroke="#2A89FB" stroke-miterlimit="10"/>
<path d="M-1140.5 986.636C-817.497 890.2 -572.601 971.342 -467.149 1018.25C-306.635 1089.65 -176.861 1127.28 71.5082 1266.85C397.825 1450.27 520.151 1563.1 740.582 1578.81C998.131 1597.14 1178.11 1536.35 1483.49 1384.46C1670.25 1291.56 1939.11 1140.83 2306.56 954.115" stroke="#2A89FB" stroke-miterlimit="10"/>
<path d="M-1153.36 1037.07C-837.144 915.249 -591.776 1007.03 -482.998 1019.7C-305.074 1040.42 -178.725 1121.88 80.6251 1260.24C412.577 1437.35 512.908 1539.29 726.247 1560.74C991.232 1587.4 1182.03 1526.84 1501.04 1380.66C1691.66 1293.3 1964.87 1149.94 2324.73 964.132" stroke="#2A89FB" stroke-miterlimit="10"/>
<path d="M-1166.3 1087.47C-856.819 940.284 -602.888 1012.71 -498.923 1021.12C-316.704 1035.86 -180.717 1116.63 89.6559 1253.59C427.308 1424.65 505.438 1515.73 711.919 1542.67C984.154 1578.22 1185.87 1517.07 1518.59 1376.84C1713.08 1294.88 1990.65 1159.02 2342.91 974.078" stroke="#2A89FB" stroke-miterlimit="10"/>
<path d="M-1179.19 1137.89C-876.459 965.318 -614.944 1017.27 -514.808 1022.55C-327.888 1032.4 -182.708 1111.6 98.727 1246.98C442.059 1412.1 497.742 1492.36 697.577 1524.63C976.813 1569.72 1189.65 1507.06 1536.12 1373.08C1734.48 1296.39 2016.41 1168.16 2361.07 984.116" stroke="#2A89FB" stroke-miterlimit="10"/>
<path d="M-1192.09 1188.31C-896.104 990.359 -628.106 1009.45 -530.686 1023.98C-338.81 1052.65 -184.697 1106.75 107.808 1240.33C456.882 1399.71 489.762 1469.12 683.257 1506.54C969.155 1561.81 1193.42 1496.68 1553.7 1369.25C1755.95 1297.7 2042.2 1177.25 2379.25 994.07" stroke="#2A89FB" stroke-miterlimit="10"/>
<path d="M-1204.98 1238.72C-915.745 1015.4 -643.095 1018.01 -546.581 1025.41C-348.15 1040.63 -186.716 1102.09 116.873 1233.69C471.735 1387.48 481.421 1446.02 668.919 1488.47C961.084 1554.61 1197.16 1486.12 1571.22 1365.46C1777.42 1298.94 2067.95 1186.36 2397.41 1004.08" stroke="#2A89FB" stroke-miterlimit="10"/>
<path d="M-1217.88 1289.14C-935.376 1040.44 -658.885 1026.36 -562.462 1026.84C-358.428 1027.82 -188.721 1097.62 125.959 1227.04C486.687 1375.39 472.72 1422.98 654.602 1470.39C952.56 1548.02 1200.93 1475.27 1588.78 1361.65C1798.95 1300.09 2093.72 1195.45 2415.59 1014.05" stroke="#2A89FB" stroke-miterlimit="10"/>
</svg>
