<svg xmlns="http://www.w3.org/2000/svg" width="60" height="60" viewBox="0 0 60 60" fill="none">
  <path d="M18 28C16.22 28 14.4799 27.4722 12.9999 26.4832C11.5198 25.4943 10.3663 24.0887 9.68509 22.4442C9.0039 20.7996 8.82567 18.99 9.17294 17.2442C9.5202 15.4984 10.3774 13.8947 11.636 12.636C12.8947 11.3774 14.4984 10.5202 16.2442 10.1729C17.99 9.82567 19.7996 10.0039 21.4442 10.6851C23.0887 11.3663 24.4943 12.5198 25.4832 13.9999C26.4722 15.4799 27 17.22 27 19C26.9973 21.3861 26.0482 23.6737 24.361 25.361C22.6737 27.0482 20.3861 27.9973 18 28ZM18 10.6389C16.3463 10.6389 14.7298 11.1293 13.3548 12.048C11.9799 12.9667 10.9082 14.2726 10.2754 15.8004C9.64253 17.3281 9.47696 19.0093 9.79957 20.6312C10.1222 22.2531 10.9185 23.7429 12.0878 24.9122C13.2571 26.0815 14.7469 26.8778 16.3688 27.2004C17.9907 27.5231 19.6719 27.3575 21.1997 26.7246C22.7274 26.0918 24.0333 25.0201 24.952 23.6452C25.8707 22.2702 26.3611 20.6537 26.3611 19C26.3588 16.7832 25.4772 14.6579 23.9097 13.0903C22.3421 11.5228 20.2168 10.6412 18 10.6389Z" fill="#0E72E8"/>
  <path d="M18 28C15.2429 28 13 23.9624 13 19C13 14.0376 15.2429 10 18 10C20.7571 10 23 14.0376 23 19C23 23.9624 20.7568 28 18 28ZM18 10.6389C15.5825 10.6389 13.6158 14.3896 13.6158 19C13.6158 23.6104 15.5825 27.3611 18 27.3611C20.4175 27.3611 22.3842 23.6104 22.3842 19C22.3842 14.3896 20.4175 10.6389 18 10.6389Z" fill="#0E72E8"/>
  <path d="M18.0013 15C15.4523 15.0028 12.996 14.4245 11.1263 13.3814C11.0894 13.3625 11.0593 13.3392 11.0377 13.3131C11.0161 13.287 11.0035 13.2585 11.0006 13.2293C10.9978 13.2002 11.0047 13.171 11.0211 13.1435C11.0375 13.116 11.0629 13.0908 11.0959 13.0694C11.1288 13.048 11.1686 13.0308 11.2129 13.0189C11.2571 13.007 11.3049 13.0006 11.3534 13C11.4019 12.9995 11.4501 13.0049 11.495 13.0159C11.5399 13.0268 11.5807 13.0432 11.6149 13.0639C13.352 14.0325 15.6336 14.5694 18.0013 14.5668C20.3689 14.5694 22.6504 14.0324 24.3874 13.0639C24.4217 13.0435 24.4624 13.0274 24.5072 13.0167C24.552 13.006 24.5999 13.0008 24.6481 13.0014C24.6963 13.0021 24.7438 13.0085 24.7878 13.0204C24.8317 13.0323 24.8713 13.0495 24.9041 13.0707C24.9368 13.092 24.9622 13.117 24.9786 13.1443C24.9949 13.1716 25.0021 13.2006 24.9995 13.2296C24.9969 13.2586 24.9847 13.287 24.9635 13.313C24.9424 13.3391 24.9127 13.3624 24.8764 13.3814C23.0067 14.4245 20.5504 15.0028 18.0013 15Z" fill="#0E72E8"/>
  <path d="M24.641 24.9956C24.5502 24.9956 24.4627 24.9749 24.3962 24.9377C22.6555 23.9704 20.3734 23.4332 18.0044 23.4332C15.6354 23.4332 13.3534 23.9704 11.6127 24.9377C11.5783 24.9581 11.5375 24.9741 11.4927 24.9848C11.4479 24.9955 11.3999 25.0006 11.3517 24.9999C11.3035 24.9993 11.256 24.9928 11.2121 24.9808C11.1681 24.9689 11.1286 24.9518 11.0958 24.9305C11.0631 24.9092 11.0378 24.8841 11.0214 24.8568C11.005 24.8295 10.9979 24.8005 11.0005 24.7716C11.0031 24.7426 11.0154 24.7142 11.0365 24.6881C11.0577 24.662 11.0873 24.6388 11.1237 24.6197C12.9973 23.5783 15.4539 23 18.0041 23C20.5542 23 23.0108 23.5783 24.8845 24.6197C24.9376 24.6493 24.9747 24.6879 24.9909 24.7304C25.0071 24.7728 25.0016 24.8173 24.9752 24.8579C24.9488 24.8985 24.9027 24.9333 24.8429 24.9579C24.7831 24.9824 24.7124 24.9956 24.64 24.9956H24.641Z" fill="#0E72E8"/>
  <path d="M26.6805 19H9.31945C9.23473 19 9.15348 18.9473 9.09357 18.8536C9.03366 18.7598 9 18.6326 9 18.5C9 18.3674 9.03366 18.2402 9.09357 18.1464C9.15348 18.0527 9.23473 18 9.31945 18H26.6805C26.7653 18 26.8465 18.0527 26.9064 18.1464C26.9663 18.2402 27 18.3674 27 18.5C27 18.6326 26.9663 18.7598 26.9064 18.8536C26.8465 18.9473 26.7653 19 26.6805 19Z" fill="#0E72E8"/>
  <path d="M48.3619 46H25.6384C25.204 45.9996 24.7875 45.834 24.4803 45.5394C24.1732 45.2449 24.0004 44.8455 24 44.429V28.571C24.0004 28.1545 24.1732 27.7551 24.4803 27.4606C24.7875 27.166 25.204 27.0004 25.6384 27H48.3619C48.7963 27.0005 49.2127 27.1662 49.5198 27.4607C49.8269 27.7552 49.9996 28.1545 50 28.571V44.429C49.9996 44.8455 49.8269 45.2448 49.5198 45.5393C49.2127 45.8338 48.7963 45.9995 48.3619 46ZM25.6384 27.6002C25.37 27.6004 25.1126 27.7028 24.9228 27.8848C24.7329 28.0668 24.6262 28.3136 24.6259 28.571V44.429C24.6262 44.6864 24.7329 44.9332 24.9228 45.1152C25.1126 45.2972 25.37 45.3996 25.6384 45.3998H48.3619C48.6303 45.3995 48.8876 45.2971 49.0774 45.1151C49.2671 44.9331 49.3738 44.6863 49.3741 44.429V28.571C49.3738 28.3137 49.2671 28.0669 49.0774 27.8849C48.8876 27.7029 48.6303 27.6005 48.3619 27.6002H25.6384Z" fill="#0E72E8"/>
  <path d="M40.6485 48H33.3515C33.2583 48 33.1689 47.9806 33.103 47.9459C33.037 47.9113 33 47.8644 33 47.8154V46.1846C33 46.1356 33.037 46.0887 33.103 46.0541C33.1689 46.0194 33.2583 46 33.3515 46H40.6485C40.7417 46 40.8311 46.0194 40.897 46.0541C40.963 46.0887 41 46.1356 41 46.1846V47.8154C41 47.8644 40.963 47.9113 40.897 47.9459C40.8311 47.9806 40.7417 48 40.6485 48ZM33.703 47.6308H40.297V46.3692H33.703V47.6308Z" fill="#0E72E8"/>
  <path d="M41.7 50H32.3012C32.2213 50 32.1447 49.9684 32.0882 49.9121C32.0317 49.8558 32 49.7794 32 49.6998C32 48.6991 32.5968 48 33.4514 48H40.5486C41.4032 48 42 48.6991 42 49.6998C42 49.7792 41.9684 49.8554 41.9122 49.9117C41.856 49.9679 41.7796 49.9997 41.7 50ZM32.6284 49.3997H41.374C41.3627 49.1876 41.2716 48.9875 41.1189 48.8393C40.9661 48.6912 40.7629 48.6058 40.5498 48.6003H33.4526C33.2395 48.6058 33.0363 48.6912 32.8835 48.8393C32.7308 48.9875 32.6397 49.1876 32.6284 49.3997Z" fill="#0E72E8"/>
  <path d="M37.0004 44C36.8026 44.0001 36.6092 43.9415 36.4447 43.8317C36.2802 43.7218 36.152 43.5657 36.0762 43.3829C36.0005 43.2002 35.9806 42.9991 36.0192 42.8051C36.0577 42.6111 36.1529 42.4329 36.2928 42.293C36.4326 42.1531 36.6108 42.0579 36.8048 42.0192C36.9988 41.9806 37.1998 42.0004 37.3826 42.0761C37.5653 42.1518 37.7215 42.2799 37.8314 42.4444C37.9413 42.6088 38 42.8022 38 43C37.9997 43.2651 37.8943 43.5192 37.7069 43.7066C37.5195 43.8941 37.2654 43.9996 37.0004 44ZM37.0004 42.7525C36.9513 42.7525 36.9034 42.7669 36.8625 42.7942C36.8217 42.8214 36.7899 42.8601 36.7711 42.9054C36.7523 42.9507 36.7474 43.0005 36.7569 43.0486C36.7665 43.0967 36.7901 43.1409 36.8248 43.1756C36.8594 43.2103 36.9036 43.2339 36.9517 43.2435C36.9999 43.253 37.0497 43.2481 37.095 43.2293C37.1403 43.2105 37.179 43.1786 37.2062 43.1378C37.2334 43.097 37.2479 43.049 37.2478 43C37.2477 42.9344 37.2216 42.8715 37.1752 42.8251C37.1289 42.7787 37.066 42.7526 37.0004 42.7525Z" fill="#0E72E8"/>
  <path d="M26.5 42C26.3674 42 26.2402 41.9593 26.1464 41.887C26.0527 41.8146 26 41.7164 26 41.614V39.386C26 39.2836 26.0527 39.1854 26.1464 39.113C26.2402 39.0407 26.3674 39 26.5 39C26.6326 39 26.7598 39.0407 26.8536 39.113C26.9473 39.1854 27 39.2836 27 39.386V41.614C27 41.7164 26.9473 41.8146 26.8536 41.887C26.7598 41.9593 26.6326 42 26.5 42Z" fill="#0E72E8"/>
  <path d="M26.5 38C26.3674 38 26.2402 37.9642 26.1464 37.9004C26.0527 37.8366 26 37.7501 26 37.6599V28.3401C26 28.2499 26.0527 28.1634 26.1464 28.0996C26.2402 28.0358 26.3674 28 26.5 28C26.6326 28 26.7598 28.0358 26.8536 28.0996C26.9473 28.1634 27 28.2499 27 28.3401V37.6599C27 37.7501 26.9473 37.8366 26.8536 37.9004C26.7598 37.9642 26.6326 38 26.5 38Z" fill="#0E72E8"/>
  <path d="M21.7301 42.8382H15.2699C15.1983 42.8382 15.1297 42.8026 15.0791 42.7392C15.0284 42.6757 15 42.5897 15 42.5V32.3382C15 32.2485 15.0284 32.1625 15.0791 32.0991C15.1297 32.0356 15.1983 32 15.2699 32C15.3415 32 15.4102 32.0356 15.4608 32.0991C15.5114 32.1625 15.5398 32.2485 15.5398 32.3382V42.3236H21.7301C21.8017 42.3236 21.8703 42.3592 21.9209 42.4226C21.9716 42.4861 22 42.4103 22 42.5C22 42.5897 21.9716 42.6757 21.9209 42.7392C21.8703 42.8026 21.8017 42.8382 21.7301 42.8382Z" fill="#0E72E8"/>
  <path d="M20 41L22 42.5L20.0001 44" stroke="#0E72E8" stroke-width="0.5" stroke-linecap="round" stroke-linejoin="round"/>
  <path d="M42.6643 25C42.5757 25 42.4907 24.9689 42.428 24.9136C42.3654 24.8583 42.3302 24.7833 42.3302 24.7051V16.5898H33.3341C33.2455 16.5898 33.1605 16.5587 33.0978 16.5034C33.0352 16.4481 33 16.3731 33 16.2949C33 16.2167 33.0352 16.1417 33.0978 16.0864C33.1605 16.0311 33.2455 16 33.3341 16H42.6659C42.7545 16 42.8395 16.0311 42.9022 16.0864C42.9648 16.1417 43 16.2167 43 16.2949V24.7051C43 24.744 42.9913 24.7824 42.9744 24.8183C42.9575 24.8542 42.9328 24.8867 42.9016 24.9141C42.8704 24.9416 42.8333 24.9632 42.7926 24.978C42.7519 24.9927 42.7083 25.0002 42.6643 25Z" fill="#0E72E8"/>
  <path d="M34.5416 18C34.4216 18.0001 34.3064 17.972 34.2215 17.922L32.1326 16.6904C32.0477 16.6403 32 16.5724 32 16.5016C32 16.4308 32.0477 16.3629 32.1326 16.3129L34.2215 15.0815C34.2632 15.056 34.3132 15.0357 34.3684 15.0217C34.4237 15.0077 34.4831 15.0003 34.5432 15C34.6034 14.9997 34.663 15.0065 34.7186 15.0199C34.7743 15.0333 34.8249 15.0531 34.8674 15.0782C34.9099 15.1033 34.9435 15.1331 34.9663 15.1659C34.989 15.1987 35.0005 15.2339 35 15.2693C34.9995 15.3048 34.987 15.3398 34.9632 15.3724C34.9395 15.4049 34.905 15.4344 34.8618 15.459L33.093 16.5003L34.8618 17.5429C34.9251 17.5802 34.9682 17.6278 34.9856 17.6796C35.0031 17.7314 34.9941 17.7851 34.9599 17.8338C34.9256 17.8826 34.8676 17.9243 34.7931 17.9537C34.7187 17.983 34.6312 17.9987 34.5416 17.9987V18Z" fill="#0E72E8"/>
  <path d="M18 11V27" stroke="#0E72E8" stroke-linecap="round"/>
</svg>