<svg xmlns="http://www.w3.org/2000/svg" width="60" height="60" viewBox="0 0 60 60" fill="none">
  <path d="M39.0876 30.6633C38.7767 30.6633 38.5243 30.9613 38.5243 31.33V40.6667H21.6229V15.3333H38.5243V31.33C38.5243 31.6987 38.7767 31.9967 39.0876 31.9967C39.3986 31.9967 39.651 31.6987 39.651 31.33V12.9367C39.651 11.318 38.5378 10 37.1688 10H22.9778C21.6093 10 20.4961 11.318 20.4961 12.9367V47.0627C20.4961 48.682 21.6093 50 22.9778 50H37.1688C38.5372 50 39.6505 48.682 39.6505 47.0633L39.651 31.33C39.6516 30.9613 39.3986 30.6633 39.0876 30.6633ZM22.9778 11.3333H37.1688C37.9158 11.3333 38.5237 12.0527 38.5237 12.9367V14H21.6223V12.9367C21.6229 12.0527 22.2307 11.3333 22.9778 11.3333ZM37.1688 48.6667H22.9778C22.2307 48.6667 21.6229 47.9473 21.6229 47.0633V42H38.5243V47.0633C38.5243 47.9473 37.9164 48.6667 37.1688 48.6667Z" fill="#00CB71"/>
  <path d="M30.0098 43C28.631 43 27.5098 44.0091 27.5098 45.25C27.5098 46.4909 28.631 47.5 30.0098 47.5C31.3885 47.5 32.5098 46.4909 32.5098 45.25C32.5098 44.0091 31.3879 43 30.0098 43ZM30.0098 46.375C29.3204 46.375 28.7598 45.8704 28.7598 45.25C28.7598 44.6296 29.3204 44.125 30.0098 44.125C30.6991 44.125 31.2598 44.6296 31.2598 45.25C31.2598 45.8704 30.6991 46.375 30.0098 46.375Z" fill="#00CB71"/>
  <path d="M27.8212 13.3333H30.0747C30.3857 13.3333 30.6381 13.0353 30.6381 12.6667C30.6381 12.298 30.3857 12 30.0747 12H27.8212C27.5102 12 27.2578 12.298 27.2578 12.6667C27.2578 13.0353 27.5096 13.3333 27.8212 13.3333Z" fill="#00CB71"/>
  <path d="M31.7646 13.3333H32.3279C32.6389 13.3333 32.8913 13.0353 32.8913 12.6667C32.8913 12.298 32.6389 12 32.3279 12H31.7646C31.4536 12 31.2012 12.298 31.2012 12.6667C31.2012 13.0353 31.453 13.3333 31.7646 13.3333Z" fill="#00CB71"/>
  <path d="M12.5286 17.1492C12.7664 16.886 12.7664 16.4606 12.5286 16.1974C12.2907 15.9342 11.9063 15.9342 11.6684 16.1974C4.79022 23.8082 4.79022 36.192 11.6684 43.8028C11.7876 43.934 11.9434 44 12.0985 44C12.2536 44 12.4099 43.934 12.5286 43.8028C12.7664 43.5396 12.7664 43.1142 12.5286 42.851C6.12486 35.7646 6.12486 24.2349 12.5286 17.1492Z" fill="#00CB71"/>
  <path d="M47.9024 16.1974C47.6429 15.9342 47.2236 15.9342 46.9641 16.1974C46.7047 16.4606 46.7047 16.886 46.9641 17.1492C50.343 20.5759 52.2036 25.1396 52.2036 30.0001C52.2036 34.8606 50.343 39.4242 46.9641 42.851C46.7047 43.1142 46.7047 43.5396 46.9641 43.8028C47.0935 43.934 47.2634 44 47.4333 44C47.6031 44 47.773 43.934 47.9024 43.8028C51.5321 40.1216 53.5301 35.22 53.5301 30.0001C53.5301 24.7802 51.5321 19.8786 47.9024 16.1974Z" fill="#00CB71"/>
  <path d="M15.891 19.8009C16.1522 19.5411 16.1522 19.1212 15.891 18.8615C15.6298 18.6017 15.2076 18.6017 14.9464 18.8615C8.95536 24.8197 8.95536 34.5144 14.9464 40.472C15.0767 40.6015 15.2477 40.6666 15.4187 40.6666C15.5897 40.6666 15.7608 40.6015 15.891 40.472C16.1522 40.2122 16.1522 39.7923 15.891 39.5325C10.4211 34.0925 10.4211 25.2416 15.891 19.8009Z" fill="#00CB71"/>
  <path d="M45.0936 18.8615C44.8324 18.6017 44.4102 18.6017 44.149 18.8615C43.8878 19.1212 43.8878 19.5411 44.149 19.8009C49.619 25.2409 49.619 34.0925 44.149 39.5325C43.8878 39.7923 43.8878 40.2122 44.149 40.472C44.2793 40.6015 44.4503 40.6666 44.6213 40.6666C44.7924 40.6666 44.9634 40.6015 45.0936 40.472C51.0847 34.5144 51.0847 24.8197 45.0936 18.8615Z" fill="#00CB71"/>
  <path d="M19.8087 21.5318C19.5119 21.2672 19.0322 21.2672 18.7353 21.5318C16.3016 23.7014 14.9609 26.5904 14.9609 29.6668C14.9609 32.7432 16.3016 35.6315 18.7353 37.8018C18.8834 37.9337 19.0777 38 19.272 38C19.4664 38 19.6607 37.9337 19.8087 37.8018C20.1056 37.5372 20.1056 37.1095 19.8087 36.8449C15.3686 32.8867 15.3686 26.4476 19.8087 22.4894C20.1048 22.2248 20.1048 21.7964 19.8087 21.5318Z" fill="#00CB71"/>
  <path d="M41.3058 21.5318C41.009 21.2672 40.5292 21.2672 40.2324 21.5318C39.9356 21.7964 39.9356 22.2242 40.2324 22.4888C44.6725 26.4471 44.6725 32.8865 40.2324 36.8448C39.9356 37.1094 39.9356 37.5371 40.2324 37.8018C40.3804 37.9337 40.5747 38 40.7691 38C40.9634 38 41.1578 37.9337 41.3058 37.8018C43.7396 35.6321 45.0802 32.743 45.0802 29.6665C45.0802 26.5899 43.7396 23.7015 41.3058 21.5318Z" fill="#00CB71"/>
  <path d="M29.9121 29.1367C29.9121 29.5612 29.8613 29.9505 29.7598 30.3047C29.6608 30.6562 29.5072 30.9609 29.2988 31.2188C29.0905 31.4766 28.8262 31.6784 28.5059 31.8242L29.8809 33.3594H28.3301L27.2832 32.0781C27.265 32.0781 27.2493 32.0781 27.2363 32.0781C27.2233 32.0781 27.209 32.0781 27.1934 32.0781C26.7272 32.0781 26.3236 32.0091 25.9824 31.8711C25.6413 31.7305 25.3587 31.5299 25.1348 31.2695C24.9134 31.0091 24.748 30.6979 24.6387 30.3359C24.5293 29.974 24.4746 29.5716 24.4746 29.1289C24.4746 28.5378 24.571 28.0234 24.7637 27.5859C24.959 27.1458 25.2585 26.8047 25.6621 26.5625C26.0658 26.3203 26.5788 26.1992 27.2012 26.1992C27.821 26.1992 28.3301 26.3203 28.7285 26.5625C29.1296 26.8047 29.4264 27.1458 29.6191 27.5859C29.8145 28.026 29.9121 28.543 29.9121 29.1367ZM25.7441 29.1367C25.7441 29.5352 25.7936 29.8789 25.8926 30.168C25.9941 30.4544 26.1517 30.6758 26.3652 30.832C26.5788 30.9857 26.8548 31.0625 27.1934 31.0625C27.5371 31.0625 27.8158 30.9857 28.0293 30.832C28.2428 30.6758 28.3978 30.4544 28.4941 30.168C28.5931 29.8789 28.6426 29.5352 28.6426 29.1367C28.6426 28.5378 28.5306 28.0664 28.3066 27.7227C28.0827 27.3789 27.7142 27.207 27.2012 27.207C26.86 27.207 26.5814 27.2852 26.3652 27.4414C26.1517 27.5951 25.9941 27.8164 25.8926 28.1055C25.7936 28.3919 25.7441 28.7357 25.7441 29.1367Z" fill="#00CB71"/>
  <path d="M32.7598 26.2891C33.278 26.2891 33.7051 26.3516 34.041 26.4766C34.3796 26.6016 34.6309 26.7904 34.7949 27.043C34.959 27.2956 35.041 27.6146 35.041 28C35.041 28.2604 34.9915 28.4883 34.8926 28.6836C34.7936 28.8789 34.6634 29.0443 34.502 29.1797C34.3405 29.3151 34.166 29.4258 33.9785 29.5117L35.6582 32H34.3145L32.9512 29.8086H32.3066V32H31.0957V26.2891H32.7598ZM32.6738 27.2812H32.3066V28.8242H32.6973C33.0983 28.8242 33.3848 28.7578 33.5566 28.625C33.7311 28.4896 33.8184 28.2917 33.8184 28.0312C33.8184 27.7604 33.7246 27.5677 33.5371 27.4531C33.3522 27.3385 33.0645 27.2812 32.6738 27.2812Z" fill="#00CB71"/>
</svg>