<svg xmlns="http://www.w3.org/2000/svg" width="28" height="28" viewBox="0 0 28 28" fill="none">
  <path d="M21.7609 5.52H18.8696V4.38C18.8696 4.27922 18.826 4.18256 18.7486 4.1113C18.6711 4.04004 18.5661 4 18.4565 4C18.347 4 18.2419 4.04004 18.1645 4.1113C18.087 4.18256 18.0435 4.27922 18.0435 4.38V5.52H8.95652V4.38C8.95652 4.27922 8.913 4.18256 8.83554 4.1113C8.75808 4.04004 8.65302 4 8.54348 4C8.43393 4 8.32887 4.04004 8.25141 4.1113C8.17395 4.18256 8.13043 4.27922 8.13043 4.38V5.52H5.23913C4.91049 5.52 4.59531 5.64011 4.36293 5.8539C4.13055 6.06769 4 6.35765 4 6.66V21.86C4 22.1623 4.13055 22.4523 4.36293 22.6661C4.59531 22.8799 4.91049 23 5.23913 23H21.7609C22.0895 23 22.4047 22.8799 22.6371 22.6661C22.8694 22.4523 23 22.1623 23 21.86V6.66C23 6.35765 22.8694 6.06769 22.6371 5.8539C22.4047 5.64011 22.0895 5.52 21.7609 5.52ZM5.23913 6.28H8.13043V7.42C8.13043 7.52078 8.17395 7.61744 8.25141 7.6887C8.32887 7.75996 8.43393 7.8 8.54348 7.8C8.65302 7.8 8.75808 7.75996 8.83554 7.6887C8.913 7.61744 8.95652 7.52078 8.95652 7.42V6.28H18.0435V7.42C18.0435 7.52078 18.087 7.61744 18.1645 7.6887C18.2419 7.75996 18.347 7.8 18.4565 7.8C18.5661 7.8 18.6711 7.75996 18.7486 7.6887C18.826 7.61744 18.8696 7.52078 18.8696 7.42V6.28H21.7609C21.8704 6.28 21.9755 6.32004 22.0529 6.3913C22.1304 6.46256 22.1739 6.55922 22.1739 6.66V10.08H4.82609V6.66C4.82609 6.55922 4.8696 6.46256 4.94706 6.3913C5.02453 6.32004 5.12958 6.28 5.23913 6.28ZM21.7609 22.24H5.23913C5.12958 22.24 5.02453 22.2 4.94706 22.1287C4.8696 22.0574 4.82609 21.9608 4.82609 21.86V10.84H22.1739V21.86C22.1739 21.9608 22.1304 22.0574 22.0529 22.1287C21.9755 22.2 21.8704 22.24 21.7609 22.24Z" fill="#7E7E7E"/>
</svg>