<svg width="40" height="40" viewBox="0 0 40 40" fill="none" xmlns="http://www.w3.org/2000/svg">
<g id="Group 468">
<path id="Ellipse 200" d="M35.3843 8.73586C35.8 8.43152 35.8919 7.84627 35.5685 7.44523C32.7796 3.98665 28.9112 1.54766 24.5684 0.528751C19.9223 -0.561333 15.0396 0.0458351 10.802 2.2406C6.56434 4.43537 3.25118 8.07307 1.46082 12.4968C-0.329554 16.9204 -0.479118 21.8385 1.03914 26.3628C2.55739 30.8871 5.64338 34.7194 9.7398 37.1677C13.8362 39.6159 18.6731 40.5186 23.3768 39.7129C28.0805 38.9071 32.3411 36.446 35.3892 32.7739C38.2382 29.3416 39.8523 25.0629 39.9903 20.622C40.0063 20.1071 39.58 19.6958 39.0649 19.7038C38.5498 19.7118 38.1412 20.1362 38.1227 20.651C37.9793 24.6465 36.5183 28.4927 33.9536 31.5824C31.1899 34.9119 27.3268 37.1434 23.0618 37.874C18.7968 38.6046 14.4112 37.7861 10.6969 35.5662C6.98258 33.3464 4.18445 29.8716 2.80782 25.7693C1.43119 21.667 1.56681 17.2077 3.19017 13.1967C4.81353 9.18563 7.81764 5.88726 11.66 3.89722C15.5023 1.90718 19.9296 1.35665 24.1423 2.34505C28.0515 3.26226 31.5369 5.44859 34.0615 8.54872C34.3868 8.94819 34.9686 9.04021 35.3843 8.73586Z" fill="#0E72E8"/>
<path id="Vector 96" d="M9.5 19.5L19 28.5L39 11.5" stroke="#0E72E8" strokeWidth="2" stroke-linecap="round"/>
</g>
</svg>
