<svg xmlns="http://www.w3.org/2000/svg" width="60" height="60" viewBox="0 0 60 60" fill="none">
  <path d="M47.5954 43H35.6916C35.5896 43 35.4917 42.9569 35.4196 42.8803C35.3475 42.8037 35.307 42.6997 35.307 42.5914C35.307 42.483 35.3475 42.3791 35.4196 42.3024C35.4917 42.2258 35.5896 42.1827 35.6916 42.1827H47.5954C49.1765 42.1839 50.7059 41.5849 51.908 40.4937C53.1101 39.4025 53.9057 37.8909 54.1513 36.2315C54.397 34.5721 54.0766 32.874 53.2479 31.4434C52.4191 30.0128 51.1366 28.9439 49.6316 28.4293C49.5407 28.3983 49.464 28.3326 49.4162 28.2448C49.3684 28.1571 49.3531 28.0536 49.3731 27.9545C49.4756 27.4604 49.5282 26.9562 49.53 26.4503C49.5304 25.1904 49.2088 23.9541 48.5994 22.8733C47.99 21.7926 47.1158 20.9079 46.0701 20.3138C45.0245 19.7197 43.8465 19.4385 42.6622 19.5002C41.4778 19.5619 40.3314 19.9641 39.3454 20.664C39.2875 20.7054 39.2202 20.7292 39.1505 20.733C39.0808 20.7368 39.0115 20.7204 38.95 20.6856C38.8884 20.6507 38.8369 20.5988 38.801 20.5352C38.7651 20.4717 38.7462 20.399 38.7462 20.3249L38.75 20.1165C38.7505 17.7586 37.9076 15.4887 36.3919 13.7664C34.8763 12.0442 32.8012 10.9982 30.5869 10.8405C28.3727 10.6827 26.1847 11.4249 24.4662 12.9168C22.7477 14.4086 21.627 16.5386 21.3312 18.8754C21.3226 18.9435 21.2979 19.0082 21.2596 19.0634C21.2212 19.1187 21.1704 19.1628 21.1117 19.1917C21.0531 19.2206 20.9885 19.2333 20.924 19.2286C20.8595 19.224 20.7972 19.2022 20.7427 19.1652C19.5662 18.3656 18.1799 17.9865 16.7863 18.083C15.3926 18.1795 14.0645 18.7467 12.9956 19.7017C11.9267 20.6567 11.173 21.9497 10.8444 23.3919C10.5159 24.8341 10.6297 26.3501 11.1693 27.7187C11.1909 27.7736 11.2009 27.8329 11.1986 27.8924C11.1964 27.9519 11.1819 28.0102 11.1563 28.0631C11.1307 28.116 11.0944 28.1624 11.0502 28.1989C11.0059 28.2354 10.9547 28.2612 10.9 28.2744C9.31327 28.6646 7.91717 29.6617 6.97795 31.0754C6.03874 32.4891 5.62211 34.2207 5.80753 35.9399C5.99294 37.659 6.76742 39.2456 7.98328 40.397C9.19914 41.5483 10.7713 42.184 12.4 42.1827H20.88C20.982 42.1827 21.0799 42.2258 21.152 42.3024C21.2241 42.3791 21.2647 42.483 21.2647 42.5914C21.2647 42.6997 21.2241 42.8037 21.152 42.8803C21.0799 42.9569 20.982 43 20.88 43H12.4031C10.6238 43.0006 8.90389 42.3201 7.55835 41.0832C6.21281 39.8463 5.33175 38.1357 5.07654 36.2648C4.82133 34.394 5.20907 32.4881 6.16873 30.8962C7.12839 29.3043 8.59572 28.133 10.302 27.5969C9.81152 26.1184 9.75338 24.5169 10.1352 23.0026C10.517 21.4884 11.3209 20.1322 12.4413 19.1121C13.5617 18.0921 14.9462 17.4559 16.4132 17.287C17.8801 17.1182 19.3608 17.4246 20.6608 18.166C21.1081 15.7433 22.3741 13.5781 24.2203 12.0786C26.0664 10.5792 28.3651 9.8491 30.6829 10.026C33.0007 10.2029 35.1775 11.2746 36.803 13.039C38.4284 14.8034 39.3902 17.1386 39.507 19.6044C40.7147 18.9088 42.0826 18.5889 43.4537 18.6814C44.8247 18.7738 46.1436 19.2749 47.2589 20.1272C48.3742 20.9794 49.2409 22.1484 49.7596 23.5C50.2783 24.8516 50.428 26.3311 50.1916 27.769C51.8163 28.4147 53.1759 29.6462 54.0331 31.2485C54.8903 32.8507 55.1906 34.722 54.8816 36.5355C54.5726 38.349 53.6739 39.9896 52.3424 41.1709C51.0109 42.3522 49.3312 42.9991 47.5966 42.9988L47.5954 43ZM32.7877 43H23.7839C23.6819 43 23.584 42.9569 23.5119 42.8803C23.4398 42.8037 23.3993 42.6997 23.3993 42.5914C23.3993 42.483 23.4398 42.3791 23.5119 42.3024C23.584 42.2258 23.6819 42.1827 23.7839 42.1827H32.7877C32.8897 42.1827 32.9876 42.2258 33.0597 42.3024C33.1318 42.3791 33.1723 42.483 33.1723 42.5914C33.1723 42.6997 33.1318 42.8037 33.0597 42.8803C32.9876 42.9569 32.8897 43 32.7877 43Z" fill="black"/>
  <path d="M11.3479 25C11.3298 25 11.3118 24.9977 11.294 24.9933C11.2029 24.9706 11.1212 24.8908 11.0669 24.7715C11.0125 24.6523 10.99 24.5033 11.0041 24.3574C11.1502 22.8653 11.5629 21.473 12.1926 20.349C12.8222 19.225 13.6416 18.4173 14.5517 18.0239C14.5963 18.0023 14.6431 17.9952 14.6893 18.0031C14.7356 18.0111 14.7804 18.0338 14.8211 18.0699C14.8618 18.1061 14.8975 18.155 14.9262 18.2137C14.9548 18.2724 14.9759 18.3398 14.988 18.4117C15.0001 18.4837 15.0031 18.5588 14.9968 18.6327C14.9904 18.7065 14.9749 18.7776 14.9511 18.8416C14.9273 18.9057 14.8957 18.9614 14.8582 19.0056C14.8207 19.0497 14.7781 19.0813 14.7328 19.0986C13.9524 19.436 13.2498 20.1284 12.7099 21.0922C12.17 22.0559 11.8159 23.2496 11.6906 24.5289C11.6778 24.66 11.6363 24.7794 11.5735 24.8658C11.5107 24.9521 11.4307 24.9997 11.3479 25Z" fill="black"/>
  <path d="M23.3487 17C23.3182 17.0001 23.2878 16.9964 23.2585 16.989C23.1692 16.9675 23.0931 16.9148 23.0468 16.8427C23.0006 16.7705 22.988 16.6847 23.0118 16.6041C23.4039 15.2848 24.2668 14.1188 25.4671 13.2865C26.6673 12.4542 28.138 12.0021 29.6516 12C29.744 12 29.8326 12.0331 29.898 12.0921C29.9633 12.1511 30 12.231 30 12.3144C30 12.3978 29.9633 12.4778 29.898 12.5368C29.8326 12.5957 29.744 12.6289 29.6516 12.6289C28.2914 12.6308 26.9698 13.0372 25.8912 13.7851C24.8126 14.5331 24.0372 15.581 23.6849 16.7667C23.6651 16.8336 23.6214 16.8927 23.5607 16.9348C23.4999 16.977 23.4254 16.9999 23.3487 17Z" fill="black"/>
  <path d="M48.6673 27C48.5791 27 48.4945 26.9579 48.4321 26.8831C48.3697 26.8082 48.3347 26.7067 48.3347 26.6008C48.3335 25.3276 47.9115 24.1069 47.1613 23.2066C46.411 22.3063 45.3937 21.7998 44.3327 21.7984C44.2444 21.7984 44.1598 21.7563 44.0974 21.6814C44.035 21.6066 44 21.505 44 21.3992C44 21.2933 44.035 21.1918 44.0974 21.1169C44.1598 21.0421 44.2444 21 44.3327 21C45.5701 21.0017 46.7565 21.5923 47.6315 22.6423C48.5065 23.6923 48.9987 25.1159 49 26.6008C49 26.7067 48.965 26.8082 48.9026 26.8831C48.8402 26.9579 48.7556 27 48.6673 27Z" fill="black"/>
  <path d="M22.0015 50C21.93 50 21.8597 49.9836 21.7966 49.9522C21.7336 49.9209 21.6798 49.8756 21.6401 49.8203L18.0734 44.8632C18.0296 44.8022 18.0044 44.7314 18.0005 44.6582C17.9966 44.5849 18.0142 44.5121 18.0513 44.4474C18.0884 44.3828 18.1437 44.3287 18.2112 44.291C18.2788 44.2533 18.3561 44.2334 18.4349 44.2334H19.9229V33.4048C19.9229 33.2974 19.9687 33.1945 20.0503 33.1186C20.1318 33.0426 20.2425 33 20.3578 33H23.6422C23.7575 33 23.8682 33.0426 23.9497 33.1186C24.0313 33.1945 24.0771 33.2974 24.0771 33.4048V44.2334H25.5651C25.6439 44.2334 25.7212 44.2533 25.7888 44.291C25.8563 44.3287 25.9116 44.3828 25.9487 44.4474C25.9858 44.5121 26.0034 44.5849 25.9995 44.6582C25.9956 44.7314 25.9704 44.8022 25.9266 44.8632L22.3599 49.8203C22.3205 49.8752 22.2672 49.9202 22.2047 49.9516C22.1422 49.9829 22.0725 49.9995 22.0015 50ZM19.2513 45.0429L22.0015 48.8675L24.7526 45.0429H23.6439C23.5286 45.0429 23.4179 45.0002 23.3364 44.9243C23.2548 44.8484 23.209 44.7455 23.209 44.6381V33.8095H20.7945V44.6381C20.7945 44.7455 20.7487 44.8484 20.6671 44.9243C20.5856 45.0002 20.4749 45.0429 20.3596 45.0429H19.2513Z" fill="black"/>
  <path d="M35.229 50H32.767C32.6806 50 32.5976 49.9573 32.5365 49.8814C32.4753 49.8054 32.4409 49.7024 32.4409 49.595V38.7587H31.3251C31.2661 38.7585 31.2083 38.7384 31.1577 38.7006C31.1072 38.6628 31.0659 38.6087 31.0382 38.544C31.0105 38.4793 30.9974 38.4065 31.0004 38.3334C31.0034 38.2602 31.0223 38.1894 31.0551 38.1285L33.729 33.1685C33.7605 33.1162 33.8014 33.0737 33.8485 33.0445C33.8955 33.0152 33.9474 33 34 33C34.0526 33 34.1045 33.0152 34.1515 33.0445C34.1986 33.0737 34.2395 33.1162 34.271 33.1685L36.9449 38.1285C36.9778 38.1895 36.9967 38.2604 36.9996 38.3337C37.0025 38.4069 36.9894 38.4798 36.9615 38.5445C36.9337 38.6092 36.8923 38.6633 36.8416 38.7011C36.791 38.7388 36.733 38.7587 36.674 38.7587H35.5551V49.595C35.5551 49.7024 35.5208 49.8054 35.4596 49.8814C35.3985 49.9573 35.3155 50 35.229 50ZM33.0931 49.1899H34.903V38.3537C34.903 38.2463 34.9373 38.1433 34.9985 38.0673C35.0596 37.9914 35.1426 37.9487 35.229 37.9487H36.0603L33.998 34.1219L31.9355 37.9487H32.767C32.8535 37.9487 32.9365 37.9914 32.9976 38.0673C33.0588 38.1433 33.0931 38.2463 33.0931 38.3537V49.1899Z" fill="black"/>
</svg>