<svg xmlns="http://www.w3.org/2000/svg" width="28" height="28" viewBox="0 0 28 28" fill="none">
  <path d="M25.6 11.8C25.8209 11.8 26 11.6097 26 11.375V6.70016C26 5.7628 25.2822 5.0002 24.4 5.0002H2.40008C2.07304 4.98903 1.8714 5.43811 2.09404 5.69893L3.4774 7.4441L2.0938 9.19323C1.9686 9.35158 1.9688 9.58231 2.094 9.74045L3.4772 11.4855L2.094 13.2305C1.9688 13.3886 1.9688 13.6197 2.094 13.7779L3.4768 15.5225L2.09436 17.2635C1.96876 17.4217 1.96856 17.6528 2.09396 17.8114L3.47716 19.5562L2.09396 21.301C1.87676 21.5609 2.06776 22.0117 2.40008 21.9998H24.4C25.2822 21.9998 26 21.2374 26 20.2998V15.6249C26 15.39 25.8208 15.1999 25.6 15.1999C23.4817 15.128 23.4898 11.8692 25.6 11.8ZM25.2 16.0146V20.2998C25.2 20.7684 24.8412 21.1498 24.4 21.1498H20V19.4498C20 19.2149 19.8209 19.0248 19.6 19.0248C19.3791 19.0248 19.2 19.2149 19.2 19.4498V21.1498H3.25984L4.30611 19.83C4.43131 19.6715 4.43131 19.4407 4.30611 19.2821L2.92332 17.5378L4.30575 15.7967C4.43135 15.6386 4.43155 15.4074 4.30615 15.2489L2.92296 13.5041L4.30615 11.7591C4.43135 11.6009 4.43135 11.3698 4.30615 11.2116L2.92276 9.46646L4.30635 7.71733C4.43155 7.55898 4.43135 7.32825 4.30615 7.17011L3.25984 5.85018H19.2V7.55014C19.2 7.78482 19.3791 7.97513 19.6 7.97513C19.8209 7.97513 20 7.78482 20 7.55014V5.85018H24.4C24.8412 5.85018 25.2 6.2314 25.2 6.70016V10.9855C22.554 11.4974 22.556 15.5037 25.2 16.0146Z" fill="#404040"/>
  <path d="M14.8794 10.1206C14.7185 9.95979 14.458 9.95979 14.2971 10.1206L8.12063 16.2971C7.95979 16.4579 7.95979 16.7185 8.12063 16.8794C8.28146 17.0402 8.54203 17.0402 8.7029 16.8794L14.8794 10.7029C15.0402 10.5421 15.0402 10.2815 14.8794 10.1206Z" fill="#404040"/>
  <path d="M11 11.5001C10.937 9.49967 8.06277 9.50027 8 11.5001C8.06298 13.5001 10.9373 13.4998 11 11.5001ZM8.70213 11.5001C8.72966 10.4385 10.2704 10.4385 10.2979 11.5001C10.2702 12.5616 8.72955 12.5612 8.70213 11.5001Z" fill="#404040"/>
  <path d="M13.4999 14C11.5 14.063 11.5001 16.9372 13.4999 17C15.5004 16.9369 15.4996 14.0627 13.4999 14ZM13.4999 16.2979C12.4383 16.2703 12.4388 14.7295 13.4999 14.7021C14.5615 14.7296 14.5616 16.2705 13.4999 16.2979Z" fill="#404040"/>
  <path d="M19.5 10C19.2239 10 19 10.1919 19 10.4286V12.5714C19 12.8081 19.2239 13 19.5 13C19.7761 13 20 12.8081 20 12.5714V10.4286C20 10.1919 19.7761 10 19.5 10Z" fill="#404040"/>
  <path d="M19.5 15C19.2239 15 19 15.1917 19 15.4286V17.5714C19 17.8083 19.2239 18 19.5 18C19.7761 18 20 17.8083 20 17.5714V15.4286C20 15.1917 19.7761 15 19.5 15Z" fill="#404040"/>
</svg>