<svg xmlns="http://www.w3.org/2000/svg" width="28" height="28" viewBox="0 0 28 28" fill="none">
  <path d="M7.36193 7.11643C7.30043 7.04727 7.21419 7.00557 7.1222 7.00052C7.03021 6.99547 6.93999 7.02747 6.8714 7.08948C6.80281 7.1515 6.76146 7.23845 6.75645 7.33121C6.75144 7.42396 6.78317 7.51493 6.84468 7.58409L8.79213 9.74072C5.49465 11.6096 4.086 14.7224 4.0291 14.8589C4.00991 14.9035 4 14.9516 4 15.0002C4 15.0488 4.00991 15.0968 4.0291 15.1414C4.05841 15.2084 4.7636 16.7835 6.34208 18.3751C7.80763 19.8528 10.3198 21.6061 14 21.6061C15.5809 21.6166 17.1441 21.2694 18.5742 20.5899L20.6432 22.883C20.6735 22.9175 20.7103 22.9455 20.7514 22.9655C20.7925 22.9855 20.8371 22.997 20.8827 22.9995C20.9282 23.002 20.9738 22.9953 21.0168 22.9799C21.0598 22.9644 21.0993 22.9406 21.1331 22.9096C21.1669 22.8787 21.1942 22.8413 21.2136 22.7996C21.2329 22.7579 21.2438 22.7128 21.2457 22.6668C21.2476 22.6208 21.2405 22.5749 21.2247 22.5318C21.2088 22.4886 21.1847 22.4491 21.1536 22.4154L7.36193 7.11643ZM15.819 17.5345C15.2004 17.9826 14.44 18.1857 13.6825 18.1051C12.9251 18.0244 12.2235 17.6658 11.7113 17.0974C11.1991 16.5289 10.9121 15.7904 10.9049 15.0225C10.8977 14.2545 11.1709 13.5107 11.6724 12.9326L15.819 17.5345ZM14 20.9107C11.2413 20.9107 8.83696 19.898 6.84468 17.9013C5.99586 17.049 5.28179 16.0705 4.72739 14.9997C5.04205 14.3713 6.45933 11.8 9.26887 10.2684L11.2043 12.4154C10.5619 13.1187 10.2041 14.039 10.2013 14.9951C10.1985 15.9512 10.5509 16.8736 11.1891 17.5807C11.8273 18.2878 12.705 18.7282 13.6493 18.8153C14.5935 18.9023 15.5358 18.6296 16.2906 18.0508L18.0915 20.0501C16.8038 20.627 15.409 20.9204 14 20.9107ZM14.5845 11.926C14.4948 11.9087 14.4156 11.8562 14.3643 11.78C14.3129 11.7039 14.2936 11.6103 14.3107 11.5198C14.3277 11.4293 14.3796 11.3493 14.455 11.2974C14.5304 11.2455 14.6232 11.2258 14.7129 11.2428C15.5187 11.4004 16.2524 11.8163 16.8046 12.4287C17.3567 13.041 17.6977 13.817 17.7768 14.6407C17.7852 14.7325 17.7571 14.8238 17.6988 14.8947C17.6404 14.9656 17.5566 15.0103 17.4656 15.0189H17.4328C17.3466 15.0192 17.2634 14.987 17.1996 14.9286C17.1358 14.8702 17.096 14.7899 17.088 14.7033C17.0232 14.0302 16.7445 13.3962 16.2934 12.8957C15.8423 12.3953 15.2429 12.0551 14.5845 11.926ZM23.9709 15.1423C23.9356 15.2214 23.0916 17.1051 21.1795 18.8323C21.1159 18.8888 21.034 18.9197 20.9493 18.9192C20.8791 18.9197 20.8104 18.8985 20.7524 18.8585C20.6945 18.8185 20.65 18.7616 20.625 18.6954C20.6 18.6293 20.5956 18.557 20.6124 18.4883C20.6292 18.4195 20.6664 18.3576 20.7191 18.3107C21.7582 17.3685 22.6229 16.2473 23.2726 14.9997C22.7179 13.9292 22.0039 12.9507 21.1553 12.0982C19.163 10.1015 16.7587 9.08878 14 9.08878C13.4224 9.08819 12.8457 9.13558 12.2758 9.23047C12.186 9.24475 12.0943 9.22271 12.0205 9.16914C11.9468 9.11556 11.897 9.03479 11.882 8.94439C11.867 8.85398 11.888 8.76127 11.9404 8.6864C11.9929 8.61154 12.0725 8.56058 12.162 8.54462C12.7695 8.4431 13.3843 8.39251 14 8.39337C17.6811 8.39337 20.1958 10.151 21.6579 11.6253C23.2364 13.2169 23.9416 14.7929 23.9709 14.8589C23.9901 14.9035 24 14.9516 24 15.0002C24 15.0488 23.9901 15.0968 23.9709 15.1414V15.1423Z" fill="#7E7E7E"/>
</svg>