<svg xmlns="http://www.w3.org/2000/svg" width="28" height="28" viewBox="0 0 28 28" fill="none">
  <path d="M23.9709 13.8508C23.9416 13.7808 23.2364 12.1109 21.6579 10.4245C20.1958 8.86237 17.6811 7 14 7C10.3189 7 7.80418 8.86237 6.34208 10.4245C4.7636 12.1109 4.05841 13.7808 4.0291 13.8508C4.00991 13.898 4 13.949 4 14.0005C4 14.052 4.00991 14.1029 4.0291 14.1501C4.05841 14.2211 4.7636 15.89 6.34208 17.5764C7.80763 19.1422 10.3198 21 14 21C17.6802 21 20.1958 19.1386 21.6579 17.5764C23.2364 15.89 23.9416 14.2211 23.9709 14.1501C23.9901 14.1029 24 14.052 24 14.0005C24 13.949 23.9901 13.898 23.9709 13.8508ZM21.1519 17.0745C19.163 19.1929 16.7552 20.2632 13.9966 20.2632C11.2379 20.2632 8.83351 19.1901 6.84123 17.0745C5.99353 16.1712 5.28062 15.1343 4.72739 14C5.28165 12.8654 5.99574 11.8285 6.84468 10.9255C8.83696 8.80987 11.2413 7.73684 14 7.73684C16.7587 7.73684 19.163 8.80987 21.1553 10.9255C22.0042 11.8286 22.7182 12.8655 23.2726 14C22.7183 15.1346 22.0042 16.1715 21.1553 17.0745H21.1519ZM14 9.94737C13.2498 9.94737 12.5164 10.1851 11.8926 10.6304C11.2688 11.0757 10.7827 11.7086 10.4956 12.4491C10.2085 13.1896 10.1333 14.0045 10.2797 14.7906C10.4261 15.5768 10.7873 16.2989 11.3178 16.8656C11.8483 17.4324 12.5242 17.8184 13.26 17.9748C13.9958 18.1311 14.7585 18.0509 15.4516 17.7441C16.1447 17.4374 16.7371 16.918 17.1539 16.2515C17.5707 15.5851 17.7932 14.8015 17.7932 14C17.792 12.9255 17.392 11.8955 16.6809 11.1357C15.9698 10.376 15.0057 9.94859 14 9.94737ZM14 17.3158C13.3862 17.3158 12.7862 17.1213 12.2758 16.757C11.7654 16.3926 11.3676 15.8748 11.1327 15.2689C10.8978 14.663 10.8364 13.9963 10.9561 13.3531C11.0759 12.7099 11.3715 12.1191 11.8055 11.6554C12.2395 11.1917 12.7925 10.8759 13.3945 10.7479C13.9966 10.62 14.6206 10.6856 15.1877 10.9366C15.7548 11.1876 16.2395 11.6126 16.5805 12.1578C16.9215 12.7031 17.1035 13.3442 17.1035 14C17.1035 14.8794 16.7765 15.7228 16.1945 16.3446C15.6125 16.9664 14.8231 17.3158 14 17.3158Z" fill="#7E7E7E"/>
</svg>