<svg xmlns="http://www.w3.org/2000/svg" width="60" height="60" viewBox="0 0 60 60" fill="none">
  <path d="M49.5091 38.2112H39.1207C39.0146 38.2112 38.9129 38.1691 38.8379 38.094C38.7629 38.019 38.7207 37.9173 38.7207 37.8112C38.7207 37.7051 38.7629 37.6034 38.8379 37.5284C38.9129 37.4533 39.0146 37.4112 39.1207 37.4112H49.5091C49.6152 37.4112 49.717 37.4533 49.792 37.5284C49.867 37.6034 49.9091 37.7051 49.9091 37.8112C49.9091 37.9173 49.867 38.019 49.792 38.094C49.717 38.1691 49.6152 38.2112 49.5091 38.2112Z" fill="#131313"/>
  <path d="M48.8976 44.1376H41.3512C41.2451 44.1376 41.1434 44.0955 41.0684 44.0204C40.9933 43.9454 40.9512 43.8437 40.9512 43.7376C40.9512 43.6315 40.9933 43.5298 41.0684 43.4548C41.1434 43.3797 41.2451 43.3376 41.3512 43.3376H48.8976C49.0037 43.3376 49.1054 43.3797 49.1804 43.4548C49.2555 43.5298 49.2976 43.6315 49.2976 43.7376C49.2976 43.8437 49.2555 43.9454 49.1804 44.0204C49.1054 44.0955 49.0037 44.1376 48.8976 44.1376Z" fill="#131313"/>
  <path d="M46.0872 50.064H40.65C40.5439 50.064 40.4422 50.0219 40.3672 49.9468C40.2922 49.8718 40.25 49.7701 40.25 49.664C40.25 49.5579 40.2922 49.4562 40.3672 49.3812C40.4422 49.3061 40.5439 49.264 40.65 49.264H46.0872C46.1933 49.264 46.2951 49.3061 46.3701 49.3812C46.4451 49.4562 46.4872 49.5579 46.4872 49.664C46.4872 49.7701 46.4451 49.8718 46.3701 49.9468C46.2951 50.0219 46.1933 50.064 46.0872 50.064Z" fill="#131313"/>
  <path d="M45.7555 55.9908H24.4171C24.3902 55.9907 24.3634 55.9878 24.3371 55.9824L17.0895 54.4644H15.3455C15.2394 54.4644 15.1376 54.4223 15.0626 54.3472C14.9876 54.2722 14.9455 54.1705 14.9455 54.0644C14.9455 53.9583 14.9876 53.8566 15.0626 53.7816C15.1376 53.7065 15.2394 53.6644 15.3455 53.6644H17.1311C17.1579 53.6647 17.1847 53.6675 17.2111 53.6728L24.4587 55.1928H45.7555C46.3608 55.2027 46.9512 55.0048 47.4283 54.6321C47.9055 54.2594 48.2405 53.7345 48.3775 53.1448C48.4528 52.7693 48.4439 52.3817 48.3513 52.01C48.2586 51.6383 48.0847 51.2919 47.8419 50.9956C47.6014 50.7036 47.2991 50.4685 46.9569 50.3073C46.6147 50.1461 46.241 50.0627 45.8627 50.0632C45.7566 50.0632 45.6548 50.0211 45.5798 49.946C45.5048 49.871 45.4627 49.7693 45.4627 49.6632C45.4627 49.5571 45.5048 49.4554 45.5798 49.3804C45.6548 49.3053 45.7566 49.2632 45.8627 49.2632H47.8163C48.424 49.2779 49.018 49.0816 49.4974 48.7078C49.9768 48.334 50.3119 47.8058 50.4459 47.2128C50.5191 46.8378 50.5083 46.4513 50.4145 46.081C50.3206 45.7106 50.146 45.3657 49.9031 45.0708C49.6634 44.7797 49.3622 44.5454 49.0212 44.3846C48.6801 44.2238 48.3077 44.1405 47.9307 44.1408C47.8246 44.1408 47.7228 44.0987 47.6478 44.0236C47.5728 43.9486 47.5307 43.8469 47.5307 43.7408C47.5307 43.6347 47.5728 43.533 47.6478 43.458C47.7228 43.3829 47.8246 43.3408 47.9307 43.3408H49.3963C50.0048 43.3549 50.5994 43.1576 51.0788 42.7825C51.5582 42.4074 51.8928 41.8777 52.0255 41.2836C52.0987 40.9086 52.0881 40.5221 51.9944 40.1517C51.9007 39.7813 51.7262 39.4362 51.4835 39.1412C51.2436 38.8502 50.9424 38.6159 50.6013 38.4551C50.2602 38.2943 49.8878 38.211 49.5107 38.2112C49.4046 38.2112 49.3028 38.1691 49.2278 38.094C49.1528 38.019 49.1107 37.9173 49.1107 37.8112C49.1107 37.7051 49.1528 37.6034 49.2278 37.5284C49.3028 37.4533 49.4046 37.4112 49.5107 37.4112H52.0907C52.7693 37.4101 53.4198 37.1401 53.8997 36.6602C54.3796 36.1804 54.6496 35.5298 54.6507 34.8512V34.6756C54.6499 33.9946 54.3791 33.3417 53.8976 32.8601C53.4161 32.3786 52.7633 32.1076 52.0823 32.1068L30.3879 32.3068H30.3843C30.2988 32.3067 30.2156 32.2792 30.1468 32.2283C30.0781 32.1775 30.0275 32.1059 30.0024 32.0242C29.9773 31.9425 29.979 31.8549 30.0074 31.7742C30.0357 31.6935 30.0892 31.6241 30.1599 31.576C32.6495 29.8856 33.4999 28.996 35.2963 26.884C37.2803 24.5444 38.2003 21.0504 35.7843 18.5076C35.6604 18.3778 35.5114 18.2746 35.3464 18.2043C35.1813 18.134 35.0037 18.0981 34.8243 18.0988C34.4187 18.1007 34.0304 18.263 33.7443 18.5504L28.2443 24.48C24.81 28.0231 20.2845 30.3091 15.3947 30.9708C15.3426 30.9775 15.2896 30.9739 15.2389 30.9602C15.1882 30.9465 15.1407 30.9229 15.0991 30.8908C15.0575 30.8587 15.0226 30.8187 14.9965 30.7732C14.9703 30.7276 14.9534 30.6773 14.9467 30.6252C14.94 30.5731 14.9436 30.5202 14.9573 30.4695C14.971 30.4187 14.9946 30.3712 15.0267 30.3296C15.0588 30.288 15.0988 30.2532 15.1443 30.227C15.1899 30.2008 15.2402 30.1839 15.2923 30.1772C20 29.5403 24.3573 27.3402 27.6647 23.93L33.1639 18C33.6049 17.555 34.2045 17.3032 34.8311 17.3C35.1181 17.3 35.402 17.3583 35.6658 17.4715C35.9295 17.5847 36.1674 17.7503 36.3651 17.9584C39.1207 20.8608 38.1203 24.7908 35.9067 27.3984C34.3695 29.2056 33.4703 30.1768 31.6667 31.4916L52.0779 31.3048C52.9715 31.3051 53.8285 31.66 54.4608 32.2917C55.093 32.9233 55.4487 33.7799 55.4499 34.6736V34.8492C55.4486 35.7399 55.0942 36.5938 54.4643 37.2237C53.8345 37.8535 52.9806 38.2079 52.0899 38.2092H51.6847C52.1766 38.6237 52.5387 39.1711 52.7279 39.7859C52.9171 40.4007 52.9253 41.057 52.7515 41.6764C52.5777 42.2957 52.2293 42.8519 51.7479 43.2786C51.2665 43.7052 50.6724 43.9843 50.0367 44.0824C50.5735 44.5116 50.9655 45.0953 51.1596 45.7546C51.3538 46.4138 51.3407 47.1168 51.1222 47.7684C50.9037 48.42 50.4903 48.9888 49.9379 49.3977C49.3855 49.8066 48.7209 50.036 48.0339 50.0548C48.5683 50.5057 48.9489 51.1119 49.123 51.7892C49.2971 52.4664 49.2559 53.181 49.0052 53.8337C48.7545 54.4865 48.3067 55.0449 47.724 55.4315C47.1413 55.8181 46.4527 56.0135 45.7539 55.9908H45.7555Z" fill="#131313"/>
  <path d="M14.0224 55.9324H6.27323C5.81605 55.9319 5.37775 55.75 5.05448 55.4268C4.73121 55.1035 4.54936 54.6652 4.54883 54.208V30.2348C4.54936 29.7776 4.73121 29.3393 5.05448 29.016C5.37775 28.6928 5.81605 28.5109 6.27323 28.5104H14.0224C14.4796 28.5109 14.9179 28.6928 15.2412 29.016C15.5645 29.3393 15.7463 29.7776 15.7468 30.2348V54.208C15.7463 54.6652 15.5645 55.1035 15.2412 55.4268C14.9179 55.75 14.4796 55.9319 14.0224 55.9324ZM6.27323 29.3104C6.02813 29.3106 5.79313 29.4081 5.61981 29.5814C5.4465 29.7547 5.34904 29.9897 5.34883 30.2348V54.208C5.34915 54.4531 5.44664 54.688 5.61993 54.8613C5.79322 55.0346 6.02816 55.1321 6.27323 55.1324H14.0224C14.2675 55.1322 14.5025 55.0347 14.6758 54.8614C14.8492 54.6881 14.9466 54.4531 14.9468 54.208V30.2348C14.9466 29.9897 14.8492 29.7547 14.6758 29.5814C14.5025 29.4081 14.2675 29.3106 14.0224 29.3104H6.27323Z" fill="#131313"/>
  <path d="M10.1478 53.994C9.74158 53.9941 9.34448 53.8737 9.00671 53.6481C8.66894 53.4224 8.40566 53.1017 8.25018 52.7265C8.0947 52.3512 8.05399 51.9383 8.13322 51.5399C8.21245 51.1415 8.40804 50.7755 8.69527 50.4883C8.98249 50.2011 9.34844 50.0055 9.74684 49.9262C10.1452 49.847 10.5582 49.8877 10.9334 50.0432C11.3087 50.1987 11.6294 50.462 11.8551 50.7997C12.0807 51.1375 12.2011 51.5346 12.201 51.9408C12.2003 52.4851 11.9838 53.007 11.5989 53.3919C11.214 53.7768 10.6921 53.9934 10.1478 53.994ZM10.1478 50.6872C9.89982 50.6871 9.65741 50.7606 9.45121 50.8983C9.245 51.036 9.08426 51.2317 8.98932 51.4608C8.89438 51.6898 8.86949 51.9419 8.91782 52.1851C8.96614 52.4283 9.08551 52.6517 9.26081 52.8271C9.43611 53.0024 9.65948 53.1219 9.90267 53.1703C10.1459 53.2187 10.3979 53.1939 10.627 53.099C10.8561 53.0041 11.0519 52.8435 11.1897 52.6373C11.3274 52.4311 11.401 52.1888 11.401 51.9408C11.4006 51.6085 11.2684 51.29 11.0335 51.055C10.7986 50.82 10.4801 50.6877 10.1478 50.6872Z" fill="#131313"/>
  <path d="M33.3132 53.6856H24.7332C24.7064 53.6853 24.6796 53.6825 24.6532 53.6772L21.0856 52.93C20.9818 52.9082 20.8908 52.846 20.8328 52.7572C20.7748 52.6683 20.7544 52.5601 20.7762 52.4562C20.798 52.3523 20.8602 52.2614 20.9491 52.2034C21.0379 52.1454 21.1462 52.125 21.25 52.1468L24.7768 52.8856H33.3132C33.4193 52.8856 33.5211 52.9277 33.5961 53.0028C33.6711 53.0778 33.7132 53.1795 33.7132 53.2856C33.7132 53.3917 33.6711 53.4934 33.5961 53.5685C33.5211 53.6435 33.4193 53.6856 33.3132 53.6856Z" fill="#131313"/>
  <path d="M6.77323 47.5772C6.66714 47.5772 6.5654 47.5351 6.49038 47.46C6.41537 47.385 6.37323 47.2833 6.37323 47.1772V45.02C6.37323 44.9139 6.41537 44.8122 6.49038 44.7372C6.5654 44.6621 6.66714 44.62 6.77323 44.62C6.87931 44.62 6.98106 44.6621 7.05607 44.7372C7.13108 44.8122 7.17323 44.9139 7.17323 45.02V47.1772C7.17323 47.2833 7.13108 47.385 7.05607 47.46C6.98106 47.5351 6.87931 47.5772 6.77323 47.5772Z" fill="#131313"/>
  <path d="M6.77323 43.3056C6.66714 43.3056 6.5654 43.2635 6.49038 43.1884C6.41537 43.1134 6.37323 43.0117 6.37323 42.9056V33.416C6.37323 33.3099 6.41537 33.2082 6.49038 33.1332C6.5654 33.0581 6.66714 33.016 6.77323 33.016C6.87931 33.016 6.98106 33.0581 7.05607 33.1332C7.13108 33.2082 7.17323 33.3099 7.17323 33.416V42.9056C7.17323 43.0117 7.13108 43.1134 7.05607 43.1884C6.98106 43.2635 6.87931 43.3056 6.77323 43.3056Z" fill="#131313"/>
  <path d="M25.6136 16.3536C25.5488 16.3537 25.485 16.3379 25.4276 16.3076L22.454 14.7444L19.48 16.3076C19.414 16.3423 19.3395 16.3579 19.2651 16.3525C19.1906 16.3471 19.1192 16.321 19.0588 16.2772C18.9984 16.2333 18.9515 16.1734 18.9234 16.1043C18.8953 16.0352 18.887 15.9596 18.8996 15.886L19.4676 12.5752L17.0624 10.2308C17.0089 10.1787 16.9711 10.1127 16.9532 10.0402C16.9353 9.96775 16.938 9.89171 16.9611 9.8207C16.9841 9.7497 17.0266 9.68656 17.0837 9.63844C17.1407 9.59032 17.2101 9.55913 17.284 9.5484L20.608 9.0656L22.0948 6.0532C22.1316 5.99084 22.1841 5.93915 22.247 5.90324C22.3098 5.86733 22.381 5.84845 22.4534 5.84845C22.5258 5.84845 22.597 5.86733 22.6599 5.90324C22.7228 5.93915 22.7752 5.99084 22.812 6.0532L24.2988 9.0656L27.6224 9.5484C27.6963 9.55907 27.7658 9.59021 27.8229 9.63831C27.88 9.68641 27.9226 9.74954 27.9457 9.82055C27.9688 9.89157 27.9715 9.96763 27.9536 10.0401C27.9357 10.1126 27.8979 10.1787 27.8444 10.2308L25.44 12.5752L26.008 15.886C26.0179 15.9434 26.0151 16.0022 25.9998 16.0584C25.9845 16.1146 25.9572 16.1668 25.9197 16.2113C25.8822 16.2559 25.8354 16.2917 25.7826 16.3162C25.7298 16.3408 25.6719 16.3536 25.6136 16.3536ZM22.4536 13.8928C22.5184 13.8927 22.5822 13.9084 22.6396 13.9384L25.082 15.2224L24.6156 12.5024C24.6046 12.4385 24.6094 12.3729 24.6294 12.3112C24.6494 12.2496 24.684 12.1937 24.7304 12.1484L26.7056 10.2228L23.976 9.8264C23.9118 9.81704 23.8508 9.79219 23.7984 9.754C23.7459 9.71581 23.7035 9.66543 23.6748 9.6072L22.4536 7.1336L21.2332 9.608C21.2046 9.66623 21.1622 9.71661 21.1097 9.7548C21.0572 9.79299 20.9962 9.81784 20.932 9.8272L18.202 10.2236L20.1776 12.1492C20.224 12.1945 20.2587 12.2504 20.2787 12.312C20.2987 12.3737 20.3034 12.4393 20.2924 12.5032L19.826 15.2232L22.268 13.9392C22.3253 13.9089 22.3888 13.893 22.4536 13.8928Z" fill="#131313"/>
  <path d="M44.7803 16.3536C44.722 16.3536 44.6645 16.3409 44.6116 16.3164C44.5588 16.2918 44.5119 16.256 44.4744 16.2115C44.4368 16.167 44.4094 16.1148 44.3941 16.0585C44.3788 16.0023 44.376 15.9434 44.3859 15.886L44.9539 12.5752L42.5487 10.2308C42.4952 10.1787 42.4574 10.1127 42.4394 10.0402C42.4215 9.96775 42.4243 9.89171 42.4473 9.82071C42.4704 9.7497 42.5128 9.68657 42.5699 9.63844C42.627 9.59032 42.6964 9.55913 42.7703 9.5484L46.0943 9.0656L47.5811 6.0532C47.6179 5.99084 47.6703 5.93915 47.7332 5.90324C47.7961 5.86734 47.8673 5.84845 47.9397 5.84845C48.0121 5.84845 48.0833 5.86734 48.1461 5.90324C48.209 5.93915 48.2615 5.99084 48.2983 6.0532L49.7847 9.0656L53.1087 9.5484C53.1826 9.55907 53.252 9.59021 53.3092 9.63831C53.3663 9.68641 53.4088 9.74954 53.4319 9.82055C53.455 9.89157 53.4578 9.96763 53.4399 10.0401C53.422 10.1126 53.3842 10.1787 53.3307 10.2308L50.9251 12.5752L51.4927 15.886C51.5053 15.9596 51.4971 16.0352 51.4689 16.1043C51.4408 16.1734 51.3939 16.2333 51.3335 16.2772C51.2731 16.321 51.2017 16.3471 51.1272 16.3525C51.0528 16.3579 50.9783 16.3423 50.9123 16.3076L47.9395 14.7444L44.9659 16.3076C44.9087 16.3379 44.845 16.3537 44.7803 16.3536ZM47.9403 13.8928C48.0052 13.8928 48.0691 13.9085 48.1267 13.9384L50.5667 15.2224L50.1007 12.5024C50.0897 12.4385 50.0944 12.3729 50.1144 12.3112C50.1344 12.2496 50.1691 12.1937 50.2155 12.1484L52.1911 10.2228L49.4615 9.8264C49.3973 9.81704 49.3363 9.79219 49.2838 9.754C49.2313 9.71582 49.1889 9.66543 49.1603 9.6072L47.9391 7.1336L46.7191 9.608C46.6904 9.66623 46.648 9.71662 46.5956 9.7548C46.5431 9.79299 46.4821 9.81784 46.4179 9.8272L43.6883 10.2236L45.6639 12.1492C45.7103 12.1945 45.745 12.2504 45.765 12.312C45.785 12.3737 45.7897 12.4393 45.7787 12.5032L45.3123 15.2232L47.7523 13.9392C47.81 13.9087 47.875 13.8928 47.9403 13.8928Z" fill="#131313"/>
  <path d="M38.3568 14.514C38.2921 14.514 38.2283 14.4983 38.1708 14.4684L35.1976 12.9052L32.2248 14.4684C32.1587 14.5032 32.0842 14.5187 32.0098 14.5133C31.9353 14.508 31.8638 14.4818 31.8034 14.4379C31.743 14.394 31.6961 14.3341 31.668 14.2649C31.6399 14.1957 31.6317 14.12 31.6444 14.0464L32.212 10.7356L29.8064 8.3916C29.753 8.33948 29.7151 8.27344 29.6972 8.20093C29.6793 8.12843 29.6821 8.05237 29.7052 7.98135C29.7283 7.91034 29.7708 7.84721 29.8279 7.79911C29.8851 7.75101 29.9545 7.71987 30.0284 7.7092L33.3524 7.226L34.8388 4.214C34.8756 4.15163 34.9281 4.09995 34.991 4.06404C35.0539 4.02813 35.125 4.00925 35.1974 4.00925C35.2699 4.00925 35.341 4.02813 35.4039 4.06404C35.4668 4.09995 35.5192 4.15163 35.556 4.214L37.0428 7.226L40.3668 7.7092C40.4407 7.71993 40.5101 7.75112 40.5672 7.79924C40.6243 7.84736 40.6667 7.9105 40.6898 7.9815C40.7129 8.05251 40.7156 8.12855 40.6977 8.20102C40.6798 8.2735 40.6419 8.33951 40.5884 8.3916L38.1832 10.7356L38.7508 14.0464C38.7607 14.1038 38.7579 14.1626 38.7426 14.2188C38.7273 14.275 38.7 14.3272 38.6625 14.3717C38.625 14.4163 38.5782 14.4521 38.5254 14.4766C38.4726 14.5012 38.4151 14.514 38.3568 14.514ZM30.9456 8.3844L32.9204 10.3096C32.9668 10.3549 33.0015 10.4108 33.0215 10.4724C33.0415 10.5341 33.0462 10.5997 33.0352 10.6636L32.5692 13.3836L35.0092 12.1C35.0667 12.0698 35.1306 12.054 35.1954 12.054C35.2603 12.054 35.3242 12.0698 35.3816 12.1L37.8236 13.3836L37.3572 10.6636C37.3463 10.5997 37.351 10.5341 37.371 10.4724C37.391 10.4108 37.4256 10.3549 37.472 10.3096L39.4476 8.3844L36.7204 7.9876C36.6563 7.97828 36.5953 7.95349 36.5428 7.91537C36.4904 7.87726 36.4479 7.82695 36.4192 7.7688L35.1984 5.2948L33.9776 7.7688C33.9489 7.82695 33.9065 7.87726 33.854 7.91537C33.8016 7.95349 33.7406 7.97828 33.6764 7.9876L30.9456 8.3844Z" fill="#131313"/>
</svg>