<svg xmlns="http://www.w3.org/2000/svg" width="28" height="28" viewBox="0 0 28 28" fill="none">
  <path d="M13.7663 13.4154C12.9927 13.4154 12.2509 13.1081 11.7039 12.5611C11.1569 12.0141 10.8496 11.2722 10.8496 10.4987C10.8496 9.72515 11.1569 8.98328 11.7039 8.4363C12.2509 7.88932 12.9927 7.58203 13.7663 7.58203C14.5398 7.58203 15.2817 7.88932 15.8287 8.4363C16.3757 8.98328 16.6829 9.72515 16.6829 10.4987C16.6829 10.8817 16.6075 11.261 16.4609 11.6149C16.3144 11.9687 16.0995 12.2903 15.8287 12.5611C15.5578 12.8319 15.2363 13.0468 14.8824 13.1933C14.5286 13.3399 14.1493 13.4154 13.7663 13.4154ZM13.7663 2.33203C11.6003 2.33203 9.52312 3.19245 7.99157 4.72399C6.46002 6.25554 5.59961 8.33276 5.59961 10.4987C5.59961 16.6237 13.7663 25.6654 13.7663 25.6654C13.7663 25.6654 21.9329 16.6237 21.9329 10.4987C21.9329 8.33276 21.0725 6.25554 19.541 4.72399C18.0094 3.19245 15.9322 2.33203 13.7663 2.33203Z" fill="#0E72E8"/>
</svg>