<svg xmlns="http://www.w3.org/2000/svg" width="60" height="60" viewBox="0 0 60 60" fill="none">
  <path d="M22.4437 39.1072C22.419 39.1073 22.3944 39.105 22.3701 39.1004C22.2755 39.0828 22.1904 39.0316 22.1304 38.9563C22.0705 38.881 22.0397 38.7866 22.0437 38.6904C22.0237 37.4294 21.7074 36.1907 21.1205 35.0744C18.4209 36.2188 15.8085 35.846 13.1525 33.9376C12.2233 34.7272 11.2169 36.6668 11.0701 38.7376C11.0634 38.8322 11.0233 38.9213 10.957 38.9891C10.8907 39.0568 10.8024 39.0988 10.708 39.1076C10.6136 39.1163 10.5192 39.0912 10.4415 39.0368C10.3639 38.9824 10.3081 38.9021 10.2841 38.8104C8.91613 33.58 9.80733 30.1088 12.7925 29.028C15.5557 27.268 18.1829 27.2528 20.6009 28.988C20.6889 29.0512 20.7793 29.1099 20.8721 29.164C21.5268 29.5642 22.0885 30.0994 22.5198 30.734C22.9511 31.3686 23.2419 32.088 23.3729 32.844C23.6365 33.6632 23.6769 36.3096 22.8225 38.8352C22.7958 38.9145 22.7448 38.9833 22.6769 39.0321C22.6089 39.0809 22.5274 39.1072 22.4437 39.1072ZM16.8517 28.4912C15.5364 28.5384 14.2632 28.9666 13.1865 29.7236C13.1602 29.7402 13.132 29.7537 13.1025 29.7636C10.3401 30.736 10.2193 34 10.6513 36.6936C11.1313 35.1304 11.9893 33.7264 12.9313 33.1052C13.0002 33.0598 13.0815 33.0368 13.164 33.0393C13.2465 33.0419 13.3262 33.07 13.3921 33.1196C15.9853 35.0728 18.5153 35.4244 21.1265 34.1964C21.217 34.1537 21.3201 34.1465 21.4156 34.1761C21.5111 34.2057 21.5921 34.2701 21.6425 34.3564C22.0387 35.0569 22.3467 35.8038 22.5593 36.58C22.8393 34.8812 22.7429 33.46 22.6089 33.0764C22.6024 33.0578 22.5973 33.0386 22.5937 33.0192C22.4869 32.3703 22.2422 31.7519 21.876 31.2056C21.5099 30.6593 21.0309 30.1979 20.4713 29.8524C20.3569 29.786 20.2452 29.7137 20.1361 29.6356C19.1921 28.9123 18.0408 28.5112 16.8517 28.4912Z" fill="#00C1EC"/>
  <path d="M28.6668 56.0108H4.4C4.29391 56.0108 4.19217 55.9687 4.11716 55.8936C4.04214 55.8186 4 55.7169 4 55.6108V54.3384C4.00265 52.0454 4.91472 49.8472 6.53612 48.2258C8.15753 46.6045 10.3558 45.6925 12.6488 45.69C12.7337 45.69 12.8168 45.7138 12.8888 45.7588C13.9616 46.5 15.2349 46.8965 16.5388 46.8952C17.8445 46.8931 19.1191 46.4966 20.1956 45.7576C20.2615 45.7135 20.3391 45.6899 20.4184 45.69C22.7114 45.6925 24.9097 46.6045 26.5311 48.2258C28.1525 49.8472 29.0646 52.0454 29.0672 54.3384V55.6108C29.0672 55.6634 29.0568 55.7154 29.0367 55.764C29.0166 55.8125 28.9871 55.8566 28.9499 55.8938C28.9127 55.9309 28.8686 55.9604 28.82 55.9805C28.7714 56.0005 28.7194 56.0109 28.6668 56.0108ZM4.8 55.2108H28.2668V54.3384C28.2643 52.2781 27.4528 50.3012 26.007 48.8334C24.5612 47.3656 22.5968 46.5244 20.5368 46.4908C19.352 47.2763 17.9621 47.6952 16.5406 47.6952C15.1191 47.6952 13.7292 47.2763 12.5444 46.4908C10.4821 46.5214 8.51453 47.3613 7.06581 48.8293C5.6171 50.2974 4.80334 52.2759 4.8 54.3384V55.2108Z" fill="#00C1EC"/>
  <path d="M16.5553 45.596C13.5469 45.596 10.9649 42.7912 10.2753 38.7748C10.2574 38.6702 10.2817 38.5628 10.343 38.4761C10.4043 38.3895 10.4975 38.3307 10.6021 38.3128C10.7067 38.2949 10.8141 38.3192 10.9008 38.3805C10.9874 38.4418 11.0462 38.535 11.0641 38.6396C11.6849 42.2644 13.9441 44.796 16.5537 44.796C19.1633 44.796 21.4285 42.2644 22.0497 38.64C22.0579 38.5876 22.0764 38.5373 22.1041 38.4922C22.1319 38.447 22.1684 38.4078 22.2115 38.3768C22.2545 38.3459 22.3033 38.3238 22.355 38.3119C22.4067 38.2999 22.4602 38.2984 22.5125 38.3074C22.5648 38.3164 22.6148 38.3356 22.6595 38.3641C22.7043 38.3925 22.7429 38.4296 22.7732 38.4731C22.8035 38.5167 22.8249 38.5658 22.836 38.6177C22.8471 38.6695 22.8478 38.7231 22.8381 38.7752C22.1501 42.7912 19.5665 45.596 16.5553 45.596Z" fill="#00C1EC"/>
  <path d="M9.96055 56.0108C9.85446 56.0108 9.75272 55.9687 9.67771 55.8936C9.60269 55.8186 9.56055 55.7169 9.56055 55.6108V51.4944C9.56055 51.3883 9.60269 51.2866 9.67771 51.2116C9.75272 51.1365 9.85446 51.0944 9.96055 51.0944C10.0666 51.0944 10.1684 51.1365 10.2434 51.2116C10.3184 51.2866 10.3605 51.3883 10.3605 51.4944V55.6108C10.3605 55.7169 10.3184 55.8186 10.2434 55.8936C10.1684 55.9687 10.0666 56.0108 9.96055 56.0108Z" fill="#00C1EC"/>
  <path d="M23.107 56.0108C23.0009 56.0108 22.8992 55.9687 22.8242 55.8936C22.7492 55.8186 22.707 55.7169 22.707 55.6108V51.4944C22.707 51.3883 22.7492 51.2866 22.8242 51.2116C22.8992 51.1365 23.0009 51.0944 23.107 51.0944C23.2131 51.0944 23.3149 51.1365 23.3899 51.2116C23.4649 51.2866 23.507 51.3883 23.507 51.4944V55.6108C23.507 55.7169 23.4649 55.8186 23.3899 55.8936C23.3149 55.9687 23.2131 56.0108 23.107 56.0108Z" fill="#00C1EC"/>
  <path d="M12.663 46.4888C12.5932 46.4887 12.5246 46.4703 12.4641 46.4354C12.4035 46.4006 12.3532 46.3505 12.318 46.2901C12.2829 46.2298 12.2641 46.1612 12.2637 46.0914C12.2632 46.0216 12.2811 45.9528 12.3154 45.892L13.3306 44.0952C13.3565 44.0495 13.3911 44.0093 13.4325 43.9769C13.4739 43.9446 13.5213 43.9207 13.5719 43.9067C13.6225 43.8926 13.6754 43.8887 13.7276 43.8951C13.7797 43.9015 13.8301 43.9181 13.8758 43.944C13.9216 43.9699 13.9617 44.0045 13.9941 44.0459C14.0264 44.0873 14.0503 44.1347 14.0643 44.1853C14.0784 44.2359 14.0823 44.2888 14.0759 44.341C14.0695 44.3931 14.0529 44.4435 14.027 44.4892L13.0118 46.2856C12.9769 46.3474 12.9262 46.3987 12.8649 46.4344C12.8037 46.4701 12.734 46.4889 12.663 46.4888Z" fill="#00C1EC"/>
  <path d="M20.4471 46.4888C20.3762 46.4889 20.3065 46.4701 20.2452 46.4344C20.1839 46.3987 20.1332 46.3474 20.0983 46.2856L19.0831 44.4892C19.0572 44.4435 19.0406 44.3931 19.0342 44.341C19.0278 44.2888 19.0318 44.2359 19.0458 44.1853C19.0598 44.1347 19.0837 44.0873 19.1161 44.0459C19.1484 44.0045 19.1886 43.9699 19.2343 43.944C19.28 43.9181 19.3304 43.9015 19.3826 43.8951C19.4347 43.8887 19.4876 43.8926 19.5382 43.9067C19.5889 43.9207 19.6362 43.9446 19.6776 43.9769C19.719 44.0093 19.7536 44.0495 19.7795 44.0952L20.7947 45.892C20.8291 45.9528 20.8469 46.0216 20.8465 46.0914C20.846 46.1612 20.8273 46.2298 20.7921 46.2901C20.757 46.3505 20.7066 46.4006 20.6461 46.4354C20.5856 46.4703 20.517 46.4887 20.4471 46.4888Z" fill="#00C1EC"/>
  <path d="M55.6 34.84H23.1364C23.0303 34.84 22.9286 34.7979 22.8536 34.7228C22.7785 34.6478 22.7364 34.5461 22.7364 34.44C22.7364 34.3339 22.7785 34.2322 22.8536 34.1572C22.9286 34.0821 23.0303 34.04 23.1364 34.04H55.2V4.7892H13.05V29.514C13.05 29.6201 13.0079 29.7218 12.9328 29.7968C12.8578 29.8719 12.7561 29.914 12.65 29.914C12.5439 29.914 12.4422 29.8719 12.3672 29.7968C12.2921 29.7218 12.25 29.6201 12.25 29.514V4.3892C12.25 4.28311 12.2921 4.18137 12.3672 4.10636C12.4422 4.03134 12.5439 3.9892 12.65 3.9892H55.6C55.7061 3.9892 55.8078 4.03134 55.8828 4.10636C55.9579 4.18137 56 4.28311 56 4.3892V34.44C56 34.5461 55.9579 34.6478 55.8828 34.7228C55.8078 34.7979 55.7061 34.84 55.6 34.84Z" fill="#00C1EC"/>
  <path d="M53.4315 32.6724H22.8127C22.7066 32.6724 22.6049 32.6303 22.5299 32.5552C22.4549 32.4802 22.4127 32.3785 22.4127 32.2724C22.4127 32.1663 22.4549 32.0646 22.5299 31.9896C22.6049 31.9145 22.7066 31.8724 22.8127 31.8724H53.0315V6.96H15.2199V28.464C15.2199 28.5701 15.1778 28.6718 15.1028 28.7468C15.0278 28.8219 14.926 28.864 14.8199 28.864C14.7138 28.864 14.6121 28.8219 14.5371 28.7468C14.4621 28.6718 14.4199 28.5701 14.4199 28.464V6.56C14.4199 6.45391 14.4621 6.35217 14.5371 6.27716C14.6121 6.20214 14.7138 6.16 14.8199 6.16H53.4315C53.5376 6.16 53.6393 6.20214 53.7144 6.27716C53.7894 6.35217 53.8315 6.45391 53.8315 6.56V32.2724C53.8315 32.3785 53.7894 32.4802 53.7144 32.5552C53.6393 32.6303 53.5376 32.6724 53.4315 32.6724Z" fill="#00C1EC"/>
  <path d="M25.6248 30.6136H22.5248C22.4187 30.6136 22.317 30.5715 22.242 30.4964C22.1669 30.4214 22.1248 30.3197 22.1248 30.2136V20.5688C22.1248 20.4627 22.1669 20.361 22.242 20.286C22.317 20.2109 22.4187 20.1688 22.5248 20.1688H25.6248C25.7309 20.1688 25.8326 20.2109 25.9076 20.286C25.9827 20.361 26.0248 20.4627 26.0248 20.5688V30.2136C26.0248 30.3197 25.9827 30.4214 25.9076 30.4964C25.8326 30.5715 25.7309 30.6136 25.6248 30.6136ZM22.9248 29.8136H25.2248V20.9688H22.9248V29.8136Z" fill="#00C1EC"/>
  <path d="M32.3242 30.6136H29.2242C29.1181 30.6136 29.0164 30.5715 28.9414 30.4964C28.8664 30.4214 28.8242 30.3197 28.8242 30.2136V18.76C28.8242 18.6539 28.8664 18.5522 28.9414 18.4772C29.0164 18.4021 29.1181 18.36 29.2242 18.36H32.3242C32.4303 18.36 32.532 18.4021 32.6071 18.4772C32.6821 18.5522 32.7242 18.6539 32.7242 18.76V30.2136C32.7242 30.3197 32.6821 30.4214 32.6071 30.4964C32.532 30.5715 32.4303 30.6136 32.3242 30.6136ZM29.6242 29.8136H31.9242V19.16H29.6242V29.8136Z" fill="#00C1EC"/>
  <path d="M39.0254 30.6136H35.9254C35.8193 30.6136 35.7176 30.5715 35.6426 30.4964C35.5675 30.4214 35.5254 30.3197 35.5254 30.2136V15.56C35.5254 15.4539 35.5675 15.3522 35.6426 15.2772C35.7176 15.2021 35.8193 15.16 35.9254 15.16H39.0254C39.1315 15.16 39.2332 15.2021 39.3082 15.2772C39.3833 15.3522 39.4254 15.4539 39.4254 15.56V30.2136C39.4254 30.3197 39.3833 30.4214 39.3082 30.4964C39.2332 30.5715 39.1315 30.6136 39.0254 30.6136ZM36.3254 29.8136H38.6254V15.96H36.3254V29.8136Z" fill="#00C1EC"/>
  <path d="M45.7248 30.6136H42.6248C42.5187 30.6136 42.417 30.5715 42.342 30.4964C42.2669 30.4214 42.2248 30.3197 42.2248 30.2136V14.6536C42.2248 14.5475 42.2669 14.4458 42.342 14.3708C42.417 14.2957 42.5187 14.2536 42.6248 14.2536H45.7248C45.8309 14.2536 45.9326 14.2957 46.0076 14.3708C46.0827 14.4458 46.1248 14.5475 46.1248 14.6536V30.2136C46.1248 30.3197 46.0827 30.4214 46.0076 30.4964C45.9326 30.5715 45.8309 30.6136 45.7248 30.6136ZM43.0248 29.8136H45.3248V15.0536H43.0248V29.8136Z" fill="#00C1EC"/>
  <path d="M23.651 18.2756C23.557 18.2758 23.466 18.243 23.3938 18.1828C23.3217 18.1226 23.273 18.039 23.2563 17.9465C23.2397 17.854 23.2561 17.7587 23.3027 17.6771C23.3494 17.5955 23.4232 17.533 23.5114 17.5004L44.0361 9.8508C44.0854 9.83242 44.1377 9.82391 44.1902 9.82576C44.2427 9.82761 44.2944 9.83978 44.3422 9.86158C44.39 9.88339 44.433 9.91439 44.4688 9.95283C44.5047 9.99127 44.5326 10.0364 44.5509 10.0856C44.5693 10.1348 44.5778 10.1872 44.576 10.2397C44.5741 10.2922 44.562 10.3438 44.5402 10.3916C44.5184 10.4394 44.4874 10.4825 44.4489 10.5183C44.4105 10.5541 44.3654 10.582 44.3162 10.6004L23.7906 18.25C23.7459 18.2668 23.6986 18.2755 23.651 18.2756Z" fill="#00C1EC"/>
  <path d="M42.6248 13.2508C42.5542 13.2508 42.4849 13.2322 42.4239 13.1967C42.3628 13.1613 42.3123 13.1103 42.2773 13.049C42.2423 12.9877 42.2242 12.9183 42.2247 12.8477C42.2253 12.7771 42.2445 12.7079 42.2804 12.6472L43.5704 10.4632L41.12 9.734C41.0183 9.70371 40.9328 9.63427 40.8823 9.54095C40.8319 9.44763 40.8205 9.33808 40.8508 9.2364C40.8811 9.13471 40.9505 9.04923 41.0438 8.99874C41.1372 8.94826 41.2467 8.93691 41.3484 8.9672L44.29 9.8424C44.3482 9.85974 44.4017 9.89009 44.4464 9.93117C44.4911 9.97224 44.5259 10.023 44.5481 10.0795C44.5703 10.136 44.5793 10.1968 44.5745 10.2573C44.5697 10.3178 44.5512 10.3765 44.5204 10.4288L42.9704 13.054C42.935 13.1141 42.8844 13.1639 42.8238 13.1984C42.7632 13.2329 42.6946 13.251 42.6248 13.2508Z" fill="#00C1EC"/>
  <path d="M16.8199 25.2556C16.7138 25.2556 16.6121 25.2135 16.5371 25.1384C16.4621 25.0634 16.4199 24.9617 16.4199 24.8556V21.7888C16.4199 21.6827 16.4621 21.581 16.5371 21.506C16.6121 21.4309 16.7138 21.3888 16.8199 21.3888C16.926 21.3888 17.0278 21.4309 17.1028 21.506C17.1778 21.581 17.2199 21.6827 17.2199 21.7888V24.8556C17.2199 24.9617 17.1778 25.0634 17.1028 25.1384C17.0278 25.2135 16.926 25.2556 16.8199 25.2556Z" fill="#00C1EC"/>
  <path d="M16.8199 19.8556C16.7138 19.8556 16.6121 19.8135 16.5371 19.7384C16.4621 19.6634 16.4199 19.5617 16.4199 19.4556V9.7892C16.4199 9.68311 16.4621 9.58137 16.5371 9.50636C16.6121 9.43134 16.7138 9.3892 16.8199 9.3892C16.926 9.3892 17.0278 9.43134 17.1028 9.50636C17.1778 9.58137 17.2199 9.68311 17.2199 9.7892V19.4556C17.2199 19.5617 17.1778 19.6634 17.1028 19.7384C17.0278 19.8135 16.926 19.8556 16.8199 19.8556Z" fill="#00C1EC"/>
</svg>