<svg xmlns="http://www.w3.org/2000/svg" width="60" height="60" viewBox="0 0 60 60" fill="none">
  <path d="M50.4544 47.8604H4.4C4.29391 47.8604 4.19217 47.8183 4.11716 47.7432C4.04214 47.6682 4 47.5665 4 47.4604V18.2024C4 18.0963 4.04214 17.9946 4.11716 17.9196C4.19217 17.8445 4.29391 17.8024 4.4 17.8024H50.4544C50.5605 17.8024 50.6622 17.8445 50.7372 17.9196C50.8123 17.9946 50.8544 18.0963 50.8544 18.2024V47.4604C50.8544 47.5665 50.8123 47.6682 50.7372 47.7432C50.6622 47.8183 50.5605 47.8604 50.4544 47.8604ZM4.8 47.0604H50.0544V18.6024H4.8V47.0604Z" fill="#131313"/>
  <path d="M53.0283 45.0292H50.4567C50.3506 45.0292 50.2489 44.9871 50.1739 44.912C50.0989 44.837 50.0567 44.7353 50.0567 44.6292C50.0567 44.5231 50.0989 44.4214 50.1739 44.3464C50.2489 44.2713 50.3506 44.2292 50.4567 44.2292H52.6283V15.7708H7.37031V18.2024C7.37031 18.3085 7.32817 18.4102 7.25316 18.4852C7.17814 18.5603 7.0764 18.6024 6.97031 18.6024C6.86423 18.6024 6.76249 18.5603 6.68747 18.4852C6.61246 18.4102 6.57031 18.3085 6.57031 18.2024V15.3708C6.57031 15.2647 6.61246 15.163 6.68747 15.088C6.76249 15.0129 6.86423 14.9708 6.97031 14.9708H53.0283C53.1344 14.9708 53.2361 15.0129 53.3112 15.088C53.3862 15.163 53.4283 15.2647 53.4283 15.3708V44.6292C53.4283 44.7353 53.3862 44.837 53.3112 44.912C53.2361 44.9871 53.1344 45.0292 53.0283 45.0292Z" fill="#131313"/>
  <path d="M55.599 42.1976H53.027C52.9209 42.1976 52.8192 42.1555 52.7442 42.0804C52.6692 42.0054 52.627 41.9037 52.627 41.7976C52.627 41.6915 52.6692 41.5898 52.7442 41.5148C52.8192 41.4397 52.9209 41.3976 53.027 41.3976H55.199V12.9396H9.94063V15.3708C9.94063 15.4769 9.89848 15.5786 9.82347 15.6536C9.74845 15.7287 9.64671 15.7708 9.54063 15.7708C9.43454 15.7708 9.3328 15.7287 9.25778 15.6536C9.18277 15.5786 9.14063 15.4769 9.14063 15.3708V12.5396C9.14063 12.4335 9.18277 12.3318 9.25778 12.2568C9.3328 12.1817 9.43454 12.1396 9.54063 12.1396H55.599C55.7051 12.1396 55.8069 12.1817 55.8819 12.2568C55.9569 12.3318 55.999 12.4335 55.999 12.5396V41.7976C55.999 41.9037 55.9569 42.0054 55.8819 42.0804C55.8069 42.1555 55.7051 42.1976 55.599 42.1976Z" fill="#131313"/>
  <path d="M44.0292 45.0292H10.8256C10.7195 45.0292 10.6178 44.9871 10.5428 44.912C10.4678 44.837 10.4256 44.7353 10.4256 44.6292C10.4247 43.7825 10.0879 42.9707 9.48922 42.3719C8.89052 41.7731 8.07877 41.4363 7.23203 41.4352C7.12595 41.4352 7.0242 41.3931 6.94919 41.318C6.87417 41.243 6.83203 41.1413 6.83203 41.0352V24.6276C6.83203 24.5215 6.87417 24.4198 6.94919 24.3448C7.0242 24.2697 7.12595 24.2276 7.23203 24.2276C8.07877 24.2265 8.89052 23.8897 9.48922 23.2909C10.0879 22.6921 10.4247 21.8803 10.4256 21.0336C10.4256 20.9275 10.4678 20.8258 10.5428 20.7508C10.6178 20.6757 10.7195 20.6336 10.8256 20.6336H44.0292C44.1353 20.6336 44.2371 20.6757 44.3121 20.7508C44.3871 20.8258 44.4292 20.9275 44.4292 21.0336C44.4302 21.8805 44.7671 22.6924 45.3659 23.2912C45.9648 23.89 46.7768 24.2268 47.6236 24.2276C47.7297 24.2276 47.8315 24.2697 47.9065 24.3448C47.9815 24.4198 48.0236 24.5215 48.0236 24.6276V41.0352C48.0236 41.1413 47.9815 41.243 47.9065 41.318C47.8315 41.3931 47.7297 41.4352 47.6236 41.4352C46.7768 41.436 45.9648 41.7728 45.3659 42.3716C44.7671 42.9704 44.4302 43.7823 44.4292 44.6292C44.4292 44.7353 44.3871 44.837 44.3121 44.912C44.2371 44.9871 44.1353 45.0292 44.0292 45.0292ZM11.206 44.2292H43.6492C43.7426 43.3131 44.1492 42.4572 44.8004 41.8061C45.4516 41.1549 46.3075 40.7484 47.2236 40.6552V25.0076C46.3075 24.9144 45.4516 24.5079 44.8004 23.8567C44.1492 23.2056 43.7426 22.3497 43.6492 21.4336H11.206C11.1127 22.3497 10.7062 23.2055 10.0551 23.8566C9.40394 24.5077 8.54811 24.9143 7.63203 25.0076V40.6552C8.54811 40.7485 9.40394 41.1551 10.0551 41.8062C10.7062 42.4573 11.1127 43.3131 11.206 44.2292Z" fill="#131313"/>
  <path d="M15.0208 31.214H11.2652C11.1591 31.214 11.0574 31.1719 10.9824 31.0968C10.9074 31.0218 10.8652 30.9201 10.8652 30.814C10.8652 30.7079 10.9074 30.6062 10.9824 30.5312C11.0574 30.4561 11.1591 30.414 11.2652 30.414H15.0208C15.1269 30.414 15.2287 30.4561 15.3037 30.5312C15.3787 30.6062 15.4208 30.7079 15.4208 30.814C15.4208 30.9201 15.3787 31.0218 15.3037 31.0968C15.2287 31.1719 15.1269 31.214 15.0208 31.214Z" fill="#131313"/>
  <path d="M15.76 33.2312H10.5268C10.4207 33.2312 10.319 33.1891 10.244 33.114C10.1689 33.039 10.1268 32.9373 10.1268 32.8312C10.1268 32.7251 10.1689 32.6234 10.244 32.5484C10.319 32.4733 10.4207 32.4312 10.5268 32.4312H15.76C15.8661 32.4312 15.9678 32.4733 16.0428 32.5484C16.1179 32.6234 16.16 32.7251 16.16 32.8312C16.16 32.9373 16.1179 33.039 16.0428 33.114C15.9678 33.1891 15.8661 33.2312 15.76 33.2312Z" fill="#131313"/>
  <path d="M15.0208 35.2488H11.2652C11.1591 35.2488 11.0574 35.2067 10.9824 35.1316C10.9074 35.0566 10.8652 34.9549 10.8652 34.8488C10.8652 34.7427 10.9074 34.641 10.9824 34.566C11.0574 34.4909 11.1591 34.4488 11.2652 34.4488H15.0208C15.1269 34.4488 15.2287 34.4909 15.3037 34.566C15.3787 34.641 15.4208 34.7427 15.4208 34.8488C15.4208 34.9549 15.3787 35.0566 15.3037 35.1316C15.2287 35.2067 15.1269 35.2488 15.0208 35.2488Z" fill="#131313"/>
  <path d="M43.5896 31.214H39.8336C39.7275 31.214 39.6258 31.1719 39.5508 31.0968C39.4757 31.0218 39.4336 30.9201 39.4336 30.814C39.4336 30.7079 39.4757 30.6062 39.5508 30.5312C39.6258 30.4561 39.7275 30.414 39.8336 30.414H43.5896C43.6957 30.414 43.7974 30.4561 43.8724 30.5312C43.9475 30.6062 43.9896 30.7079 43.9896 30.814C43.9896 30.9201 43.9475 31.0218 43.8724 31.0968C43.7974 31.1719 43.6957 31.214 43.5896 31.214Z" fill="#131313"/>
  <path d="M44.3277 33.2312H39.0953C38.9892 33.2312 38.8875 33.1891 38.8125 33.114C38.7375 33.039 38.6953 32.9373 38.6953 32.8312C38.6953 32.7251 38.7375 32.6234 38.8125 32.5484C38.8875 32.4733 38.9892 32.4312 39.0953 32.4312H44.3277C44.4338 32.4312 44.5355 32.4733 44.6106 32.5484C44.6856 32.6234 44.7277 32.7251 44.7277 32.8312C44.7277 32.9373 44.6856 33.039 44.6106 33.114C44.5355 33.1891 44.4338 33.2312 44.3277 33.2312Z" fill="#131313"/>
  <path d="M43.5896 35.2488H39.8336C39.7275 35.2488 39.6258 35.2067 39.5508 35.1316C39.4757 35.0566 39.4336 34.9549 39.4336 34.8488C39.4336 34.7427 39.4757 34.641 39.5508 34.566C39.6258 34.4909 39.7275 34.4488 39.8336 34.4488H43.5896C43.6957 34.4488 43.7974 34.4909 43.8724 34.566C43.9475 34.641 43.9896 34.7427 43.9896 34.8488C43.9896 34.9549 43.9475 35.0566 43.8724 35.1316C43.7974 35.2067 43.6957 35.2488 43.5896 35.2488Z" fill="#131313"/>
  <path d="M27.4278 41.6668C25.6803 41.6669 23.972 41.1488 22.5189 40.1779C21.0658 39.2071 19.9333 37.8272 19.2645 36.2127C18.5957 34.5982 18.4206 32.8217 18.7615 31.1077C19.1024 29.3937 19.9439 27.8194 21.1795 26.5836C22.4152 25.3479 23.9896 24.5064 25.7035 24.1654C27.4175 23.8244 29.194 23.9994 30.8085 24.6681C32.4231 25.3369 33.803 26.4694 34.7739 27.9224C35.7448 29.3754 36.263 31.0837 36.263 32.8312C36.2602 35.1736 35.3285 37.4193 33.6722 39.0757C32.0159 40.7321 29.7702 41.6639 27.4278 41.6668ZM27.4278 24.796C25.8385 24.7959 24.2848 25.2671 22.9633 26.1501C21.6418 27.033 20.6118 28.288 20.0036 29.7563C19.3953 31.2247 19.2361 32.8404 19.5462 34.3992C19.8562 35.958 20.6215 37.3898 21.7454 38.5136C22.8692 39.6375 24.301 40.4028 25.8598 40.7128C27.4186 41.0229 29.0343 40.8637 30.5027 40.2555C31.971 39.6472 33.226 38.6172 34.1089 37.2957C34.9919 35.9742 35.4631 34.4205 35.463 32.8312C35.4605 30.7009 34.6131 28.6586 33.1067 27.1523C31.6004 25.6459 29.5581 24.7985 27.4278 24.796Z" fill="#131313"/>
  <path d="M27.4267 38.3748C26.6388 38.374 25.8835 38.0606 25.3264 37.5035C24.7693 36.9464 24.4559 36.1911 24.4551 35.4032C24.4551 35.2971 24.4972 35.1954 24.5722 35.1204C24.6472 35.0453 24.749 35.0032 24.8551 35.0032C24.9612 35.0032 25.0629 35.0453 25.1379 35.1204C25.2129 35.1954 25.2551 35.2971 25.2551 35.4032C25.2552 35.8327 25.3826 36.2525 25.6213 36.6096C25.8599 36.9666 26.1991 37.2449 26.5959 37.4092C26.9927 37.5735 27.4294 37.6165 27.8506 37.5326C28.2718 37.4488 28.6587 37.2419 28.9624 36.9382C29.266 36.6345 29.4728 36.2476 29.5566 35.8263C29.6403 35.4051 29.5973 34.9685 29.4329 34.5717C29.2686 34.1749 28.9902 33.8358 28.6331 33.5972C28.276 33.3586 27.8562 33.2312 27.4267 33.2312C26.8389 33.231 26.2643 33.0566 25.7757 32.7299C25.2871 32.4032 24.9063 31.939 24.6814 31.3959C24.4566 30.8528 24.3979 30.2552 24.5127 29.6788C24.6275 29.1023 24.9107 28.5728 25.3264 28.1573C25.7421 27.7417 26.2717 27.4588 26.8482 27.3442C27.4247 27.2296 28.0223 27.2886 28.5653 27.5136C29.1083 27.7387 29.5724 28.1196 29.8989 28.6084C30.2253 29.0972 30.3996 29.6718 30.3995 30.2596C30.3995 30.3657 30.3573 30.4674 30.2823 30.5424C30.2073 30.6175 30.1056 30.6596 29.9995 30.6596C29.8934 30.6596 29.7917 30.6175 29.7166 30.5424C29.6416 30.4674 29.5995 30.3657 29.5995 30.2596C29.5995 29.8301 29.4721 29.4102 29.2335 29.0531C28.9949 28.696 28.6557 28.4177 28.2589 28.2533C27.8621 28.0889 27.4255 28.0459 27.0042 28.1297C26.583 28.2135 26.196 28.4203 25.8923 28.7241C25.5886 29.0278 25.3818 29.4147 25.298 29.8359C25.2142 30.2572 25.2572 30.6938 25.4216 31.0906C25.5859 31.4874 25.8643 31.8266 26.2214 32.0652C26.5785 32.3038 26.9984 32.4312 27.4279 32.4312C28.2101 32.4403 28.9572 32.7574 29.5071 33.3137C30.057 33.87 30.3654 34.6208 30.3654 35.403C30.3654 36.1853 30.057 36.936 29.5071 37.4923C28.9572 38.0486 28.2101 38.3657 27.4279 38.3748H27.4267Z" fill="#131313"/>
  <path d="M27.4272 39.0124C27.3211 39.0124 27.2194 38.9703 27.1444 38.8952C27.0693 38.8202 27.0272 38.7185 27.0272 38.6124V27.0524C27.0272 26.9463 27.0693 26.8446 27.1444 26.7696C27.2194 26.6945 27.3211 26.6524 27.4272 26.6524C27.5333 26.6524 27.635 26.6945 27.71 26.7696C27.7851 26.8446 27.8272 26.9463 27.8272 27.0524V38.6124C27.8272 38.7185 27.7851 38.8202 27.71 38.8952C27.635 38.9703 27.5333 39.0124 27.4272 39.0124Z" fill="#131313"/>
</svg>