<svg width="34" height="46" viewBox="0 0 34 46" fill="none" xmlns="http://www.w3.org/2000/svg">
<g id="Group 467">
<g id="Ellipse 199">
<mask id="path-1-inside-1_244_994" fill="white">
<path d="M32.8486 32.2401C33.3831 32.3157 33.8831 31.949 33.9337 31.4116C34.2686 27.8544 33.3295 24.2831 31.2494 21.2742C28.9812 17.9931 25.5137 15.6085 21.5032 14.5716C17.4926 13.5346 13.2173 13.9175 9.4865 15.6475C5.75566 17.3776 2.82812 20.3349 1.25797 23.9597C-0.312172 27.5845 -0.415977 31.6253 0.966206 35.3172C2.34839 39.0092 5.12065 42.0962 8.7583 43.9939C12.3959 45.8917 16.6466 46.4685 20.7057 45.6152C24.4168 44.8351 27.7324 42.909 30.1338 40.1587C30.5007 39.7386 30.396 39.0997 29.9347 38.7863C29.5094 38.4974 28.935 38.593 28.5967 38.9801C26.4758 41.4063 23.549 43.1055 20.2735 43.794C16.6878 44.5478 12.9329 44.0382 9.71954 42.3618C6.50615 40.6854 4.05722 37.9585 2.83624 34.6971C1.61526 31.4357 1.70696 27.8662 3.09398 24.6642C4.481 21.4621 7.06709 18.8498 10.3628 17.3215C13.6585 15.7932 17.4352 15.455 20.978 16.371C24.5207 17.287 27.5838 19.3935 29.5875 22.2919C31.3961 24.9081 32.2282 28.0057 31.9718 31.0988C31.9261 31.6506 32.3004 32.1627 32.8486 32.2401Z"/>
</mask>
<path d="M32.8486 32.2401C33.3831 32.3157 33.8831 31.949 33.9337 31.4116C34.2686 27.8544 33.3295 24.2831 31.2494 21.2742C28.9812 17.9931 25.5137 15.6085 21.5032 14.5716C17.4926 13.5346 13.2173 13.9175 9.4865 15.6475C5.75566 17.3776 2.82812 20.3349 1.25797 23.9597C-0.312172 27.5845 -0.415977 31.6253 0.966206 35.3172C2.34839 39.0092 5.12065 42.0962 8.7583 43.9939C12.3959 45.8917 16.6466 46.4685 20.7057 45.6152C24.4168 44.8351 27.7324 42.909 30.1338 40.1587C30.5007 39.7386 30.396 39.0997 29.9347 38.7863C29.5094 38.4974 28.935 38.593 28.5967 38.9801C26.4758 41.4063 23.549 43.1055 20.2735 43.794C16.6878 44.5478 12.9329 44.0382 9.71954 42.3618C6.50615 40.6854 4.05722 37.9585 2.83624 34.6971C1.61526 31.4357 1.70696 27.8662 3.09398 24.6642C4.481 21.4621 7.06709 18.8498 10.3628 17.3215C13.6585 15.7932 17.4352 15.455 20.978 16.371C24.5207 17.287 27.5838 19.3935 29.5875 22.2919C31.3961 24.9081 32.2282 28.0057 31.9718 31.0988C31.9261 31.6506 32.3004 32.1627 32.8486 32.2401Z" fill="#0E72E8" stroke="#0E72E8" strokeWidth="2" stroke-linejoin="round" mask="url(#path-1-inside-1_244_994)"/>
</g>
<path id="Vector 95" d="M11.5 43.5C11.5376 42.587 9.98665 40.2264 8.72468 38.561C7.98527 37.5852 8.68053 36.6476 9.38311 35.8226C10.1276 34.9484 9.72443 33.9496 8.69179 33.4474L5.96606 32.122M9.2764 17.0976C10.6285 17.828 12.4936 19.3995 11.5922 26.85C11.3668 28.8222 13.4532 29.05 14.2419 29.05C14.5982 29.05 17.4516 29.5519 17.0005 31.8C16.4488 34.55 22.5178 33.45 20.3109 40.6M21.6204 19.3617C21.395 20.4208 21.6429 22.9554 24.4373 24.6208C27.2316 26.2862 26.2025 30.1356 25.3387 31.8521C24.888 33.2765 26.7958 36.6075 29.5 39.5M23.6485 4.78947C21.9994 5.57174 20.6329 7.08123 19.5651 8.73383M10.1274 4.78947C11.3596 5.47697 13.2546 6.87016 14.7429 8.73383M15.5359 4.78947C15.3105 3.83991 14.2063 1.94077 11.5922 1.94077C8.32459 1.94077 7.64854 1.61208 6.97248 1.06425C6.29642 0.516421 4.94431 3.58425 5.9584 5.99469C6.97248 8.40513 10.3444 11.473 14.7429 8.73383M14.7429 8.73383C16.0219 10.3353 17.1133 11.9555 17.1133 14.1025C17.4877 12.7273 18.2401 10.7847 19.5651 8.73383M23.4232 10.0486C25.0382 9.64688 28.2007 7.85731 27.9302 3.91295C27.5922 -1.01749 27.2542 2.26947 24.4373 2.26947C21.6204 2.26947 16.7212 2.59817 19.5651 8.73383" stroke="#0E72E8" strokeWidth="2" stroke-linecap="round"/>
</g>
</svg>
