<svg xmlns="http://www.w3.org/2000/svg" width="60" height="60" viewBox="0 0 60 60" fill="none">
  <path d="M16.6578 40.249V46.6665C16.6589 47.5503 17.0104 48.3976 17.6354 49.0225C18.2603 49.6474 19.1076 49.9989 19.9914 50H46.6664C47.5502 49.9989 48.3975 49.6474 49.0224 49.0225C49.6474 48.3976 49.9989 47.5503 50 46.6665V29.9993C49.9974 29.1579 49.6762 28.3486 49.101 27.7345C48.5258 27.1203 47.7392 26.7468 46.8997 26.6892C47.2359 26.0604 47.3621 25.3406 47.2597 24.635C47.1574 23.9294 46.832 23.2751 46.331 22.7677L37.841 14.2728L37.837 14.2654H37.831L34.5433 10.974C33.9184 10.3503 33.0714 10 32.1885 10C31.3055 10 30.4586 10.3503 29.8336 10.974L10.9707 29.8433C10.3488 30.4716 10 31.3198 10 32.2037C10 33.0877 10.3488 33.9359 10.9707 34.5641L16.6578 40.249ZM34.5387 12.8547L36.4222 14.7395L24.5018 26.6659H20.7308L34.5387 12.8547ZM16.6638 34.5035L14.7303 36.4369L12.8461 34.5528L16.6638 30.7327V34.5035ZM15.6731 37.3796L16.6638 36.3889V38.3703L15.6731 37.3796ZM48.6665 29.9993V46.6665C48.6665 47.197 48.4558 47.7057 48.0807 48.0808C47.7056 48.4559 47.1969 48.6666 46.6664 48.6666H19.9974C19.467 48.6666 18.9582 48.4559 18.5831 48.0808C18.208 47.7057 17.9973 47.197 17.9973 46.6665V29.9993C17.9973 29.4689 18.208 28.9601 18.5831 28.585C18.9582 28.21 19.467 27.9992 19.9974 27.9992H46.6664C47.1969 27.9992 47.7056 28.21 48.0807 28.585C48.4558 28.9601 48.6665 29.4689 48.6665 29.9993ZM45.3883 26.5412L45.2663 26.6659H26.3866L37.3649 15.6828L45.3863 23.7084C45.7603 24.0848 45.9705 24.5938 45.9708 25.1244C45.9712 25.655 45.7618 26.1643 45.3883 26.5412ZM11.9147 30.784L30.7764 11.9167C31.1562 11.5537 31.6612 11.3508 32.1867 11.35C32.7121 11.3493 33.2177 11.5508 33.5986 11.9127L18.448 27.0659C17.8586 27.3782 17.3764 27.8601 17.0638 28.4493L11.9047 33.6088C11.5363 33.2303 11.3309 32.7225 11.3328 32.1943C11.3347 31.6662 11.5436 31.1598 11.9147 30.784Z" fill="#00CB71"/>
  <path d="M20.4 35H24.6C24.9713 35 25.3274 34.8683 25.5899 34.6339C25.8525 34.3995 26 34.0815 26 33.75V31.25C26 30.9185 25.8525 30.6005 25.5899 30.3661C25.3274 30.1317 24.9713 30 24.6 30H20.4C20.0287 30 19.6726 30.1317 19.4101 30.3661C19.1475 30.6005 19 30.9185 19 31.25V33.75C19 34.0815 19.1475 34.3995 19.4101 34.6339C19.6726 34.8683 20.0287 35 20.4 35ZM20 31H25V34H20V31Z" fill="#00CB71"/>
  <path d="M19.5 39C19.6326 39 19.7598 38.9473 19.8536 38.8536C19.9473 38.7598 20 38.6326 20 38.5V37.5C20 37.3674 19.9473 37.2402 19.8536 37.1464C19.7598 37.0527 19.6326 37 19.5 37C19.3674 37 19.2402 37.0527 19.1464 37.1464C19.0527 37.2402 19 37.3674 19 37.5V38.5C19 38.6326 19.0527 38.7598 19.1464 38.8536C19.2402 38.9473 19.3674 39 19.5 39Z" fill="#00CB71"/>
  <path d="M21.5 37C21.3674 37 21.2402 37.0527 21.1464 37.1464C21.0527 37.2402 21 37.3674 21 37.5V38.5C21 38.6326 21.0527 38.7598 21.1464 38.8536C21.2402 38.9473 21.3674 39 21.5 39C21.6326 39 21.7598 38.9473 21.8536 38.8536C21.9473 38.7598 22 38.6326 22 38.5V37.5C22 37.3674 21.9473 37.2402 21.8536 37.1464C21.7598 37.0527 21.6326 37 21.5 37Z" fill="#00CB71"/>
  <path d="M23 37.5V38.5C23 38.6326 23.0527 38.7598 23.1464 38.8536C23.2402 38.9473 23.3674 39 23.5 39C23.6326 39 23.7598 38.9473 23.8536 38.8536C23.9473 38.7598 24 38.6326 24 38.5V37.5C24 37.3674 23.9473 37.2402 23.8536 37.1464C23.7598 37.0527 23.6326 37 23.5 37C23.3674 37 23.2402 37.0527 23.1464 37.1464C23.0527 37.2402 23 37.3674 23 37.5Z" fill="#00CB71"/>
  <path d="M25.5 37C25.3674 37 25.2402 37.0527 25.1464 37.1464C25.0527 37.2402 25 37.3674 25 37.5V38.5C25 38.6326 25.0527 38.7598 25.1464 38.8536C25.2402 38.9473 25.3674 39 25.5 39C25.6326 39 25.7598 38.9473 25.8536 38.8536C25.9473 38.7598 26 38.6326 26 38.5V37.5C26 37.3674 25.9473 37.2402 25.8536 37.1464C25.7598 37.0527 25.6326 37 25.5 37Z" fill="#00CB71"/>
  <path d="M27.5 39C27.6326 39 27.7598 38.9473 27.8536 38.8536C27.9473 38.7598 28 38.6326 28 38.5V37.5C28 37.3674 27.9473 37.2402 27.8536 37.1464C27.7598 37.0527 27.6326 37 27.5 37C27.3674 37 27.2402 37.0527 27.1464 37.1464C27.0527 37.2402 27 37.3674 27 37.5V38.5C27 38.6326 27.0527 38.7598 27.1464 38.8536C27.2402 38.9473 27.3674 39 27.5 39Z" fill="#00CB71"/>
  <path d="M31.5 37C31.3674 37 31.2402 37.0527 31.1464 37.1464C31.0527 37.2402 31 37.3674 31 37.5V38.5C31 38.6326 31.0527 38.7598 31.1464 38.8536C31.2402 38.9473 31.3674 39 31.5 39C31.6326 39 31.7598 38.9473 31.8536 38.8536C31.9473 38.7598 32 38.6326 32 38.5V37.5C32 37.3674 31.9473 37.2402 31.8536 37.1464C31.7598 37.0527 31.6326 37 31.5 37Z" fill="#00CB71"/>
  <path d="M33.5 37C33.3674 37 33.2402 37.0527 33.1464 37.1464C33.0527 37.2402 33 37.3674 33 37.5V38.5C33 38.6326 33.0527 38.7598 33.1464 38.8536C33.2402 38.9473 33.3674 39 33.5 39C33.6326 39 33.7598 38.9473 33.8536 38.8536C33.9473 38.7598 34 38.6326 34 38.5V37.5C34 37.3674 33.9473 37.2402 33.8536 37.1464C33.7598 37.0527 33.6326 37 33.5 37Z" fill="#00CB71"/>
  <path d="M35.5 37C35.3674 37 35.2402 37.0527 35.1464 37.1464C35.0527 37.2402 35 37.3674 35 37.5V38.5C35 38.6326 35.0527 38.7598 35.1464 38.8536C35.2402 38.9473 35.3674 39 35.5 39C35.6326 39 35.7598 38.9473 35.8536 38.8536C35.9473 38.7598 36 38.6326 36 38.5V37.5C36 37.3674 35.9473 37.2402 35.8536 37.1464C35.7598 37.0527 35.6326 37 35.5 37Z" fill="#00CB71"/>
  <path d="M37.5 37C37.3674 37 37.2402 37.0527 37.1464 37.1464C37.0527 37.2402 37 37.3674 37 37.5V38.5C37 38.6326 37.0527 38.7598 37.1464 38.8536C37.2402 38.9473 37.3674 39 37.5 39C37.6326 39 37.7598 38.9473 37.8536 38.8536C37.9473 38.7598 38 38.6326 38 38.5V37.5C38 37.3674 37.9473 37.2402 37.8536 37.1464C37.7598 37.0527 37.6326 37 37.5 37Z" fill="#00CB71"/>
  <path d="M22.3333 41H19.6667C19.4899 41 19.3203 41.0527 19.1953 41.1464C19.0702 41.2402 19 41.3674 19 41.5C19 41.6326 19.0702 41.7598 19.1953 41.8536C19.3203 41.9473 19.4899 42 19.6667 42H22.3333C22.5101 42 22.6797 41.9473 22.8047 41.8536C22.9298 41.7598 23 41.6326 23 41.5C23 41.3674 22.9298 41.2402 22.8047 41.1464C22.6797 41.0527 22.5101 41 22.3333 41Z" fill="#00CB71"/>
  <path d="M28.3333 41H25.6667C25.4899 41 25.3203 41.0527 25.1953 41.1464C25.0702 41.2402 25 41.3674 25 41.5C25 41.6326 25.0702 41.7598 25.1953 41.8536C25.3203 41.9473 25.4899 42 25.6667 42H28.3333C28.5101 42 28.6797 41.9473 28.8047 41.8536C28.9298 41.7598 29 41.6326 29 41.5C29 41.3674 28.9298 41.2402 28.8047 41.1464C28.6797 41.0527 28.5101 41 28.3333 41Z" fill="#00CB71"/>
  <path d="M22.3333 43H19.6667C19.4899 43 19.3203 43.0527 19.1953 43.1464C19.0702 43.2402 19 43.3674 19 43.5C19 43.6326 19.0702 43.7598 19.1953 43.8536C19.3203 43.9473 19.4899 44 19.6667 44H22.3333C22.5101 44 22.6797 43.9473 22.8047 43.8536C22.9298 43.7598 23 43.6326 23 43.5C23 43.3674 22.9298 43.2402 22.8047 43.1464C22.6797 43.0527 22.5101 43 22.3333 43Z" fill="#00CB71"/>
  <path d="M28.3333 43H25.6667C25.4899 43 25.3203 43.0527 25.1953 43.1464C25.0702 43.2402 25 43.3674 25 43.5C25 43.6326 25.0702 43.7598 25.1953 43.8536C25.3203 43.9473 25.4899 44 25.6667 44H28.3333C28.5101 44 28.6797 43.9473 28.8047 43.8536C28.9298 43.7598 29 43.6326 29 43.5C29 43.3674 28.9298 43.2402 28.8047 43.1464C28.6797 43.0527 28.5101 43 28.3333 43Z" fill="#00CB71"/>
  <path d="M33.3333 41H30.6667C30.4899 41 30.3203 41.0527 30.1953 41.1464C30.0702 41.2402 30 41.3674 30 41.5C30 41.6326 30.0702 41.7598 30.1953 41.8536C30.3203 41.9473 30.4899 42 30.6667 42H33.3333C33.5101 42 33.6797 41.9473 33.8047 41.8536C33.9298 41.7598 34 41.6326 34 41.5C34 41.3674 33.9298 41.2402 33.8047 41.1464C33.6797 41.0527 33.5101 41 33.3333 41Z" fill="#00CB71"/>
</svg>