<svg xmlns="http://www.w3.org/2000/svg" width="28" height="28" viewBox="0 0 28 28" fill="none">
  <path d="M19.9916 7H18.5553C18.3996 7 18.2734 7.22387 18.2734 7.5C18.2734 7.77613 18.3996 8 18.5553 8H19.9916C20.1472 8 20.2734 7.7762 20.2734 7.5C20.2734 7.22387 20.1472 7 19.9916 7Z" fill="#404040"/>
  <path d="M15.9574 7H8.5895C8.41495 7 8.27344 7.22387 8.27344 7.5C8.27344 7.77613 8.41495 8 8.5895 8H15.9574C16.1319 8 16.2734 7.7762 16.2734 7.5C16.2734 7.22387 16.1319 7 15.9574 7Z" fill="#404040"/>
  <path d="M19.9916 10H18.5553C18.3996 10 18.2734 10.2239 18.2734 10.5C18.2734 10.7761 18.3996 11 18.5553 11H19.9916C20.1472 11 20.2734 10.7761 20.2734 10.5C20.2734 10.2239 20.1472 10 19.9916 10Z" fill="#404040"/>
  <path d="M15.9574 10H8.5895C8.41495 10 8.27344 10.2239 8.27344 10.5C8.27344 10.7761 8.41495 11 8.5895 11H15.9574C16.1319 11 16.2734 10.7761 16.2734 10.5C16.2734 10.2239 16.1319 10 15.9574 10Z" fill="#404040"/>
  <path d="M19.9916 12H18.5553C18.3996 12 18.2734 12.2238 18.2734 12.5C18.2734 12.7761 18.3996 13 18.5553 13H19.9916C20.1472 13 20.2734 12.7761 20.2734 12.5C20.2734 12.2238 20.1472 12 19.9916 12Z" fill="#404040"/>
  <path d="M15.9574 12H8.5895C8.41495 12 8.27344 12.2238 8.27344 12.5C8.27344 12.7761 8.41495 13 8.5895 13H15.9574C16.1319 13 16.2734 12.7761 16.2734 12.5C16.2734 12.2238 16.1319 12 15.9574 12Z" fill="#404040"/>
  <path d="M19.9482 18H15.5986C15.419 18 15.2734 18.2239 15.2734 18.5C15.2734 18.7761 15.419 19 15.5986 19H19.9482C20.1278 19 20.2734 18.7761 20.2734 18.5C20.2734 18.2239 20.1278 18 19.9482 18Z" fill="#404040"/>
  <path d="M22.0936 3.04068C21.9907 2.98847 21.8618 2.98654 21.7576 3.06062L20.0464 4.27823L18.3352 3.06062C18.2216 2.97979 18.0686 2.97979 17.955 3.06062L16.2438 4.27823L14.5325 3.06062C14.4189 2.97979 14.2659 2.97979 14.1523 3.06062L12.4411 4.27823L10.7298 3.06062C10.6162 2.97979 10.4632 2.97979 10.3496 3.06062L8.63832 4.27823C8.63832 4.27823 6.92936 3.06225 6.92711 3.06062C6.71565 2.9101 6.41135 3.06547 6.41135 3.32226V16.9967C6.41135 17.1747 6.55716 17.319 6.73701 17.319C6.91686 17.319 7.06267 17.1747 7.06267 16.9967V3.95089L8.44823 4.93677C8.56182 5.01759 8.71487 5.01759 8.82846 4.93677L10.5397 3.71916L12.2509 4.93677C12.3645 5.01759 12.5176 5.01759 12.6312 4.93677L14.3424 3.7192L16.0536 4.93677C16.1672 5.01759 16.3203 5.01759 16.4338 4.93677L18.1451 3.7192L19.8563 4.93677C19.9699 5.01759 20.1229 5.01759 20.2365 4.93677L21.6221 3.95089V22.562C21.6221 23.5509 20.8092 24.3554 19.8098 24.3555C19.4104 24.3555 19.041 24.2267 18.7411 24.0093C18.2825 23.677 17.9975 23.1249 17.9975 22.562V20.6747C17.9975 20.4967 17.8517 20.3524 17.6718 20.3524H7.06267V18.2857C7.06267 18.1078 6.91686 17.9635 6.73701 17.9635C6.55716 17.9635 6.41135 18.1078 6.41135 18.2857V20.3524H4.59909C4.41924 20.3524 4.27344 20.4967 4.27344 20.6747V22.562C4.27344 23.9064 5.37863 25 6.73705 25C6.73705 25 19.8096 25 19.8098 25C21.1682 25 22.2734 23.9063 22.2734 22.562C22.2734 22.562 22.2734 3.33931 22.2734 3.32226C22.2734 3.19528 22.1965 3.09284 22.0936 3.04068ZM6.73701 24.3555C5.73772 24.3555 4.92471 23.551 4.92471 22.5621V20.997H17.3462V22.5621C17.3462 23.2344 17.6393 23.894 18.1376 24.3507C18.1393 24.3522 18.1409 24.3539 18.1426 24.3555H6.73701Z" fill="#404040"/>
</svg>