<svg xmlns="http://www.w3.org/2000/svg" width="60" height="60" viewBox="0 0 60 60" fill="none">
  <path d="M30.375 14H26.625C26.28 14 26 13.776 26 13.5C26 13.224 26.28 13 26.625 13H30.375C30.72 13 31 13.224 31 13.5C31 13.776 30.72 14 30.375 14Z" fill="black"/>
  <path d="M35.7188 50H21.2812C19.4713 50 18 48.4853 18 46.625V37.175C18 36.8024 18.294 36.5 18.6562 36.5C19.0185 36.5 19.3125 36.8024 19.3125 37.175V46.625C19.3125 47.7415 20.1958 48.65 21.2812 48.65H35.7188C36.8042 48.65 37.6875 47.7415 37.6875 46.625V23.675C37.6875 23.3024 37.9815 23 38.3438 23C38.706 23 39 23.3024 39 23.675V46.625C39 48.4853 37.5287 50 35.7188 50Z" fill="black"/>
  <path d="M38.3438 15C37.9815 15 37.6875 14.72 37.6875 14.375V13.125C37.6875 12.0912 36.8042 11.25 35.7188 11.25H21.2812C20.1958 11.25 19.3125 12.0912 19.3125 13.125V14.375C19.3125 14.72 19.0185 15 18.6562 15C18.294 15 18 14.72 18 14.375V13.125C18 11.4025 19.4713 10 21.2812 10H35.7188C37.5287 10 39 11.4025 39 13.125V14.375C39 14.72 38.706 15 38.3438 15Z" fill="black"/>
  <path d="M28.3 42H22.7C22.3136 42 22 41.776 22 41.5C22 41.224 22.3136 41 22.7 41H28.3C28.6864 41 29 41.224 29 41.5C29 41.776 28.6864 42 28.3 42Z" fill="black"/>
  <path d="M32.3125 44H22.6875C22.308 44 22 43.776 22 43.5C22 43.224 22.308 43 22.6875 43H32.3125C32.692 43 33 43.224 33 43.5C33 43.776 32.692 44 32.3125 44Z" fill="black"/>
  <path d="M34.35 40H22.65C22.2912 40 22 39.776 22 39.5C22 39.224 22.2912 39 22.65 39H34.35C34.7088 39 35 39.224 35 39.5C35 39.776 34.7088 40 34.35 40Z" fill="black"/>
  <path d="M20 27C18.3452 27 17 25.6536 17 24C17 22.3464 18.3452 21 20 21C21.6548 21 23 22.3464 23 24C23 25.6536 21.6548 27 20 27ZM20 22.2C19.0076 22.2 18.2 23.0076 18.2 24C18.2 24.9924 19.0076 25.8 20 25.8C20.9924 25.8 21.8 24.9924 21.8 24C21.8 23.0076 20.9924 22.2 20 22.2Z" fill="black"/>
  <path d="M19.9995 35C17.8518 35 15.7911 34.2056 14.1968 32.7656C14.0328 32.6168 13.9642 32.3924 14.0181 32.1812C14.4883 30.308 16.1927 29 18.1628 29H21.8361C23.8062 29 25.5107 30.308 25.9821 32.18C26.0359 32.3924 25.9662 32.6168 25.8033 32.7644C24.2079 34.2056 22.1471 35 19.9995 35ZM15.3135 32.1284C17.9608 34.2896 22.0381 34.2896 24.6854 32.1284C24.2446 30.9776 23.1193 30.2 21.8361 30.2H18.1628C16.8796 30.2 15.7543 30.9776 15.3135 32.1284Z" fill="black"/>
  <path d="M19.9995 35C15.0379 35 11 30.9629 11 26C11 21.0371 15.0384 17 20 17C24.9616 17 29 21.0371 29 26C29 30.9629 24.961 35 19.9995 35ZM20 18.2857C15.7456 18.2857 12.2857 21.7456 12.2857 26C12.2857 30.2544 15.7456 33.7143 20 33.7143C24.2544 33.7143 27.7143 30.2544 27.7143 26C27.7143 21.7456 24.2544 18.2857 20 18.2857Z" fill="black"/>
  <path d="M14.5 40C14.224 40 14 39.8343 14 39.5714V39.4762C14 39.2133 14.224 39 14.5 39C14.776 39 15 39.2133 15 39.4762C15 39.739 14.776 40 14.5 40Z" fill="black"/>
  <path d="M14.5 42C14.224 42 14 41.8343 14 41.5714V41.4762C14 41.2133 14.224 41 14.5 41C14.776 41 15 41.2133 15 41.4762C15 41.739 14.776 42 14.5 42Z" fill="black"/>
  <path d="M14.5 44C14.224 44 14 43.8343 14 43.5714V43.4762C14 43.2133 14.224 43 14.5 43C14.776 43 15 43.2133 15 43.4762C15 43.739 14.776 44 14.5 44Z" fill="black"/>
  <path d="M40.7869 45H39.6668C39.2987 45 39 44.696 39 44.3214C39 43.9469 39.2987 43.6429 39.6668 43.6429H40.2495L40.5762 42.1025C40.6295 41.8474 40.8229 41.6479 41.0709 41.5868C41.7004 41.4321 42.3138 41.1715 42.8939 40.8119C43.1085 40.6761 43.3846 40.6802 43.5993 40.8186L44.9195 41.6777L45.7369 40.839L44.8928 39.5063C44.7541 39.2878 44.7514 39.0069 44.8835 38.7856C45.2368 38.1953 45.4929 37.571 45.6436 36.9304C45.7036 36.678 45.8983 36.4826 46.1476 36.4256L47.6665 36.0822V34.9191L46.1476 34.5758C45.8983 34.5188 45.7036 34.3234 45.6436 34.0709C45.4929 33.4304 45.2355 32.8061 44.8835 32.2157C44.7501 31.9945 44.7528 31.7149 44.8914 31.4964L45.7369 30.1515L44.9208 29.3209L43.5993 30.1814C43.3859 30.3211 43.1099 30.3239 42.8939 30.1881C42.3124 29.8285 41.699 29.5679 41.0709 29.4132C40.8216 29.3521 40.6295 29.1513 40.5762 28.8975L40.2495 27.3571H39.6668C39.2987 27.3571 39 27.0531 39 26.6786C39 26.304 39.2987 26 39.6668 26H40.7869C41.1003 26 41.3723 26.2239 41.4377 26.5361L41.7937 28.2094C42.2818 28.3601 42.7605 28.5636 43.2219 28.8174L44.6541 27.8851C44.9181 27.7154 45.2635 27.7507 45.4849 27.9774L47.0597 29.5788C47.2811 29.8041 47.3184 30.1556 47.1491 30.4243L46.233 31.8819C46.4823 32.3528 46.6824 32.84 46.8304 33.3381L48.4773 33.7099C48.7826 33.7791 49 34.0546 49 34.3722V36.6251C49 36.9426 48.7826 37.2195 48.4773 37.2874L46.8304 37.6592C46.6824 38.1573 46.4823 38.6445 46.233 39.1141L47.1478 40.5581C47.3184 40.8254 47.2824 41.1783 47.0611 41.4036L45.4862 43.0186C45.2648 43.2452 44.9195 43.2846 44.6541 43.1122L43.2219 42.1799C42.7592 42.4336 42.2818 42.6372 41.7937 42.7879L41.4377 44.4612C41.3723 44.7761 41.1003 45 40.7869 45Z" fill="black"/>
  <path d="M39.8111 38.8389C39.5785 38.7414 39.4131 38.5112 39.4055 38.2343C39.396 37.8543 39.6894 37.5292 40.061 37.5104C41.1067 37.4555 42.0515 36.7807 42.467 35.7894C43.0584 34.3785 42.4293 32.7659 41.0645 32.1938C40.7291 32.0532 40.3778 31.9857 40.0188 31.9916C39.6473 31.9998 39.3473 31.6951 39.3504 31.3129C39.3529 30.932 39.6573 30.6189 40.0295 30.6125C40.569 30.6026 41.0995 30.7046 41.6006 30.9146C43.6473 31.7725 44.5912 34.1923 43.7044 36.308C43.0809 37.7957 41.6644 38.8081 40.0974 38.8882C39.9949 38.8934 39.899 38.8757 39.8111 38.8389Z" fill="black"/>
  <path d="M43.4 22H35.6C34.1661 22 33 20.8787 33 19.5C33 18.1213 34.1661 17 35.6 17H43.4C44.8339 17 46 18.1213 46 19.5C46 20.8787 44.8339 22 43.4 22ZM35.6 18.25C34.8824 18.25 34.3 18.8112 34.3 19.5C34.3 20.1888 34.8824 20.75 35.6 20.75H43.4C44.1176 20.75 44.7 20.1888 44.7 19.5C44.7 18.8112 44.1176 18.25 43.4 18.25H35.6Z" fill="black"/>
</svg>