<svg xmlns="http://www.w3.org/2000/svg" width="60" height="60" viewBox="0 0 60 60" fill="none">
  <path d="M19.0685 18.7342C19.0438 18.7343 19.0192 18.732 18.9949 18.7274C18.9003 18.7097 18.8152 18.6586 18.7552 18.5833C18.6953 18.5079 18.6645 18.4135 18.6685 18.3174C18.6515 17.2375 18.3838 16.1764 17.8865 15.2178C15.5593 16.1834 13.2245 15.8494 10.9381 14.2222C10.1413 14.9202 9.28811 16.5858 9.16171 18.3626C9.155 18.4571 9.1149 18.5463 9.04858 18.614C8.98226 18.6818 8.89402 18.7238 8.79961 18.7325C8.70519 18.7413 8.61074 18.7162 8.5331 18.6618C8.45546 18.6073 8.39968 18.5271 8.37571 18.4354C7.17211 13.8318 7.95971 10.773 10.5997 9.81495C13.0349 8.26335 15.3521 8.25295 17.4857 9.78495C17.9429 10.1186 18.4922 10.3024 19.0581 10.311C19.2811 10.2907 19.5058 10.3182 19.7173 10.3915C19.9288 10.4648 20.1223 10.5823 20.2849 10.7362C20.3742 10.8426 20.4389 10.9675 20.4745 11.1018C20.5102 11.2361 20.5157 11.3766 20.4909 11.5134C20.4339 11.9514 20.2778 12.3707 20.0345 12.7394C19.8881 12.9794 19.8713 13.0162 19.9213 13.1598C20.1613 13.8502 20.2097 16.2126 19.4485 18.4626C19.4216 18.5419 19.3705 18.6108 19.3023 18.6596C19.2341 18.7083 19.1523 18.7344 19.0685 18.7342ZM14.1733 9.44255C13.0316 9.48381 11.9263 9.85551 10.9917 10.5126C10.9655 10.5291 10.9374 10.5425 10.9081 10.5526C8.59211 11.3666 8.42811 14.0582 8.76291 16.3546C9.19611 15.057 9.92291 13.9102 10.7125 13.3878C10.7815 13.3422 10.8628 13.3192 10.9454 13.3217C11.028 13.3243 11.1077 13.3524 11.1737 13.4022C13.4269 15.0994 15.6245 15.4058 17.8937 14.3394C17.9842 14.2966 18.0874 14.2893 18.183 14.3189C18.2786 14.3485 18.3597 14.4129 18.4101 14.4994C18.7229 15.0507 18.9728 15.6355 19.1553 16.2426C19.3256 15.3099 19.3291 14.3544 19.1657 13.4206C19.1011 13.2364 19.0843 13.0389 19.1168 12.8466C19.1494 12.6542 19.2302 12.4732 19.3517 12.3206C19.5368 12.0448 19.6555 11.7299 19.6985 11.4006C19.7129 11.2966 19.6869 11.2662 19.6781 11.2562C19.6581 11.2326 19.5321 11.1142 19.0497 11.1094C18.3193 11.0994 17.6099 10.8633 17.0193 10.4334C16.2012 9.80692 15.2036 9.45962 14.1733 9.44255Z" fill="#131313"/>
  <path d="M21.5508 41.5364H20.0108C19.9047 41.5364 19.803 41.4942 19.728 41.4192C19.653 41.3442 19.6108 41.2425 19.6108 41.1364C19.6108 41.0303 19.653 40.9286 19.728 40.8536C19.803 40.7785 19.9047 40.7364 20.0108 40.7364H21.5508C21.8998 40.7356 22.2343 40.5965 22.481 40.3498C22.7278 40.103 22.8668 39.7686 22.8676 39.4196V29.1628C22.8667 28.1244 22.4538 27.1288 21.7195 26.3945C20.9852 25.6603 19.9896 25.2473 18.9512 25.2464H17.6272C16.5213 25.9784 15.2243 26.3688 13.898 26.3688C12.5717 26.3688 11.2748 25.9784 10.1688 25.2464H8.83163C7.79323 25.2473 6.79764 25.6603 6.06337 26.3945C5.32911 27.1288 4.91619 28.1244 4.91523 29.1628V39.4196C4.91608 39.7686 5.05508 40.103 5.30185 40.3498C5.54861 40.5965 5.88306 40.7356 6.23203 40.7364H7.77163C7.87772 40.7364 7.97946 40.7785 8.05448 40.8536C8.12949 40.9286 8.17163 41.0303 8.17163 41.1364C8.17163 41.2425 8.12949 41.3442 8.05448 41.4192C7.97946 41.4942 7.87772 41.5364 7.77163 41.5364H6.23203C5.67088 41.5355 5.13296 41.3123 4.73617 40.9155C4.33937 40.5187 4.11608 39.9807 4.11523 39.4196V29.1628C4.11619 27.9122 4.6134 26.7131 5.49769 25.8288C6.38198 24.9446 7.58106 24.4473 8.83163 24.4464H10.2896C10.3695 24.4465 10.4475 24.4704 10.5136 24.5152C11.5077 25.2022 12.6877 25.5698 13.896 25.5688C15.1061 25.5668 16.2874 25.1992 17.2848 24.514C17.3508 24.4699 17.4283 24.4463 17.5076 24.4464H18.9512C20.2018 24.4473 21.4009 24.9446 22.2852 25.8288C23.1695 26.7131 23.6667 27.9122 23.6676 29.1628V39.4196C23.6668 39.9807 23.4435 40.5187 23.0467 40.9155C22.6499 41.3123 22.112 41.5355 21.5508 41.5364Z" fill="#131313"/>
  <path d="M13.9149 24.4144C11.2565 24.4144 8.9757 21.942 8.3701 18.402C8.36035 18.3499 8.36106 18.2963 8.3722 18.2445C8.38333 18.1926 8.40467 18.1435 8.43496 18.0999C8.46526 18.0564 8.50391 18.0193 8.54867 17.9909C8.59343 17.9624 8.6434 17.9432 8.69567 17.9342C8.74795 17.9252 8.80148 17.9267 8.85317 17.9387C8.90485 17.9506 8.95364 17.9727 8.99671 18.0036C9.03978 18.0346 9.07627 18.0738 9.10404 18.119C9.13182 18.1641 9.15033 18.2144 9.1585 18.2668C9.6973 21.4156 11.6537 23.6144 13.9149 23.6144C16.1761 23.6144 18.1357 21.4144 18.6749 18.2668C18.6821 18.2136 18.7 18.1624 18.7275 18.1162C18.7549 18.0701 18.7914 18.0299 18.8347 17.9981C18.878 17.9664 18.9272 17.9437 18.9795 17.9313C19.0318 17.919 19.086 17.9173 19.1389 17.9264C19.1918 17.9355 19.2424 17.9551 19.2876 17.9842C19.3327 18.0132 19.3716 18.0511 19.4018 18.0954C19.4321 18.1398 19.4531 18.1898 19.4636 18.2425C19.474 18.2952 19.4738 18.3494 19.4629 18.402C18.8573 21.942 16.5757 24.4144 13.9149 24.4144Z" fill="#131313"/>
  <path d="M10.8391 56.0444C9.92248 56.0444 9.04333 55.6807 8.39462 55.0331C7.74592 54.3855 7.38068 53.507 7.37909 52.5904L7.37109 29.8776C7.37109 29.7715 7.41324 29.6698 7.48825 29.5948C7.56327 29.5197 7.66501 29.4776 7.77109 29.4776C7.87718 29.4776 7.97892 29.5197 8.05394 29.5948C8.12895 29.6698 8.17109 29.7715 8.17109 29.8776L8.17789 52.59C8.17917 53.2946 8.45999 53.9699 8.95871 54.4677C9.45743 54.9654 10.1333 55.2449 10.8379 55.2448H10.8423C11.5475 55.2427 12.2232 54.961 12.721 54.4614C13.2188 53.9618 13.4982 53.2853 13.4979 52.58L13.4791 41.1368C13.4791 41.0307 13.5212 40.929 13.5963 40.854C13.6713 40.7789 13.773 40.7368 13.8791 40.7368C13.9852 40.7368 14.0869 40.7789 14.1619 40.854C14.237 40.929 14.2791 41.0307 14.2791 41.1368L14.2983 52.58C14.2987 53.4973 13.9353 54.3772 13.2878 55.0269C12.6403 55.6766 11.7615 56.043 10.8443 56.0456L10.8391 56.0444Z" fill="#131313"/>
  <path d="M16.9605 56.034C16.0442 56.0328 15.1657 55.6687 14.5173 55.0213C13.8689 54.3738 13.5034 53.4959 13.5009 52.5796L13.4805 41.1368C13.4805 41.0307 13.5226 40.929 13.5976 40.854C13.6726 40.7789 13.7744 40.7368 13.8805 40.7368C13.9866 40.7368 14.0883 40.7789 14.1633 40.854C14.2383 40.929 14.2805 41.0307 14.2805 41.1368L14.2997 52.58C14.3008 53.2846 14.5816 53.96 15.0802 54.4578C15.5788 54.9556 16.2547 55.2352 16.9593 55.2352H16.9637C17.6689 55.2331 18.3445 54.9513 18.8424 54.4518C19.3402 53.9522 19.6196 53.2757 19.6193 52.5704L19.6121 29.8788C19.6121 29.7727 19.6542 29.671 19.7292 29.596C19.8042 29.5209 19.906 29.4788 20.0121 29.4788C20.1182 29.4788 20.2199 29.5209 20.2949 29.596C20.3699 29.671 20.4121 29.7727 20.4121 29.8788L20.4193 52.57C20.4197 53.4873 20.0563 54.3672 19.4088 55.0169C18.7613 55.6666 17.8825 56.033 16.9653 56.0356L16.9605 56.034Z" fill="#131313"/>
  <path d="M10.2888 25.2456C10.2121 25.2456 10.1369 25.2236 10.0724 25.1821C10.0078 25.1406 9.95658 25.0814 9.92475 25.0115C9.89291 24.9417 9.88183 24.8642 9.89284 24.7882C9.90384 24.7123 9.93646 24.6411 9.9868 24.5832L11.3304 23.0376C11.4 22.9575 11.4986 22.9083 11.6044 22.9009C11.7102 22.8935 11.8147 22.9284 11.8948 22.998C11.9749 23.0676 12.0241 23.1662 12.0315 23.272C12.0389 23.3778 12.004 23.4823 11.9344 23.5624L10.5908 25.108C10.5532 25.1512 10.5068 25.1859 10.4547 25.2096C10.4026 25.2333 10.3461 25.2456 10.2888 25.2456Z" fill="#131313"/>
  <path d="M17.5392 25.2456C17.4819 25.2456 17.4254 25.2333 17.3733 25.2096C17.3212 25.1859 17.2748 25.1512 17.2372 25.108L15.8932 23.5624C15.8587 23.5227 15.8324 23.4767 15.8158 23.4269C15.7991 23.377 15.7924 23.3244 15.7961 23.272C15.7998 23.2196 15.8138 23.1684 15.8372 23.1214C15.8607 23.0744 15.8931 23.0325 15.9328 22.998C15.9725 22.9635 16.0185 22.9372 16.0683 22.9206C16.1182 22.9039 16.1708 22.8972 16.2232 22.9009C16.2756 22.9046 16.3268 22.9186 16.3738 22.942C16.4208 22.9655 16.4627 22.9979 16.4972 23.0376L17.8412 24.5832C17.8915 24.6411 17.9242 24.7123 17.9352 24.7882C17.9462 24.8642 17.9351 24.9417 17.9033 25.0115C17.8714 25.0814 17.8202 25.1406 17.7556 25.1821C17.6911 25.2236 17.6159 25.2456 17.5392 25.2456Z" fill="#131313"/>
  <path d="M55.4844 32.2868H23.268C23.1619 32.2868 23.0602 32.2447 22.9852 32.1696C22.9101 32.0946 22.868 31.9929 22.868 31.8868C22.868 31.7807 22.9101 31.679 22.9852 31.604C23.0602 31.5289 23.1619 31.4868 23.268 31.4868H55.0844V4.7556H16.2844V9.364C16.2844 9.47009 16.2423 9.57183 16.1672 9.64684C16.0922 9.72186 15.9905 9.764 15.8844 9.764C15.7783 9.764 15.6766 9.72186 15.6016 9.64684C15.5265 9.57183 15.4844 9.47009 15.4844 9.364V4.3556C15.4844 4.24951 15.5265 4.14777 15.6016 4.07276C15.6766 3.99774 15.7783 3.9556 15.8844 3.9556H55.4844C55.5905 3.9556 55.6922 3.99774 55.7672 4.07276C55.8423 4.14777 55.8844 4.24951 55.8844 4.3556V31.8868C55.8844 31.9929 55.8423 32.0946 55.7672 32.1696C55.6922 32.2447 55.5905 32.2868 55.4844 32.2868Z" fill="#131313"/>
  <path d="M53.4844 30.2868H23.268C23.1619 30.2868 23.0602 30.2447 22.9852 30.1696C22.9101 30.0946 22.868 29.9929 22.868 29.8868C22.868 29.7807 22.9101 29.679 22.9852 29.604C23.0602 29.5289 23.1619 29.4868 23.268 29.4868H53.0844V6.7556H18.2844V10.466C18.2844 10.5721 18.2423 10.6738 18.1672 10.7488C18.0922 10.8239 17.9905 10.866 17.8844 10.866C17.7783 10.866 17.6766 10.8239 17.6016 10.7488C17.5265 10.6738 17.4844 10.5721 17.4844 10.466V6.3556C17.4844 6.24951 17.5265 6.14777 17.6016 6.07276C17.6766 5.99774 17.7783 5.9556 17.8844 5.9556H53.4844C53.5905 5.9556 53.6922 5.99774 53.7672 6.07276C53.8423 6.14777 53.8844 6.24951 53.8844 6.3556V29.8868C53.8844 29.9929 53.8423 30.0946 53.7672 30.1696C53.6922 30.2447 53.5905 30.2868 53.4844 30.2868Z" fill="#131313"/>
  <path d="M45.2921 34.6372H26.0777C25.9716 34.6372 25.8699 34.5951 25.7949 34.52C25.7199 34.445 25.6777 34.3433 25.6777 34.2372V31.8868C25.6777 31.7807 25.7199 31.679 25.7949 31.604C25.8699 31.5289 25.9716 31.4868 26.0777 31.4868H45.2921C45.3982 31.4868 45.5 31.5289 45.575 31.604C45.65 31.679 45.6921 31.7807 45.6921 31.8868V34.2372C45.6921 34.3433 45.65 34.445 45.575 34.52C45.5 34.5951 45.3982 34.6372 45.2921 34.6372ZM26.4777 33.8372H44.8921V32.2868H26.4777V33.8372Z" fill="#131313"/>
  <path d="M27.1586 44.8708H24.5742C24.5051 44.8709 24.4371 44.853 24.3769 44.819C24.3168 44.785 24.2664 44.7359 24.2309 44.6767C24.1953 44.6174 24.1757 44.5499 24.174 44.4808C24.1722 44.4117 24.1884 44.3434 24.221 44.2824L29.6734 34.0492C29.7074 33.9852 29.7583 33.9317 29.8204 33.8943C29.8826 33.857 29.9537 33.8373 30.0262 33.8372H32.6102C32.6792 33.8372 32.7471 33.855 32.8072 33.889C32.8674 33.923 32.9176 33.972 32.9532 34.0312C32.9888 34.0904 33.0084 34.1578 33.0102 34.2269C33.012 34.2959 32.9958 34.3642 32.9634 34.4252L27.5114 44.6588C27.4773 44.7228 27.4265 44.7763 27.3643 44.8137C27.3022 44.851 27.2311 44.8708 27.1586 44.8708ZM25.2386 44.0708H26.9162L31.9438 34.6372H30.2666L25.2386 44.0708Z" fill="#131313"/>
  <path d="M46.7956 44.8708H44.2112C44.1387 44.8708 44.0676 44.851 44.0054 44.8137C43.9433 44.7763 43.8925 44.7228 43.8584 44.6588L38.4064 34.4252C38.374 34.3643 38.3578 34.296 38.3596 34.227C38.3614 34.158 38.381 34.0906 38.4165 34.0314C38.452 33.9722 38.5022 33.9232 38.5623 33.8892C38.6223 33.8552 38.6902 33.8372 38.7592 33.8372H41.3432C41.4158 33.8372 41.487 33.8569 41.5492 33.8942C41.6114 33.9316 41.6623 33.9851 41.6964 34.0492L47.1488 44.2824C47.1814 44.3434 47.1976 44.4117 47.1958 44.4808C47.1941 44.5499 47.1745 44.6174 47.1389 44.6767C47.1033 44.7359 47.053 44.785 46.9928 44.819C46.9327 44.853 46.8647 44.8709 46.7956 44.8708ZM44.4516 44.0708H46.1292L41.1032 34.6372H39.4256L44.4516 44.0708Z" fill="#131313"/>
  <path d="M36.8041 44.8708H34.5641C34.458 44.8708 34.3562 44.8287 34.2812 44.7536C34.2062 44.6786 34.1641 44.5769 34.1641 44.4708V34.2372C34.1641 34.1311 34.2062 34.0294 34.2812 33.9544C34.3562 33.8793 34.458 33.8372 34.5641 33.8372H36.8041C36.9102 33.8372 37.0119 33.8793 37.0869 33.9544C37.1619 34.0294 37.2041 34.1311 37.2041 34.2372V44.4708C37.2041 44.5769 37.1619 44.6786 37.0869 44.7536C37.0119 44.8287 36.9102 44.8708 36.8041 44.8708ZM34.9641 44.0708H36.4041V34.6372H34.9641V44.0708Z" fill="#131313"/>
  <path d="M50.734 18.1172H41.984C41.8779 18.1172 41.7762 18.0751 41.7011 18C41.6261 17.925 41.584 17.8233 41.584 17.7172V10.344C41.584 10.2379 41.6261 10.1362 41.7011 10.0612C41.7762 9.98614 41.8779 9.944 41.984 9.944H50.734C50.8401 9.944 50.9418 9.98614 51.0168 10.0612C51.0918 10.1362 51.134 10.2379 51.134 10.344V17.7172C51.134 17.8233 51.0918 17.925 51.0168 18C50.9418 18.0751 50.8401 18.1172 50.734 18.1172ZM42.384 17.3172H50.334V10.744H42.384V17.3172Z" fill="#131313"/>
  <path d="M38.9044 10.7956H23.2672C23.1611 10.7956 23.0594 10.7535 22.9843 10.6784C22.9093 10.6034 22.8672 10.5017 22.8672 10.3956C22.8672 10.2895 22.9093 10.1878 22.9843 10.1128C23.0594 10.0377 23.1611 9.9956 23.2672 9.9956H38.9044C39.0105 9.9956 39.1122 10.0377 39.1872 10.1128C39.2622 10.1878 39.3044 10.2895 39.3044 10.3956C39.3044 10.5017 39.2622 10.6034 39.1872 10.6784C39.1122 10.7535 39.0105 10.7956 38.9044 10.7956Z" fill="#131313"/>
  <path d="M38.9044 14.6712H23.2672C23.1611 14.6712 23.0594 14.6291 22.9843 14.554C22.9093 14.479 22.8672 14.3773 22.8672 14.2712C22.8672 14.1651 22.9093 14.0634 22.9843 13.9884C23.0594 13.9133 23.1611 13.8712 23.2672 13.8712H38.9044C39.0105 13.8712 39.1122 13.9133 39.1872 13.9884C39.2622 14.0634 39.3044 14.1651 39.3044 14.2712C39.3044 14.3773 39.2622 14.479 39.1872 14.554C39.1122 14.6291 39.0105 14.6712 38.9044 14.6712Z" fill="#131313"/>
  <path d="M38.9044 18.5472H23.2672C23.1611 18.5472 23.0594 18.5051 22.9843 18.43C22.9093 18.355 22.8672 18.2533 22.8672 18.1472C22.8672 18.0411 22.9093 17.9394 22.9843 17.8644C23.0594 17.7893 23.1611 17.7472 23.2672 17.7472H38.9044C39.0105 17.7472 39.1122 17.7893 39.1872 17.8644C39.2622 17.9394 39.3044 18.0411 39.3044 18.1472C39.3044 18.2533 39.2622 18.355 39.1872 18.43C39.1122 18.5051 39.0105 18.5472 38.9044 18.5472Z" fill="#131313"/>
  <path d="M50.7336 22.4228H23.2672C23.1611 22.4228 23.0594 22.3807 22.9843 22.3056C22.9093 22.2306 22.8672 22.1289 22.8672 22.0228C22.8672 21.9167 22.9093 21.815 22.9843 21.74C23.0594 21.6649 23.1611 21.6228 23.2672 21.6228H50.7336C50.8397 21.6228 50.9414 21.6649 51.0164 21.74C51.0914 21.815 51.1336 21.9167 51.1336 22.0228C51.1336 22.1289 51.0914 22.2306 51.0164 22.3056C50.9414 22.3807 50.8397 22.4228 50.7336 22.4228Z" fill="#131313"/>
  <path d="M50.7336 26.2988H23.2672C23.1611 26.2988 23.0594 26.2567 22.9843 26.1816C22.9093 26.1066 22.8672 26.0049 22.8672 25.8988C22.8672 25.7927 22.9093 25.691 22.9843 25.616C23.0594 25.5409 23.1611 25.4988 23.2672 25.4988H50.7336C50.8397 25.4988 50.9414 25.5409 51.0164 25.616C51.0914 25.691 51.1336 25.7927 51.1336 25.8988C51.1336 26.0049 51.0914 26.1066 51.0164 26.1816C50.9414 26.2567 50.8397 26.2988 50.7336 26.2988Z" fill="#131313"/>
  <path d="M40.2118 51.5116C39.5 51.5139 38.81 51.267 38.2612 50.8138C37.7124 50.3606 37.3396 49.7296 37.2074 49.0302C37.0751 48.3309 37.1918 47.6073 37.5373 46.985C37.8827 46.3627 38.435 45.8809 39.0984 45.6232C39.7619 45.3655 40.4946 45.3481 41.1695 45.5741C41.8444 45.8001 42.419 46.2551 42.7935 46.8604C43.168 47.4656 43.3189 48.1828 43.2199 48.8877C43.121 49.5925 42.7785 50.2405 42.2518 50.7192C41.695 51.2295 40.967 51.5123 40.2118 51.5116ZM40.2118 46.2444C39.6196 46.245 39.0518 46.4806 38.6331 46.8993C38.2143 47.318 37.9788 47.8858 37.9782 48.478C37.9782 49.0711 38.2138 49.64 38.6332 50.0594C39.0526 50.4788 39.6215 50.7144 40.2146 50.7144C40.8077 50.7144 41.3765 50.4788 41.796 50.0594C42.2154 49.64 42.451 49.0711 42.451 48.478C42.4493 47.8852 42.2127 47.3172 41.7929 46.8985C41.3732 46.4798 40.8046 46.2446 40.2118 46.2444Z" fill="#131313"/>
  <path d="M45.56 56.034H34.8676C34.7684 56.034 34.6728 55.9972 34.5993 55.9307C34.5257 55.8641 34.4795 55.7727 34.4696 55.674C34.4617 55.6076 34.4574 55.5408 34.4568 55.474C34.4582 54.2821 34.8289 53.1198 35.518 52.1473C36.2071 51.1747 37.1807 50.4396 38.3048 50.0432C38.3732 50.0191 38.4468 50.0141 38.5178 50.0286C38.5888 50.0431 38.6546 50.0766 38.708 50.1256C39.1183 50.5012 39.6544 50.7096 40.2106 50.7096C40.7668 50.7096 41.3029 50.5012 41.7132 50.1256C41.7667 50.076 41.8327 50.0419 41.9041 50.0271C41.9755 50.0123 42.0496 50.0173 42.1184 50.0416C43.2425 50.438 44.216 51.1731 44.9051 52.1457C45.5941 53.1182 45.9648 54.2805 45.966 55.4724C45.966 55.5068 45.966 55.5396 45.9628 55.5724L45.9604 55.6312C45.9608 55.684 45.9507 55.7363 45.9307 55.7852C45.9108 55.8341 45.8813 55.8786 45.8441 55.916C45.8069 55.9534 45.7626 55.9831 45.7138 56.0034C45.6651 56.0237 45.6128 56.0341 45.56 56.034ZM35.262 55.234H45.16C45.1129 54.2886 44.7966 53.3763 44.2482 52.6047C43.6998 51.8331 42.9422 51.2344 42.0648 50.8792C41.5342 51.2893 40.8824 51.5116 40.2118 51.5116C39.5412 51.5116 38.8898 51.2893 38.3592 50.8792C37.4816 51.2343 36.7237 51.833 36.1751 52.6045C35.6264 53.3761 35.3093 54.2884 35.262 55.234Z" fill="#131313"/>
  <path d="M32.6099 50.9568C32.0102 50.9584 31.4289 50.75 30.9667 50.3679C30.5045 49.9857 30.1907 49.4539 30.0796 48.8645C29.9685 48.2752 30.0672 47.6656 30.3585 47.1414C30.6498 46.6172 31.1153 46.2115 31.6744 45.9946C32.2335 45.7777 32.8509 45.7634 33.4195 45.954C33.9881 46.1447 34.472 46.5283 34.7874 47.0384C35.1028 47.5484 35.2297 48.1528 35.1461 48.7466C35.0625 49.3405 34.7738 49.8864 34.3299 50.2896C33.8604 50.7196 33.2466 50.9577 32.6099 50.9568ZM32.6099 46.6444C32.1446 46.6455 31.6986 46.8307 31.3695 47.1597C31.0405 47.4887 30.8551 47.9347 30.8539 48.4C30.8526 48.644 30.9029 48.8856 31.0015 49.1088C31.1002 49.3321 31.2449 49.5319 31.4263 49.6952C31.753 49.9824 32.173 50.141 32.608 50.1415C33.043 50.142 33.4633 49.9844 33.7907 49.698C34.0547 49.4605 34.2403 49.1483 34.3229 48.8029C34.4054 48.4574 34.3811 48.0951 34.253 47.7638C34.1249 47.4326 33.8992 47.1481 33.6058 46.948C33.3124 46.7479 32.965 46.6426 32.6099 46.6444Z" fill="#131313"/>
  <path d="M34.9964 56.034H29.738C29.2322 56.0341 28.7469 55.8339 28.3883 55.4772C28.0297 55.1204 27.8269 54.6362 27.8244 54.1304C27.8252 53.1392 28.1334 52.1726 28.7065 51.3639C29.2796 50.5551 30.0895 49.944 31.0244 49.6148C31.0927 49.5909 31.1661 49.5859 31.237 49.6004C31.3078 49.6149 31.3734 49.6484 31.4268 49.6972C31.754 49.983 32.1736 50.1404 32.608 50.1404C33.0424 50.1404 33.462 49.983 33.7892 49.6972C33.8426 49.6477 33.9085 49.6138 33.9797 49.599C34.051 49.5842 34.1249 49.5891 34.1936 49.6132C35.215 49.9736 36.0842 50.6692 36.6596 51.5868C36.6893 51.6313 36.7097 51.6813 36.7197 51.7339C36.7297 51.7865 36.7291 51.8405 36.7178 51.8928C36.7065 51.9451 36.6849 51.9946 36.6542 52.0384C36.6234 52.0822 36.5842 52.1194 36.5388 52.1478C36.4935 52.1762 36.4429 52.1951 36.3901 52.2036C36.3372 52.2121 36.2832 52.2099 36.2313 52.1971C36.1793 52.1843 36.1304 52.1612 36.0876 52.1292C36.0447 52.0972 36.0086 52.057 35.9816 52.0108C35.5431 51.3116 34.8986 50.7656 34.1368 50.448C33.6919 50.7685 33.1575 50.9409 32.6092 50.9409C32.0609 50.9409 31.5265 50.7685 31.0816 50.448C30.3547 50.7505 29.7335 51.2614 29.2963 51.9162C28.8591 52.5711 28.6255 53.3406 28.6248 54.128C28.6265 54.4221 28.7446 54.7035 28.9533 54.9107C29.162 55.1179 29.4443 55.234 29.7384 55.2336H34.9964C35.1025 55.2336 35.2042 55.2757 35.2792 55.3508C35.3543 55.4258 35.3964 55.5275 35.3964 55.6336C35.3964 55.7397 35.3543 55.8414 35.2792 55.9164C35.2042 55.9915 35.1025 56.034 34.9964 56.034Z" fill="#131313"/>
  <path d="M47.8139 50.9568C47.1363 50.9547 46.487 50.6849 46.0074 50.2061C45.5279 49.7273 45.2571 49.0784 45.2539 48.4008C45.2759 47.7369 45.5551 47.1075 46.0325 46.6456C46.5099 46.1837 47.1482 45.9255 47.8125 45.9255C48.4768 45.9255 49.1151 46.1837 49.5925 46.6456C50.07 47.1075 50.3491 47.7369 50.3711 48.4008C50.37 49.0784 50.1004 49.728 49.6212 50.2071C49.142 50.6863 48.4915 50.9558 47.8139 50.9568ZM47.8139 46.6444C47.3477 46.6444 46.9006 46.8293 46.5707 47.1586C46.2407 47.4879 46.0549 47.9346 46.0539 48.4008C46.0537 48.6447 46.1048 48.8859 46.2039 49.1088C46.303 49.3316 46.4479 49.5312 46.6291 49.6944C46.9556 49.9831 47.3763 50.1427 47.8121 50.1433C48.2479 50.1439 48.669 49.9854 48.9963 49.6976C49.1783 49.5342 49.3236 49.3341 49.4226 49.1104C49.5215 48.8867 49.5719 48.6446 49.5703 48.4C49.5691 47.9346 49.3837 47.4886 49.0545 47.1596C48.7254 46.8306 48.2793 46.6453 47.8139 46.6444Z" fill="#131313"/>
  <path d="M50.6831 56.034H45.4247C45.3186 56.034 45.2169 55.9919 45.1419 55.9168C45.0668 55.8418 45.0247 55.7401 45.0247 55.634C45.0247 55.5279 45.0668 55.4262 45.1419 55.3512C45.2169 55.2761 45.3186 55.234 45.4247 55.234H50.6831C50.977 55.2343 51.2591 55.1183 51.4678 54.9113C51.6764 54.7043 51.7947 54.4231 51.7967 54.1292C51.796 53.3418 51.5623 52.5723 51.1251 51.9174C50.688 51.2626 50.0668 50.7518 49.3399 50.4492C48.8951 50.7697 48.3607 50.9421 47.8125 50.9421C47.2643 50.9421 46.7299 50.7697 46.2851 50.4492C45.523 50.7665 44.8783 51.3125 44.4399 52.012C44.3837 52.1022 44.2939 52.1663 44.1904 52.1903C44.0869 52.2143 43.9781 52.1962 43.8879 52.14C43.7977 52.0838 43.7336 51.994 43.7096 51.8905C43.6856 51.787 43.7037 51.6782 43.7599 51.588C44.3356 50.6705 45.2049 49.9749 46.2263 49.6144C46.295 49.5902 46.3691 49.5852 46.4404 49.6C46.5117 49.6149 46.5777 49.6489 46.6311 49.6984C46.958 49.9837 47.3772 50.1408 47.8111 50.1408C48.245 50.1408 48.6642 49.9837 48.9911 49.6984C49.0445 49.6495 49.1102 49.616 49.1811 49.6015C49.252 49.587 49.3256 49.592 49.3939 49.616C50.3285 49.9451 51.1382 50.5559 51.7113 51.3642C52.2844 52.1726 52.5927 53.1387 52.5939 54.1296C52.5915 54.635 52.3892 55.119 52.0312 55.4758C51.6732 55.8326 51.1885 56.0333 50.6831 56.034Z" fill="#131313"/>
</svg>