<svg xmlns="http://www.w3.org/2000/svg" width="60" height="60" viewBox="0 0 60 60" fill="none">
  <path d="M39.8168 39.1684H24.3511C23.7918 39.1684 23.2554 38.9463 22.8599 38.5507C22.4644 38.1552 22.2422 37.6188 22.2422 37.0595V10.3461C22.2422 9.7868 22.4644 9.25038 22.8599 8.85488C23.2554 8.45937 23.7918 8.23718 24.3511 8.23718H39.8168C40.3761 8.23718 40.9125 8.45937 41.308 8.85488C41.7035 9.25038 41.9257 9.7868 41.9257 10.3461V23.7028H40.5198V10.3461C40.5198 10.1597 40.4457 9.98088 40.3139 9.84905C40.182 9.71721 40.0032 9.64315 39.8168 9.64315H24.3511C24.1647 9.64315 23.9859 9.71721 23.8541 9.84905C23.7222 9.98088 23.6482 10.1597 23.6482 10.3461V37.0595C23.6482 37.2459 23.7222 37.4247 23.8541 37.5566C23.9859 37.6884 24.1647 37.7625 24.3511 37.7625H39.8168C40.0032 37.7625 40.182 37.6884 40.3139 37.5566C40.4457 37.4247 40.5198 37.2459 40.5198 37.0595V34.2476H41.9257V37.0595C41.9257 37.6188 41.7035 38.1552 41.308 38.5507C40.9125 38.9463 40.3761 39.1684 39.8168 39.1684Z" fill="#9D3CFF"/>
  <path d="M42.6282 27.9207H41.2222C40.6629 27.9207 40.1265 27.6985 39.731 27.303C39.3355 26.9075 39.1133 26.3711 39.1133 25.8118V25.1088C39.1133 24.5495 39.3355 24.013 39.731 23.6175C40.1265 23.222 40.6629 22.9998 41.2222 22.9998H42.6282C43.1875 22.9998 43.7239 23.222 44.1194 23.6175C44.515 24.013 44.7371 24.5495 44.7371 25.1088V25.8118C44.7371 26.3711 44.515 26.9075 44.1194 27.303C43.7239 27.6985 43.1875 27.9207 42.6282 27.9207ZM41.2222 24.4058C41.0358 24.4058 40.857 24.4799 40.7251 24.6117C40.5933 24.7435 40.5192 24.9223 40.5192 25.1088V25.8118C40.5192 25.9982 40.5933 26.177 40.7251 26.3088C40.857 26.4407 41.0358 26.5147 41.2222 26.5147H42.6282C42.8146 26.5147 42.9934 26.4407 43.1253 26.3088C43.2571 26.177 43.3312 25.9982 43.3312 25.8118V25.1088C43.3312 24.9223 43.2571 24.7435 43.1253 24.6117C42.9934 24.4799 42.8146 24.4058 42.6282 24.4058H41.2222Z" fill="#9D3CFF"/>
  <path d="M41.4643 21.5503L40.9785 20.2308L42.8604 19.5376C43.042 19.4595 43.1872 19.3155 43.2668 19.1345C43.3464 18.9536 43.3544 18.7492 43.2892 18.5626L43.0622 17.8701C43.0338 17.7774 42.9869 17.6914 42.9243 17.6173C42.8617 17.5432 42.7847 17.4826 42.698 17.4392C42.6245 17.4023 42.5441 17.381 42.462 17.3767C42.3799 17.3723 42.2977 17.385 42.2207 17.4139L41.4629 17.6916L40.9799 16.3707L41.7377 16.093C41.9921 15.9996 42.2627 15.9587 42.5333 15.9726C42.8039 15.9864 43.069 16.0549 43.3124 16.1738C43.5692 16.2992 43.7978 16.4755 43.9844 16.6919C44.171 16.9083 44.3116 17.1604 44.3978 17.4329L44.6249 18.1246C44.8036 18.6578 44.7701 19.2393 44.5313 19.7484C44.2926 20.2575 43.8669 20.6551 43.3426 20.8585L41.4643 21.5503Z" fill="#9D3CFF"/>
  <path d="M42.6282 31.4356H41.2222C40.6629 31.4356 40.1265 31.2134 39.731 30.8179C39.3355 30.4224 39.1133 29.886 39.1133 29.3267V28.6237C39.1133 28.0644 39.3355 27.5279 39.731 27.1324C40.1265 26.7369 40.6629 26.5147 41.2222 26.5147H42.6282C43.1875 26.5147 43.7239 26.7369 44.1194 27.1324C44.515 27.5279 44.7371 28.0644 44.7371 28.6237V29.3267C44.7371 29.886 44.515 30.4224 44.1194 30.8179C43.7239 31.2134 43.1875 31.4356 42.6282 31.4356ZM41.2222 27.9207C41.0358 27.9207 40.857 27.9948 40.7251 28.1266C40.5933 28.2584 40.5192 28.4372 40.5192 28.6237V29.3267C40.5192 29.5131 40.5933 29.6919 40.7251 29.8238C40.857 29.9556 41.0358 30.0297 41.2222 30.0297H42.6282C42.8146 30.0297 42.9934 29.9556 43.1253 29.8238C43.2571 29.6919 43.3312 29.5131 43.3312 29.3267V28.6237C43.3312 28.4372 43.2571 28.2584 43.1253 28.1266C42.9934 27.9948 42.8146 27.9207 42.6282 27.9207H41.2222Z" fill="#9D3CFF"/>
  <path d="M42.6282 34.9505H41.2222C40.6629 34.9505 40.1265 34.7284 39.731 34.3328C39.3355 33.9373 39.1133 33.4009 39.1133 32.8416V32.1386C39.1133 31.5793 39.3355 31.0429 39.731 30.6474C40.1265 30.2519 40.6629 30.0297 41.2222 30.0297H42.6282C43.1875 30.0297 43.7239 30.2519 44.1194 30.6474C44.515 31.0429 44.7371 31.5793 44.7371 32.1386V32.8416C44.7371 33.4009 44.515 33.9373 44.1194 34.3328C43.7239 34.7284 43.1875 34.9505 42.6282 34.9505ZM41.2222 31.4356C41.0358 31.4356 40.857 31.5097 40.7251 31.6415C40.5933 31.7734 40.5192 31.9522 40.5192 32.1386V32.8416C40.5192 33.028 40.5933 33.2068 40.7251 33.3387C40.857 33.4705 41.0358 33.5446 41.2222 33.5446H42.6282C42.8146 33.5446 42.9934 33.4705 43.1253 33.3387C43.2571 33.2068 43.3312 33.028 43.3312 32.8416V32.1386C43.3312 31.9522 43.2571 31.7734 43.1253 31.6415C42.9934 31.5097 42.8146 31.4356 42.6282 31.4356H41.2222Z" fill="#9D3CFF"/>
  <path d="M25.0527 11.0491H39.1124V12.4551H25.0527V11.0491Z" fill="#9D3CFF"/>
  <path d="M25.0527 33.5446H37.7064V34.9506H25.0527V33.5446Z" fill="#9D3CFF"/>
  <path d="M25.7559 21.5939H38.4096V22.9998H25.7559V21.5939Z" fill="#9D3CFF"/>
  <path d="M27.8651 19.4849H26.4591V16.673H29.2711V18.0789H27.8651V19.4849Z" fill="#9D3CFF"/>
  <path d="M29.2711 27.9207H26.4591V25.1088H27.8651V26.5147H29.2711V27.9207Z" fill="#9D3CFF"/>
  <path d="M37.7065 19.4847H36.3005V18.0787H34.8945V16.6727H37.7065V19.4847Z" fill="#9D3CFF"/>
  <path d="M37.7065 27.9207H34.8945V26.5147H36.3005V25.1088H37.7065V27.9207Z" fill="#9D3CFF"/>
  <path d="M33.4895 35.6535H30.6776C30.2893 35.6535 29.9746 35.9683 29.9746 36.3565C29.9746 36.7448 30.2893 37.0595 30.6776 37.0595H33.4895C33.8778 37.0595 34.1925 36.7448 34.1925 36.3565C34.1925 35.9683 33.8778 35.6535 33.4895 35.6535Z" fill="#9D3CFF"/>
  <path d="M18.7263 41.4883H17.3204V28.6659C17.3183 28.0903 17.4187 27.519 17.617 26.9787L19.669 21.3302C19.8143 20.9402 20.0427 20.5864 20.3383 20.2933L21.3323 21.2874C21.1807 21.4365 21.0634 21.6169 20.9885 21.816L18.9372 27.4652C18.7974 27.85 18.726 28.2564 18.7263 28.6659V41.4883Z" fill="#9D3CFF"/>
  <path d="M32.6975 46.5561L32.2539 45.2204C33.2953 44.8966 34.2541 44.3507 35.064 43.6203C35.8739 42.8899 36.5156 41.9924 36.9449 40.9899L38.2286 41.5614C37.7164 42.7404 36.9579 43.7962 36.0039 44.6577C35.0498 45.5192 33.9225 46.1665 32.6975 46.5561Z" fill="#9D3CFF"/>
  <path d="M32.5622 52L15.0488 46.67L16.8414 40.3966L34.3549 45.7266L32.5622 52ZM16.7803 45.7266L31.6041 50.2383L32.6234 46.67L17.7996 42.1582L16.7803 45.7266Z" fill="#9D3CFF"/>
</svg>