<svg xmlns="http://www.w3.org/2000/svg" width="28" height="28" viewBox="0 0 28 28" fill="none">
  <path d="M12.0769 4C7.61613 4 4 7.61606 4 12.0767C4 16.5374 7.61613 20.1534 12.0769 20.1534C14.0307 20.1534 15.8214 19.4604 17.2184 18.3058L22.6868 23.7749C22.8311 23.9191 23.0268 24.0001 23.2309 24C23.4349 23.9999 23.6306 23.9188 23.7748 23.7745C23.9191 23.6301 24.0001 23.4344 24 23.2304C23.9999 23.0263 23.9188 22.8307 23.7745 22.6864L18.306 17.2173C19.5028 15.7718 20.1564 13.9533 20.1537 12.0767C20.1537 7.61606 16.5376 4 12.0769 4ZM5.53845 12.0767C5.53845 10.3426 6.22732 8.67961 7.45351 7.45344C8.6797 6.22727 10.3428 5.53842 12.0769 5.53842C13.811 5.53842 15.474 6.22727 16.7002 7.45344C17.9264 8.67961 18.6153 10.3426 18.6153 12.0767C18.6153 13.8108 17.9264 15.4738 16.7002 16.7C15.474 17.9261 13.811 18.615 12.0769 18.615C10.3428 18.615 8.6797 17.9261 7.45351 16.7C6.22732 15.4738 5.53845 13.8108 5.53845 12.0767Z" fill="#404040"/>
</svg>