<svg xmlns="http://www.w3.org/2000/svg" width="60" height="60" viewBox="0 0 60 60" fill="none">
  <path d="M47.6324 23.291C47.6324 23.2331 47.6324 23.1753 47.6324 23.1175C47.6359 15.8763 41.8024 10.0034 34.6032 10C30.2244 9.99788 26.137 12.2073 23.7225 15.8816C18.8965 14.2613 13.6784 16.8828 12.0674 21.7368C11.7547 22.6794 11.5946 23.6663 11.5935 24.66C11.5935 24.7255 11.5935 24.7918 11.5935 24.8582C8.31441 25.7149 6.34674 29.0832 7.19855 32.3813C7.90016 35.0979 10.3364 36.996 13.127 37H26.8786C27.302 37 27.6454 36.6547 27.6454 36.2287C27.6454 35.8028 27.302 35.4575 26.8786 35.4575H13.127C10.5862 35.4423 8.5387 33.3582 8.55375 30.8026C8.56726 28.5114 10.2458 26.5752 12.5006 26.2495C12.9062 26.1947 13.1975 25.829 13.1623 25.4189C13.1416 25.1705 13.127 24.9152 13.127 24.66C13.1325 20.3949 16.5744 16.9419 20.8147 16.9473C21.8203 16.9486 22.8158 17.1486 23.7447 17.5359C24.0968 17.683 24.5029 17.5477 24.6978 17.2182C27.9322 11.7191 34.9862 9.89858 40.4534 13.1517C43.9552 15.2355 46.1019 19.025 46.0988 23.1175C46.0988 23.3727 46.0919 23.6203 46.0712 23.8687C46.0357 24.2836 46.334 24.652 46.7452 24.7008C49.6872 25.067 51.777 27.7626 51.4129 30.7217C51.0808 33.4215 48.8035 35.451 46.0988 35.4575C45.8682 35.4578 45.6377 35.4442 45.4087 35.4166C45.2987 35.403 45.1869 35.4171 45.0836 35.4575H33.0359C32.6124 35.4575 32.2691 35.8028 32.2691 36.2287C32.2691 36.6547 32.6124 37 33.0359 37H45.3321C45.3906 36.9998 45.4489 36.9918 45.5053 36.9761C45.6993 36.9923 45.8979 37 46.0988 37C49.9102 37.0001 53 33.8924 53 30.0588C53.0001 26.8195 50.7725 24.0108 47.6324 23.291Z" fill="black"/>
  <path d="M35.7476 42.1565L30.7389 47.3728V25.7696C30.7389 25.3446 30.4081 25 30 25C29.5919 25 29.261 25.3446 29.261 25.7696V47.3728L24.2523 42.1565C23.9588 41.8612 23.491 41.8696 23.2074 42.1754C22.9309 42.4736 22.9309 42.9464 23.2074 43.2447L29.4775 49.7747C29.7661 50.0751 30.2338 50.0751 30.5224 49.7747L36.7925 43.2447C37.0761 42.939 37.068 42.4518 36.7744 42.1565C36.4881 41.8684 36.034 41.8684 35.7476 42.1565Z" fill="black"/>
</svg>