<svg xmlns="http://www.w3.org/2000/svg" width="60" height="60" viewBox="0 0 60 60" fill="none">
  <path d="M14.6756 53.0612H7.86875C7.76266 53.0612 7.66092 53.0191 7.58591 52.944C7.51089 52.869 7.46875 52.7673 7.46875 52.6612V36.16C7.46875 36.0539 7.51089 35.9522 7.58591 35.8772C7.66092 35.8021 7.76266 35.76 7.86875 35.76H14.6756C14.7816 35.76 14.8834 35.8021 14.9584 35.8772C15.0334 35.9522 15.0756 36.0539 15.0756 36.16V52.6616C15.0754 52.7676 15.0333 52.8693 14.9583 52.9442C14.8832 53.0191 14.7816 53.0612 14.6756 53.0612ZM8.26875 52.2612H14.2756V36.56H8.26875V52.2612Z" fill="#00CB71"/>
  <path d="M27.1591 53.0612H20.3531C20.247 53.0612 20.1453 53.0191 20.0703 52.944C19.9953 52.869 19.9531 52.7673 19.9531 52.6612V28.668C19.9531 28.5619 19.9953 28.4602 20.0703 28.3852C20.1453 28.3101 20.247 28.268 20.3531 28.268H27.1591C27.2652 28.268 27.367 28.3101 27.442 28.3852C27.517 28.4602 27.5591 28.5619 27.5591 28.668V52.6612C27.5591 52.7673 27.517 52.869 27.442 52.944C27.367 53.0191 27.2652 53.0612 27.1591 53.0612ZM20.7527 52.2612H26.7591V29.068H20.7531L20.7527 52.2612Z" fill="#00CB71"/>
  <path d="M39.6455 53.0612H32.8395C32.7334 53.0612 32.6316 53.0191 32.5566 52.944C32.4816 52.869 32.4395 52.7673 32.4395 52.6612V21.176C32.4395 21.0699 32.4816 20.9682 32.5566 20.8932C32.6316 20.8181 32.7334 20.776 32.8395 20.776H39.6455C39.7515 20.776 39.8533 20.8181 39.9283 20.8932C40.0033 20.9682 40.0455 21.0699 40.0455 21.176V52.6612C40.0455 52.7673 40.0033 52.869 39.9283 52.944C39.8533 53.0191 39.7515 53.0612 39.6455 53.0612ZM33.2391 52.2612H39.2455V21.576H33.2395L33.2391 52.2612Z" fill="#00CB71"/>
  <path d="M52.1306 53.0612H45.3238C45.2177 53.0612 45.116 53.0191 45.041 52.944C44.966 52.869 44.9238 52.7673 44.9238 52.6612V13.6844C44.9238 13.5783 44.966 13.4766 45.041 13.4016C45.116 13.3265 45.2177 13.2844 45.3238 13.2844H52.1306C52.2367 13.2844 52.3385 13.3265 52.4135 13.4016C52.4885 13.4766 52.5306 13.5783 52.5306 13.6844V52.6612C52.5306 52.7673 52.4885 52.869 52.4135 52.944C52.3385 53.0191 52.2367 53.0612 52.1306 53.0612ZM45.7238 52.2612H51.7306V14.0844H45.7238V52.2612Z" fill="#00CB71"/>
  <path d="M55.6 56H4.4C4.29391 56 4.19217 55.9579 4.11716 55.8828C4.04214 55.8078 4 55.7061 4 55.6V52.6612C4 52.5551 4.04214 52.4534 4.11716 52.3784C4.19217 52.3033 4.29391 52.2612 4.4 52.2612H55.6C55.7061 52.2612 55.8078 52.3033 55.8828 52.3784C55.9579 52.4534 56 52.5551 56 52.6612V55.6C56 55.7061 55.9579 55.8078 55.8828 55.8828C55.8078 55.9579 55.7061 56 55.6 56ZM4.8 55.2H55.2V53.0612H4.8V55.2Z" fill="#00CB71"/>
  <path d="M13.0844 28.2692C12.9965 28.2694 12.9111 28.2406 12.8412 28.1874C12.7713 28.1342 12.7209 28.0594 12.6977 27.9747C12.6746 27.8899 12.6799 27.7999 12.713 27.7185C12.7461 27.6372 12.8051 27.5689 12.8808 27.5244L21.7888 22.2644C21.8802 22.2105 21.9893 22.1951 22.092 22.2216C22.1947 22.2482 22.2827 22.3144 22.3366 22.4058C22.3905 22.4972 22.4059 22.6063 22.3794 22.709C22.3528 22.8117 22.2866 22.8997 22.1952 22.9536L13.2872 28.2132C13.2259 28.2499 13.1558 28.2693 13.0844 28.2692Z" fill="#00CB71"/>
  <path d="M38.1411 13.48C38.0532 13.4802 37.9678 13.4514 37.8979 13.3982C37.828 13.345 37.7776 13.2702 37.7544 13.1855C37.7312 13.1007 37.7366 13.0107 37.7697 12.9293C37.8028 12.848 37.8617 12.7797 37.9375 12.7352L46.8695 7.4632C46.9609 7.40931 47.0699 7.39393 47.1727 7.42045C47.2754 7.44696 47.3634 7.51321 47.4173 7.6046C47.4712 7.69599 47.4865 7.80505 47.46 7.90778C47.4335 8.01052 47.3673 8.09851 47.2759 8.1524L38.3439 13.4252C38.2825 13.4615 38.2124 13.4804 38.1411 13.48Z" fill="#00CB71"/>
  <path d="M25.6157 20.8732C25.5278 20.8734 25.4424 20.8446 25.3725 20.7914C25.3026 20.7382 25.2522 20.6634 25.229 20.5787C25.2058 20.4939 25.2112 20.4039 25.2443 20.3225C25.2774 20.2412 25.3364 20.1729 25.4121 20.1284L34.3281 14.8644C34.4195 14.8105 34.5285 14.7951 34.6313 14.8216C34.734 14.8482 34.822 14.9144 34.8759 15.0058C34.9298 15.0972 34.9452 15.2063 34.9186 15.309C34.8921 15.4117 34.8259 15.4997 34.7345 15.5536L25.8185 20.8172C25.7572 20.8539 25.6871 20.8733 25.6157 20.8732Z" fill="#00CB71"/>
  <path d="M11.2713 31.4456C10.7754 31.4457 10.2906 31.2987 9.87824 31.0233C9.46588 30.7478 9.14446 30.3563 8.95464 29.8981C8.76481 29.44 8.7151 28.9359 8.8118 28.4495C8.9085 27.9631 9.14725 27.5164 9.49787 27.1657C9.8485 26.815 10.2952 26.5762 10.7816 26.4794C11.268 26.3826 11.7721 26.4323 12.2302 26.622C12.6884 26.8118 13.08 27.1331 13.3555 27.5454C13.631 27.9577 13.7781 28.4425 13.7781 28.9384C13.7773 29.6031 13.513 30.2403 13.0431 30.7103C12.5731 31.1803 11.9359 31.4448 11.2713 31.4456ZM11.2713 27.2316C10.9336 27.2315 10.6035 27.3316 10.3227 27.5191C10.0418 27.7067 9.82297 27.9733 9.6937 28.2853C9.56444 28.5973 9.5306 28.9406 9.59646 29.2718C9.66232 29.603 9.82492 29.9072 10.0637 30.146C10.3025 30.3848 10.6067 30.5474 10.9379 30.6132C11.2691 30.6791 11.6124 30.6452 11.9244 30.516C12.2363 30.3867 12.503 30.1678 12.6905 29.887C12.8781 29.6062 12.9782 29.2761 12.9781 28.9384C12.9775 28.4859 12.7976 28.0521 12.4776 27.7321C12.1576 27.4121 11.7238 27.2321 11.2713 27.2316Z" fill="#00CB71"/>
  <path d="M23.7568 23.968C23.261 23.968 22.7763 23.821 22.3641 23.5455C21.9519 23.2701 21.6306 22.8786 21.4408 22.4205C21.2511 21.9625 21.2014 21.4584 21.2982 20.9721C21.3949 20.4859 21.6336 20.0392 21.9842 19.6886C22.3348 19.338 22.7815 19.0993 23.2677 19.0026C23.754 18.9058 24.2581 18.9555 24.7161 19.1452C25.1742 19.335 25.5657 19.6563 25.8411 20.0685C26.1166 20.4807 26.2636 20.9654 26.2636 21.4612C26.2629 22.1258 25.9985 22.763 25.5286 23.233C25.0586 23.7029 24.4214 23.9673 23.7568 23.968ZM23.7568 19.7544C23.4192 19.7544 23.0892 19.8545 22.8086 20.042C22.5279 20.2296 22.3091 20.4962 22.1799 20.808C22.0507 21.1199 22.0169 21.4631 22.0828 21.7942C22.1487 22.1253 22.3112 22.4294 22.5499 22.6681C22.7886 22.9068 23.0927 23.0693 23.4238 23.1352C23.7549 23.2011 24.0981 23.1673 24.41 23.0381C24.7218 22.9089 24.9884 22.6901 25.176 22.4094C25.3635 22.1288 25.4636 21.7988 25.4636 21.4612C25.4631 21.0087 25.2831 20.5749 24.9631 20.2549C24.6431 19.9349 24.2093 19.7549 23.7568 19.7544Z" fill="#00CB71"/>
  <path d="M36.2431 16.4908C35.7473 16.4908 35.2627 16.3438 34.8504 16.0683C34.4382 15.7929 34.1169 15.4014 33.9271 14.9433C33.7374 14.4853 33.6878 13.9812 33.7845 13.4949C33.8812 13.0087 34.12 12.562 34.4706 12.2114C34.8211 11.8608 35.2678 11.6221 35.7541 11.5254C36.2403 11.4286 36.7444 11.4783 37.2024 11.668C37.6605 11.8578 38.052 12.1791 38.3275 12.5913C38.6029 13.0035 38.7499 13.4882 38.7499 13.984C38.7492 14.6486 38.4848 15.2858 38.0149 15.7558C37.5449 16.2257 36.9077 16.4901 36.2431 16.4908ZM36.2431 12.2772C35.9056 12.2772 35.5756 12.3773 35.2949 12.5648C35.0142 12.7524 34.7954 13.019 34.6663 13.3308C34.5371 13.6427 34.5033 13.9859 34.5691 14.317C34.635 14.6481 34.7975 14.9522 35.0362 15.1909C35.2749 15.4296 35.5791 15.5921 35.9102 15.658C36.2412 15.7239 36.5844 15.6901 36.8963 15.5609C37.2082 15.4317 37.4747 15.2129 37.6623 14.9322C37.8498 14.6516 37.9499 14.3216 37.9499 13.984C37.9494 13.5315 37.7694 13.0977 37.4494 12.7777C37.1295 12.4577 36.6956 12.2777 36.2431 12.2772Z" fill="#00CB71"/>
  <path d="M48.7275 9.0136C48.2317 9.0136 47.747 8.86658 47.3348 8.59113C46.9226 8.31568 46.6013 7.92417 46.4115 7.46611C46.2218 7.00805 46.1721 6.50402 46.2689 6.01775C46.3656 5.53148 46.6044 5.08481 46.9549 4.73423C47.3055 4.38364 47.7522 4.14489 48.2385 4.04817C48.7247 3.95144 49.2288 4.00109 49.6868 4.19082C50.1449 4.38055 50.5364 4.70186 50.8118 5.1141C51.0873 5.52634 51.2343 6.011 51.2343 6.5068C51.2336 7.17142 50.9692 7.8086 50.4993 8.27856C50.0293 8.74851 49.3921 9.01286 48.7275 9.0136ZM48.7275 4.8C48.3899 4.8 48.0599 4.9001 47.7793 5.08765C47.4986 5.27519 47.2798 5.54176 47.1506 5.85364C47.0214 6.16551 46.9876 6.5087 47.0535 6.83978C47.1194 7.17087 47.2819 7.47499 47.5206 7.71369C47.7593 7.95239 48.0634 8.11495 48.3945 8.18081C48.7256 8.24666 49.0688 8.21286 49.3807 8.08368C49.6926 7.9545 49.9591 7.73573 50.1467 7.45505C50.3342 7.17437 50.4343 6.84437 50.4343 6.5068C50.4338 6.05429 50.2538 5.62047 49.9338 5.3005C49.6138 4.98052 49.18 4.80053 48.7275 4.8Z" fill="#00CB71"/>
  <path d="M9.4684 46.3332C9.36231 46.3332 9.26057 46.2911 9.18556 46.216C9.11054 46.141 9.0684 46.0393 9.0684 45.9332V38.7648C9.0684 38.6587 9.11054 38.557 9.18556 38.482C9.26057 38.4069 9.36231 38.3648 9.4684 38.3648C9.57449 38.3648 9.67623 38.4069 9.75124 38.482C9.82626 38.557 9.8684 38.6587 9.8684 38.7648V45.9332C9.8684 46.0393 9.82626 46.141 9.75124 46.216C9.67623 46.2911 9.57449 46.3332 9.4684 46.3332Z" fill="#00CB71"/>
  <path d="M9.4684 51.4608C9.36231 51.4608 9.26057 51.4187 9.18556 51.3436C9.11054 51.2686 9.0684 51.1669 9.0684 51.0608V48C9.0684 47.8939 9.11054 47.7922 9.18556 47.7172C9.26057 47.6421 9.36231 47.6 9.4684 47.6C9.57449 47.6 9.67623 47.6421 9.75124 47.7172C9.82626 47.7922 9.8684 47.8939 9.8684 48V51.0608C9.8684 51.1669 9.82626 51.2686 9.75124 51.3436C9.67623 51.4187 9.57449 51.4608 9.4684 51.4608Z" fill="#00CB71"/>
  <path d="M21.9547 46.3332C21.8486 46.3332 21.7469 46.2911 21.6718 46.216C21.5968 46.141 21.5547 46.0393 21.5547 45.9332V31.2984C21.5547 31.1923 21.5968 31.0906 21.6718 31.0156C21.7469 30.9405 21.8486 30.8984 21.9547 30.8984C22.0608 30.8984 22.1625 30.9405 22.2375 31.0156C22.3125 31.0906 22.3547 31.1923 22.3547 31.2984V45.9332C22.3547 46.0393 22.3125 46.141 22.2375 46.216C22.1625 46.2911 22.0608 46.3332 21.9547 46.3332Z" fill="#00CB71"/>
  <path d="M21.9547 51.4608C21.8486 51.4608 21.7469 51.4187 21.6718 51.3436C21.5968 51.2686 21.5547 51.1669 21.5547 51.0608V48C21.5547 47.8939 21.5968 47.7922 21.6718 47.7172C21.7469 47.6421 21.8486 47.6 21.9547 47.6C22.0608 47.6 22.1625 47.6421 22.2375 47.7172C22.3125 47.7922 22.3547 47.8939 22.3547 48V51.0608C22.3547 51.1669 22.3125 51.2686 22.2375 51.3436C22.1625 51.4187 22.0608 51.4608 21.9547 51.4608Z" fill="#00CB71"/>
  <path d="M34.4391 46.3332C34.333 46.3332 34.2312 46.2911 34.1562 46.216C34.0812 46.141 34.0391 46.0393 34.0391 45.9332V24.4316C34.0391 24.3255 34.0812 24.2238 34.1562 24.1488C34.2312 24.0737 34.333 24.0316 34.4391 24.0316C34.5452 24.0316 34.6469 24.0737 34.7219 24.1488C34.7969 24.2238 34.8391 24.3255 34.8391 24.4316V45.9332C34.8391 46.0393 34.7969 46.141 34.7219 46.216C34.6469 46.2911 34.5452 46.3332 34.4391 46.3332Z" fill="#00CB71"/>
  <path d="M34.4391 51.4608C34.333 51.4608 34.2312 51.4187 34.1562 51.3436C34.0812 51.2686 34.0391 51.1669 34.0391 51.0608V48C34.0391 47.8939 34.0812 47.7922 34.1562 47.7172C34.2312 47.6421 34.333 47.6 34.4391 47.6C34.5452 47.6 34.6469 47.6421 34.7219 47.7172C34.7969 47.7922 34.8391 47.8939 34.8391 48V51.0608C34.8391 51.1669 34.7969 51.2686 34.7219 51.3436C34.6469 51.4187 34.5452 51.4608 34.4391 51.4608Z" fill="#00CB71"/>
  <path d="M46.9254 46.3332C46.8193 46.3332 46.7176 46.2911 46.6426 46.216C46.5675 46.141 46.5254 46.0393 46.5254 45.9332V17.7648C46.5254 17.6587 46.5675 17.557 46.6426 17.482C46.7176 17.4069 46.8193 17.3648 46.9254 17.3648C47.0315 17.3648 47.1332 17.4069 47.2082 17.482C47.2832 17.557 47.3254 17.6587 47.3254 17.7648V45.9332C47.3254 46.0393 47.2832 46.141 47.2082 46.216C47.1332 46.2911 47.0315 46.3332 46.9254 46.3332Z" fill="#00CB71"/>
  <path d="M46.9254 51.4608C46.8193 51.4608 46.7176 51.4187 46.6426 51.3436C46.5675 51.2686 46.5254 51.1669 46.5254 51.0608V48C46.5254 47.8939 46.5675 47.7922 46.6426 47.7172C46.7176 47.6421 46.8193 47.6 46.9254 47.6C47.0315 47.6 47.1332 47.6421 47.2082 47.7172C47.2832 47.7922 47.3254 47.8939 47.3254 48V51.0608C47.3254 51.1669 47.2832 51.2686 47.2082 51.3436C47.1332 51.4187 47.0315 51.4608 46.9254 51.4608Z" fill="#00CB71"/>
</svg>