<svg xmlns="http://www.w3.org/2000/svg" width="60" height="60" viewBox="0 0 60 60" fill="none">
  <path d="M29.485 44.4461C29.0677 44.3595 27.1105 44.6966 25.2454 43.6914C24.8727 43.4905 24.4083 43.6299 24.2075 44.0023C24.0068 44.3747 24.146 44.8393 24.5184 45.0401C24.6773 45.1257 24.8366 45.2035 24.9962 45.2743C23.4333 45.9608 22.1706 47.1999 21.433 49.0315C20.7332 47.3181 19.5337 46.0154 17.8683 45.2723C19.5668 44.5143 20.7485 43.1888 21.433 41.5133C21.5797 41.8752 21.7134 42.1267 21.7185 42.1371C21.9107 42.5138 22.3723 42.6633 22.7492 42.4711C23.126 42.2788 23.2755 41.8174 23.0832 41.4405C23.081 41.4303 22.1536 39.7377 22.2632 37.485C22.3258 37.0627 22.0298 36.643 21.5785 36.5599C21.1678 36.4791 20.7127 36.7396 20.6069 37.201C20.5522 37.44 20.9484 41.5767 17.9464 43.496C15.9921 44.7428 13.7734 44.3553 13.36 44.4491C12.4861 44.648 12.4868 45.8967 13.36 46.0956C13.7683 46.1876 16.0305 45.8012 17.9854 47.0737C20.8886 48.9652 20.5682 52.9921 20.5876 53.1724C20.5876 54.1169 21.9374 54.3296 22.2353 53.408C22.3361 53.0942 21.9122 49.1005 24.7787 47.1376C26.6672 45.8435 29.0077 46.1556 29.415 46.1098C30.3469 46.0051 30.4303 44.646 29.485 44.4461Z" fill="#FFAD00"/>
  <path d="M55.3226 29.5012C53.9222 29.3457 43.9395 30.748 39.5767 21.5879C37.2833 16.7697 37.8715 12.4018 37.7465 11.8538C37.634 11.3612 37.1682 11.0661 36.7228 11.1229C36.215 11.1804 35.8781 11.601 35.8781 12.0244V14.0121C35.532 20.8454 32.4223 26.6623 25.8924 28.7098C22.1215 29.8927 18.8478 29.3817 18.2366 29.5154C17.2564 29.7379 17.2491 31.1456 18.247 31.3673C19.1016 31.5477 25.531 30.506 30.5239 34.6525C30.8495 34.9227 31.3324 34.8779 31.6028 34.5527C31.873 34.2271 31.8284 33.7442 31.5029 33.4738C29.7897 32.051 27.7363 31.0343 25.3866 30.4436C31.5725 28.8855 35.3694 24.4699 36.8227 18.2847C38.2639 24.432 42.0293 28.8868 48.2817 30.4371C42.0917 31.986 38.2424 36.3979 36.8138 42.5662C36.2819 40.3053 35.3947 38.1415 34.061 36.2518C33.817 35.9061 33.3391 35.8237 32.9934 36.0675C32.6476 36.3115 32.5653 36.7895 32.8091 37.1351C33.2793 37.8012 33.7024 38.527 34.0672 39.2924C36.2311 43.8385 35.8487 48.4637 35.8801 48.9098C35.9609 50.0495 37.8203 50.1069 37.7621 48.6977C37.657 46.1577 37.854 37.5531 44.8041 33.47C49.4939 30.7176 54.711 31.5216 55.4074 31.365C56.457 31.1267 56.3434 29.6158 55.3226 29.5012Z" fill="#FFAD00"/>
  <path d="M20.637 16.9007C20.1184 16.7932 16.0291 17.5171 14.2024 13.8317C13.3436 12.1027 13.4032 10.1804 13.415 9.93936C13.4765 9.52219 13.1869 9.09807 12.7296 9.01464C12.3215 8.93386 11.8643 9.19284 11.7586 9.65699C11.704 9.89494 12.1 14.0316 9.09825 15.9509C7.21244 17.154 5.01149 16.8432 4.59666 16.8895C3.66458 16.9955 3.58922 18.3403 4.5117 18.5504C4.95716 18.6507 7.17149 18.2489 9.13716 19.5285C11.2321 20.8933 11.6675 23.3998 11.7395 24.7857C11.7494 25.5778 11.7143 25.6699 11.7765 25.8629C11.891 26.2172 12.2146 26.455 12.5817 26.455C13.003 26.4552 13.3444 26.1436 13.412 25.7618C13.4588 25.5 13.2544 23.5082 14.2245 21.5804C14.4147 21.2024 14.2625 20.7419 13.8847 20.5517C13.5067 20.3613 13.0462 20.5137 12.856 20.8916C12.7592 21.0841 12.6692 21.2837 12.5862 21.4896C11.8867 19.775 10.6872 18.4713 9.02033 17.7273C10.7187 16.969 11.9003 15.6438 12.5848 13.9682C13.269 15.656 14.441 16.9755 16.1467 17.7299C15.9795 17.8038 15.8123 17.8852 15.6464 17.9748C15.2741 18.1761 15.1358 18.6409 15.3372 19.0131C15.5384 19.3852 16.0031 19.5236 16.3754 19.3224C18.1834 18.3443 20.1587 18.6103 20.5669 18.5649C21.5039 18.4575 21.5749 17.0991 20.637 16.9007Z" fill="#FFAD00"/>
</svg>