<svg xmlns="http://www.w3.org/2000/svg" width="60" height="60" viewBox="0 0 60 60" fill="none">
  <path d="M45.6338 17.5089H39.2091C39.1328 17.5089 39.0596 17.4786 39.0057 17.4247C38.9517 17.3707 38.9214 17.2976 38.9214 17.2213L38.5 10.5C38.5 10.4431 38.5169 10.3875 38.5485 10.3402C38.5801 10.2929 38.625 10.256 38.6776 10.2343C38.7301 10.2125 38.788 10.2068 38.8437 10.2179C38.8995 10.229 38.9508 10.2564 38.991 10.2966L45.8372 17.0179C45.8774 17.0581 45.9048 17.1094 45.9159 17.1652C45.927 17.2209 45.9213 17.2788 45.8995 17.3313C45.8777 17.3839 45.8409 17.4288 45.7936 17.4604C45.7463 17.492 45.6907 17.5089 45.6338 17.5089ZM39.4967 16.9336H44.9394L39.0753 11.1945L39.4967 16.9336Z" fill="black"/>
  <path d="M45.693 50H14.307C14.2255 50 14.1475 49.9676 14.0899 49.9099C14.0323 49.8522 14 49.7739 14 49.6923V10.3077C14 10.2261 14.0323 10.1478 14.0899 10.0901C14.1475 10.0324 14.2255 10 14.307 10H38.8375C38.9189 10 38.997 10.0324 39.0545 10.0902L45.9101 16.9618C45.9676 17.0195 46 17.0978 46 17.1794V49.6923C46 49.7739 45.9677 49.8522 45.9101 49.9099C45.8525 49.9676 45.7745 50 45.693 50ZM14.6139 49.3846H45.3861V17.3071L38.7104 10.6154H14.6145L14.6139 49.3846Z" fill="black"/>
  <path d="M27.6944 15H17.3056C17.2245 15 17.1468 14.9473 17.0895 14.8536C17.0322 14.7598 17 14.6326 17 14.5C17 14.3674 17.0322 14.2402 17.0895 14.1464C17.1468 14.0527 17.2245 14 17.3056 14H27.6944C27.7755 14 27.8532 14.0527 27.9105 14.1464C27.9678 14.2402 28 14.3674 28 14.5C28 14.6326 27.9678 14.7598 27.9105 14.8536C27.8532 14.9473 27.7755 15 27.6944 15Z" fill="black"/>
  <path d="M27.6944 19H17.3056C17.2245 19 17.1468 18.9473 17.0895 18.8536C17.0322 18.7598 17 18.6326 17 18.5C17 18.3674 17.0322 18.2402 17.0895 18.1464C17.1468 18.0527 17.2245 18 17.3056 18H27.6944C27.7755 18 27.8532 18.0527 27.9105 18.1464C27.9678 18.2402 28 18.3674 28 18.5C28 18.6326 27.9678 18.7598 27.9105 18.8536C27.8532 18.9473 27.7755 19 27.6944 19Z" fill="black"/>
  <path d="M30 36C28.6155 36 27.2622 35.5895 26.111 34.8203C24.9599 34.0511 24.0627 32.9579 23.5328 31.6788C23.003 30.3997 22.8644 28.9922 23.1345 27.6344C23.4046 26.2765 24.0713 25.0292 25.0503 24.0503C26.0292 23.0713 27.2765 22.4046 28.6344 22.1345C29.9922 21.8644 31.3997 22.003 32.6788 22.5328C33.9579 23.0627 35.0511 23.9599 35.8203 25.111C36.5895 26.2622 37 27.6155 37 29C36.9979 30.8559 36.2597 32.6351 34.9474 33.9474C33.6351 35.2597 31.8559 35.9979 30 36ZM30 22.608C28.7358 22.608 27.4999 22.9828 26.4488 23.6852C25.3976 24.3876 24.5783 25.3859 24.0945 26.5539C23.6107 27.7219 23.4841 29.0071 23.7308 30.247C23.9774 31.487 24.5862 32.6259 25.4801 33.5199C26.3741 34.4138 27.513 35.0226 28.753 35.2692C29.9929 35.5159 31.2781 35.3893 32.4461 34.9055C33.6141 34.4217 34.6124 33.6024 35.3148 32.5512C36.0172 31.5001 36.392 30.2642 36.392 29C36.3901 27.3053 35.716 25.6806 34.5177 24.4823C33.3194 23.284 31.6947 22.6099 30 22.608Z" fill="black"/>
  <path d="M30.3515 29C30.3188 29.0001 30.2864 28.9943 30.2557 28.9828C30.2139 28.9675 30.1759 28.9424 30.1447 28.9093C30.1136 28.8763 30.0899 28.8362 30.0757 28.7921L28.0956 22.8729C28.0708 22.796 28.0761 22.7118 28.1103 22.639C28.1445 22.5662 28.2048 22.5106 28.278 22.4845C28.3512 22.4585 28.4312 22.464 28.5005 22.5C28.5698 22.536 28.6226 22.5994 28.6474 22.6764L30.5073 28.2238L35.281 25.0419C35.3459 24.9979 35.4248 24.9828 35.5004 25C35.5759 25.0172 35.6418 25.0652 35.6837 25.1335C35.7255 25.2018 35.7399 25.2848 35.7236 25.3642C35.7072 25.4436 35.6616 25.5129 35.5966 25.557L30.5087 28.9513C30.4618 28.9829 30.4072 28.9998 30.3515 29Z" fill="black"/>
  <path d="M34.9792 33.5C34.9144 33.5001 34.8518 33.4736 34.8029 33.4255L30.3423 29.0327C30.2885 28.9798 30.2556 28.9049 30.2506 28.8245C30.2456 28.7441 30.269 28.6647 30.3157 28.6039C30.3624 28.543 30.4285 28.5056 30.4995 28.5C30.5705 28.4944 30.6406 28.5209 30.6943 28.5738L35.156 32.9666C35.1973 33.0072 35.2267 33.0612 35.2401 33.1212C35.2536 33.1812 35.2506 33.2445 35.2314 33.3025C35.2123 33.3605 35.1779 33.4105 35.133 33.4458C35.0881 33.4811 35.0339 33.5 34.9792 33.5Z" fill="black"/>
  <path d="M28.2996 23C28.2292 22.9999 28.161 22.9831 28.1071 22.9523C28.0531 22.9216 28.0169 22.879 28.0046 22.8319C27.9923 22.7848 28.0049 22.7363 28.04 22.6949C28.0751 22.6535 28.1306 22.6218 28.1968 22.6053L30.596 22.0106C30.6414 22.0004 30.6897 21.9975 30.737 22.0022C30.7843 22.0068 30.8293 22.0189 30.8686 22.0375C30.9078 22.056 30.9401 22.0805 30.9629 22.1091C30.9857 22.1376 30.9984 22.1693 31 22.2017C31.0001 22.246 30.9789 22.2891 30.9397 22.3245C30.9005 22.3598 30.8453 22.3856 30.7826 22.3977L28.4034 22.988C28.3701 22.9962 28.335 23.0002 28.2996 23Z" fill="black"/>
  <path d="M28.7705 23.9283C28.6919 23.9284 28.6159 23.9029 28.5559 23.8566C28.4958 23.8102 28.4556 23.7458 28.4424 23.6749C28.4293 23.6039 28.4439 23.531 28.4838 23.469C28.5237 23.407 28.5863 23.36 28.6605 23.3363L32.0002 22.4253C32.0418 22.4107 32.0861 22.4039 32.1306 22.4053C32.175 22.4067 32.2187 22.4162 32.2591 22.4333C32.2995 22.4505 32.3357 22.4749 32.3656 22.505C32.3955 22.5352 32.4185 22.5706 32.4332 22.6091C32.4478 22.6476 32.454 22.6884 32.4511 22.729C32.4483 22.7697 32.4366 22.8095 32.4166 22.8459C32.3967 22.8824 32.369 22.9148 32.3352 22.9413C32.3013 22.9677 32.262 22.9877 32.2196 23L28.8802 23.9112C28.8449 23.9225 28.8078 23.9283 28.7705 23.9283Z" fill="black"/>
  <path d="M29.3258 24.9996C29.2479 24.9996 29.1726 24.9778 29.1131 24.9381C29.0536 24.8984 29.0138 24.8433 29.0007 24.7827C28.9877 24.722 29.0023 24.6596 29.0419 24.6066C29.0814 24.5536 29.1435 24.5134 29.217 24.4931L33.063 23.0142C33.1039 23.0029 33.1472 22.9981 33.1904 23C33.2336 23.0019 33.276 23.0106 33.315 23.0254C33.354 23.0403 33.3889 23.0611 33.4177 23.0866C33.4466 23.1121 33.4687 23.1419 33.483 23.1742C33.4973 23.2065 33.5034 23.2407 33.501 23.2748C33.4985 23.309 33.4876 23.3424 33.4688 23.3733C33.45 23.4041 33.4237 23.4317 33.3914 23.4545C33.3591 23.4773 33.3215 23.4948 33.2806 23.5061L29.4346 24.9848C29.3997 24.9946 29.3629 24.9996 29.3258 24.9996Z" fill="black"/>
  <path d="M29.3984 25.9855C29.3284 25.9857 29.2605 25.9659 29.2069 25.9297C29.1534 25.8935 29.1175 25.8431 29.1058 25.7876C29.094 25.7321 29.1071 25.675 29.1428 25.6266C29.1785 25.5781 29.2344 25.5414 29.3005 25.523L34.1395 23.6731C34.2132 23.6534 34.2935 23.6577 34.3632 23.6852C34.4328 23.7127 34.4863 23.7611 34.512 23.82C34.5377 23.8789 34.5336 23.9435 34.5005 24C34.4674 24.0565 34.4081 24.1002 34.3353 24.1218L29.4977 25.971C29.4659 25.9803 29.4323 25.9852 29.3984 25.9855Z" fill="black"/>
  <path d="M29.7469 26.8686C29.6706 26.8686 29.5967 26.8404 29.5384 26.7889C29.4801 26.7375 29.4412 26.6661 29.4284 26.5875C29.4156 26.5089 29.4299 26.4281 29.4687 26.3595C29.5075 26.2908 29.5683 26.2387 29.6403 26.2124L34.5875 24.2928C34.6683 24.2632 34.7571 24.2685 34.8343 24.3073C34.9115 24.3462 34.9707 24.4155 34.999 24.5C35.0273 24.5845 35.0223 24.6773 34.9851 24.7579C34.9479 24.8386 34.8815 24.9005 34.8007 24.93L29.8529 26.8497C29.8188 26.8621 29.783 26.8685 29.7469 26.8686Z" fill="black"/>
  <path d="M30.3601 28C30.275 28 30.1927 27.9728 30.1278 27.9233C30.0628 27.8738 30.0193 27.8051 30.0051 27.7294C29.9908 27.6537 30.0068 27.5759 30.05 27.5098C30.0932 27.4437 30.161 27.3935 30.2413 27.3682L34.7624 25.3864C34.8525 25.358 34.9515 25.363 35.0375 25.4004C35.1235 25.4379 35.1896 25.5046 35.2211 25.586C35.2526 25.6673 35.247 25.7567 35.2055 25.8343C35.1641 25.912 35.0901 25.9716 35 26L30.4789 27.9818C30.4407 27.9938 30.4006 28 30.3601 28Z" fill="black"/>
  <path d="M30.2473 43.1963C30.1949 43.1962 30.1437 43.1798 30.1002 43.1492L26.1169 40.5073C26.0881 40.487 26.0634 40.461 26.0442 40.4307C26.025 40.4003 26.0117 40.3664 26.005 40.3307C25.9983 40.2949 25.9983 40.2582 26.0052 40.2225C26.012 40.1868 26.0255 40.1529 26.0448 40.1227C26.0642 40.0925 26.089 40.0665 26.1179 40.0464C26.1468 40.0262 26.1792 40.0122 26.2132 40.0052C26.2473 39.9982 26.2823 39.9983 26.3163 40.0054C26.3503 40.0126 26.3826 40.0268 26.4115 40.047L30.3947 42.6892C30.4417 42.7223 30.4773 42.7704 30.4962 42.8264C30.5152 42.8823 30.5165 42.9432 30.5 43C30.4835 43.0568 30.45 43.1065 30.4045 43.1419C30.359 43.1772 30.3039 43.1963 30.2473 43.1963Z" fill="black"/>
  <path d="M19.4469 42.8487C19.3789 42.8489 19.3128 42.8231 19.2584 42.7752C19.204 42.7273 19.1643 42.66 19.1453 42.5833C19.1263 42.5066 19.129 42.4247 19.1531 42.35C19.1771 42.2753 19.2212 42.2118 19.2786 42.1691L23.0175 39.5548C23.0522 39.5278 23.0912 39.5091 23.1321 39.5C23.1731 39.4909 23.2151 39.4914 23.2559 39.5016C23.2966 39.5118 23.3352 39.5315 23.3694 39.5594C23.4036 39.5874 23.4328 39.6231 23.4551 39.6644C23.4774 39.7058 23.4925 39.7519 23.4995 39.8002C23.5065 39.8485 23.5052 39.8979 23.4957 39.9456C23.4863 39.9933 23.4688 40.0382 23.4444 40.0779C23.42 40.1176 23.389 40.1511 23.3535 40.1766L19.6146 42.7912C19.5644 42.8287 19.5063 42.8486 19.4469 42.8487Z" fill="black"/>
  <path d="M32.6418 43.0398C32.5718 43.0399 32.5038 43.0183 32.4488 42.9786C32.3937 42.9389 32.3549 42.8833 32.3386 42.8209C32.3223 42.7585 32.3295 42.6929 32.3589 42.6347C32.3883 42.5765 32.4383 42.529 32.5008 42.5L40.0005 39C40.0742 38.9658 40.1597 38.9597 40.2382 38.9832C40.3168 39.0068 40.3819 39.0579 40.4193 39.1254C40.4566 39.1929 40.4632 39.2712 40.4375 39.3432C40.4119 39.4151 40.3561 39.4748 40.2824 39.509L32.7823 43.009C32.7388 43.0292 32.6907 43.0398 32.6418 43.0398Z" fill="black"/>
  <path d="M18.5 45C18.2033 45 17.9133 44.912 17.6666 44.7472C17.42 44.5824 17.2277 44.3481 17.1142 44.074C17.0007 43.7999 16.9709 43.4983 17.0288 43.2074C17.0867 42.9164 17.2296 42.6491 17.4393 42.4393C17.6491 42.2296 17.9164 42.0867 18.2074 42.0288C18.4983 41.9709 18.7999 42.0006 19.074 42.1142C19.3481 42.2277 19.5824 42.42 19.7472 42.6666C19.912 42.9133 20 43.2033 20 43.5C19.9996 43.8977 19.8414 44.279 19.5602 44.5602C19.279 44.8414 18.8977 44.9996 18.5 45ZM18.5 42.5481C18.3117 42.5481 18.1277 42.604 17.9712 42.7086C17.8146 42.8132 17.6926 42.9618 17.6206 43.1357C17.5486 43.3097 17.5297 43.5011 17.5664 43.6857C17.6032 43.8703 17.6938 44.0399 17.8269 44.1731C17.9601 44.3062 18.1297 44.3968 18.3143 44.4336C18.4989 44.4703 18.6903 44.4514 18.8643 44.3794C19.0382 44.3074 19.1868 44.1854 19.2914 44.0288C19.396 43.8723 19.4519 43.6883 19.4519 43.5C19.4516 43.2476 19.3513 43.0056 19.1728 42.8272C18.9944 42.6487 18.7524 42.5484 18.5 42.5481Z" fill="black"/>
  <path d="M25.0004 41C24.6048 41.0001 24.2181 40.8828 23.8891 40.6631C23.5602 40.4434 23.3038 40.1311 23.1523 39.7656C23.0009 39.4002 22.9613 38.998 23.0384 38.61C23.1155 38.2221 23.306 37.8657 23.5857 37.5859C23.8653 37.3062 24.2217 37.1157 24.6097 37.0385C24.9977 36.9613 25.3998 37.0008 25.7653 37.1522C26.1308 37.3036 26.4431 37.5599 26.6629 37.8888C26.8827 38.2177 27 38.6044 27 39C26.9994 39.5302 26.7886 40.0385 26.4137 40.4134C26.0388 40.7884 25.5306 40.9993 25.0004 41ZM25.0004 37.7309C24.7493 37.7308 24.5039 37.8052 24.2952 37.9446C24.0864 38.084 23.9237 38.2822 23.8276 38.5141C23.7315 38.746 23.7063 39.0012 23.7552 39.2474C23.8041 39.4936 23.925 39.7198 24.1025 39.8973C24.2799 40.0748 24.5061 40.1957 24.7523 40.2447C24.9985 40.2937 25.2537 40.2686 25.4856 40.1726C25.7175 40.0765 25.9158 39.9139 26.0552 39.7051C26.1947 39.4964 26.2691 39.251 26.2691 39C26.2688 38.6636 26.135 38.3411 25.8971 38.1031C25.6593 37.8652 25.3368 37.7313 25.0004 37.7309Z" fill="black"/>
  <path d="M31.5 45C31.2033 45 30.9133 44.912 30.6666 44.7472C30.42 44.5824 30.2277 44.3481 30.1142 44.074C30.0006 43.7999 29.9709 43.4983 30.0288 43.2074C30.0867 42.9164 30.2296 42.6491 30.4393 42.4393C30.6491 42.2296 30.9164 42.0867 31.2074 42.0288C31.4983 41.9709 31.7999 42.0006 32.074 42.1142C32.3481 42.2277 32.5824 42.42 32.7472 42.6666C32.912 42.9133 33 43.2033 33 43.5C32.9996 43.8977 32.8414 44.279 32.5602 44.5602C32.279 44.8414 31.8977 44.9996 31.5 45ZM31.5 42.5481C31.3117 42.5481 31.1277 42.604 30.9712 42.7086C30.8146 42.8132 30.6926 42.9618 30.6206 43.1357C30.5486 43.3097 30.5297 43.5011 30.5664 43.6857C30.6032 43.8703 30.6938 44.0399 30.8269 44.1731C30.9601 44.3062 31.1297 44.3968 31.3143 44.4336C31.4989 44.4703 31.6903 44.4514 31.8643 44.3794C32.0382 44.3074 32.1868 44.1854 32.2914 44.0288C32.396 43.8723 32.4519 43.6883 32.4519 43.5C32.4516 43.2476 32.3513 43.0056 32.1728 42.8272C31.9944 42.6487 31.7524 42.5484 31.5 42.5481Z" fill="black"/>
  <path d="M41.5003 40C41.2036 40.0001 40.9136 39.9121 40.6668 39.7473C40.4201 39.5826 40.2278 39.3483 40.1143 39.0742C40.0007 38.8001 39.9709 38.4985 40.0288 38.2075C40.0866 37.9165 40.2295 37.6492 40.4392 37.4394C40.649 37.2296 40.9163 37.0867 41.2073 37.0288C41.4982 36.9709 41.7999 37.0006 42.074 37.1142C42.3481 37.2277 42.5824 37.4199 42.7472 37.6666C42.912 37.9133 43 38.2033 43 38.5C42.9996 38.8976 42.8414 39.2789 42.5603 39.5601C42.2791 39.8413 41.8979 39.9995 41.5003 40ZM41.5003 37.5481C41.312 37.5481 41.1279 37.6039 40.9714 37.7084C40.8148 37.813 40.6928 37.9616 40.6207 38.1356C40.5486 38.3095 40.5297 38.5009 40.5664 38.6855C40.6031 38.8702 40.6937 39.0398 40.8268 39.173C40.9599 39.3061 41.1296 39.3968 41.3142 39.4335C41.4988 39.4703 41.6903 39.4515 41.8642 39.3794C42.0381 39.3074 42.1868 39.1854 42.2914 39.0289C42.396 38.8723 42.4519 38.6883 42.4519 38.5C42.4515 38.2477 42.3511 38.0059 42.1727 37.8275C41.9944 37.6492 41.7525 37.5485 41.5003 37.5481Z" fill="black"/>
</svg>