<svg width="24" height="44" viewBox="0 0 24 44" fill="none" xmlns="http://www.w3.org/2000/svg">
<path id="Vector" d="M20.4706 0H3.52941C2.59368 0.00105658 1.69657 0.375243 1.0349 1.04047C0.373236 1.70569 0.00105093 2.60762 0 3.54839V40.4516C0.00105093 41.3924 0.373236 42.2943 1.0349 42.9595C1.69657 43.6248 2.59368 43.9989 3.52941 44H20.4706C21.4063 43.9989 22.3034 43.6248 22.9651 42.9595C23.6268 42.2943 23.9989 41.3924 24 40.4516V3.54839C23.9989 2.60762 23.6268 1.70569 22.9651 1.04047C22.3034 0.375243 21.4063 0.00105658 20.4706 0ZM16.7861 1.41935L16.3625 3.54839H7.63756L7.21403 1.41935H16.7861ZM22.5882 40.4516C22.5876 41.0161 22.3643 41.5572 21.9673 41.9564C21.5703 42.3555 21.032 42.58 20.4706 42.5806H3.52941C2.96797 42.58 2.4297 42.3555 2.03271 41.9564C1.63571 41.5572 1.4124 41.0161 1.41176 40.4516V3.54839C1.4124 2.98393 1.63571 2.44277 2.03271 2.04363C2.4297 1.6445 2.96797 1.41999 3.52941 1.41935H5.77421L6.36662 4.39725C6.39862 4.55813 6.48508 4.70289 6.61128 4.8069C6.73749 4.91091 6.89564 4.96775 7.05882 4.96774H16.9412C17.1044 4.96775 17.2625 4.91091 17.3887 4.8069C17.5149 4.70289 17.6014 4.55813 17.6334 4.39725L18.2258 1.41935H20.4706C21.032 1.41999 21.5703 1.6445 21.9673 2.04363C22.3643 2.44277 22.5876 2.98393 22.5882 3.54839V40.4516Z" fill="black"/>
</svg>
