<svg xmlns="http://www.w3.org/2000/svg" width="28" height="28" viewBox="0 0 28 28" fill="none">
  <path d="M15.1987 2.33542C16.0501 2.33215 16.9014 2.34071 17.7525 2.36109L17.9789 2.36925C18.2402 2.37859 18.498 2.39025 18.8095 2.40425C20.0509 2.46259 20.8979 2.65859 21.641 2.94675C22.411 3.24309 23.0597 3.64442 23.7084 4.29309C24.3015 4.87596 24.7605 5.58102 25.0535 6.35925C25.3417 7.10242 25.5377 7.95059 25.596 9.19192C25.61 9.50225 25.6217 9.76125 25.631 10.0226L25.638 10.2489C25.6588 11.0996 25.6677 11.9506 25.6649 12.8016L25.666 13.6719V15.2003C25.6689 16.0516 25.66 16.903 25.6392 17.7541L25.6322 17.9804C25.6229 18.2418 25.6112 18.4996 25.5972 18.8111C25.5389 20.0524 25.3405 20.8994 25.0535 21.6426C24.7615 22.4216 24.3023 23.1273 23.7084 23.7099C23.125 24.303 22.4196 24.762 21.641 25.0551C20.8979 25.3433 20.0509 25.5393 18.8095 25.5976C18.498 25.6116 18.2402 25.6233 17.9789 25.6326L17.7525 25.6396C16.9014 25.6603 16.0501 25.6693 15.1987 25.6664L14.3284 25.6676H12.8012C11.9498 25.6705 11.0985 25.6615 10.2474 25.6408L10.021 25.6338C9.74408 25.6237 9.46719 25.612 9.19037 25.5988C7.94904 25.5404 7.10204 25.3421 6.3577 25.0551C5.57917 24.7627 4.87398 24.3035 4.29154 23.7099C3.69776 23.1269 3.2383 22.4214 2.9452 21.6426C2.65704 20.8994 2.46104 20.0524 2.4027 18.8111C2.38971 18.5343 2.37804 18.2574 2.3677 17.9804L2.36187 17.7541C2.34036 16.903 2.33064 16.0516 2.3327 15.2003V12.8016C2.32945 11.9506 2.338 11.0996 2.35837 10.2489L2.36654 10.0226C2.37587 9.76125 2.38754 9.50225 2.40154 9.19192C2.45987 7.94942 2.65587 7.10359 2.94404 6.35925C3.23731 5.58064 3.69766 4.87577 4.2927 4.29425C4.87475 3.70013 5.57949 3.24025 6.3577 2.94675C7.10204 2.65859 7.94787 2.46259 9.19037 2.40425L10.021 2.36925L10.2474 2.36342C11.0981 2.34192 11.9491 2.3322 12.8 2.33425L15.1987 2.33542ZM13.9994 8.16875C13.2265 8.15782 12.4591 8.30061 11.7418 8.58883C11.0246 8.87705 10.3718 9.30494 9.82136 9.84765C9.27092 10.3904 8.83384 11.037 8.53551 11.7501C8.23717 12.4632 8.08354 13.2285 8.08354 14.0015C8.08354 14.7745 8.23717 15.5398 8.53551 16.2529C8.83384 16.966 9.27092 17.6127 9.82136 18.1554C10.3718 18.6981 11.0246 19.126 11.7418 19.4142C12.4591 19.7024 13.2265 19.8452 13.9994 19.8343C15.5465 19.8343 17.0302 19.2197 18.1242 18.1257C19.2181 17.0317 19.8327 15.548 19.8327 14.0009C19.8327 12.4538 19.2181 10.9701 18.1242 9.87613C17.0302 8.78217 15.5465 8.16875 13.9994 8.16875ZM13.9994 10.5021C14.4643 10.4935 14.9263 10.5777 15.3583 10.7497C15.7903 10.9216 16.1838 11.178 16.5156 11.5037C16.8475 11.8295 17.1111 12.2181 17.2911 12.6468C17.471 13.0756 17.5638 13.5359 17.5638 14.0009C17.5639 14.4659 17.4713 14.9263 17.2915 15.3551C17.1117 15.7839 16.8482 16.1726 16.5164 16.4984C16.1847 16.8243 15.7914 17.0808 15.3594 17.2529C14.9274 17.425 14.4655 17.5093 14.0005 17.5009C13.0723 17.5009 12.182 17.1322 11.5257 16.4758C10.8693 15.8194 10.5005 14.9292 10.5005 14.0009C10.5005 13.0727 10.8693 12.1824 11.5257 11.526C12.182 10.8697 13.0723 10.5009 14.0005 10.5009L13.9994 10.5021ZM20.1244 6.41875C19.748 6.43382 19.392 6.59393 19.1311 6.86555C18.8701 7.13718 18.7244 7.49924 18.7244 7.87592C18.7244 8.2526 18.8701 8.61466 19.1311 8.88629C19.392 9.15791 19.748 9.31802 20.1244 9.33309C20.5111 9.33309 20.8821 9.17944 21.1556 8.90595C21.4291 8.63246 21.5827 8.26153 21.5827 7.87475C21.5827 7.48798 21.4291 7.11705 21.1556 6.84356C20.8821 6.57007 20.5111 6.41642 20.1244 6.41642V6.41875Z" fill="#020659"/>
</svg>