<svg xmlns="http://www.w3.org/2000/svg" width="28" height="28" viewBox="0 0 28 28" fill="none">
  <path d="M26 6.23529C25.1166 6.62647 24.1644 6.88353 23.1778 7.00647C24.1874 6.41412 24.9675 5.47529 25.3346 4.34647C24.3824 4.90529 23.327 5.29647 22.2141 5.52C21.3078 4.55882 20.0344 4 18.5889 4C15.8929 4 13.6902 6.14588 13.6902 8.79471C13.6902 9.17471 13.7361 9.54353 13.8164 9.89C9.73231 9.68882 6.0956 7.77765 3.67495 4.88294C3.25048 5.58706 3.00956 6.41412 3.00956 7.28588C3.00956 8.95118 3.86998 10.4265 5.20077 11.2647C4.38623 11.2647 3.62906 11.0412 2.96367 10.7059V10.7394C2.96367 13.0641 4.66157 15.0088 6.91013 15.4447C6.18822 15.6372 5.43032 15.664 4.69599 15.5229C5.00758 16.4757 5.61782 17.3094 6.44094 17.9068C7.26405 18.5042 8.25864 18.8353 9.2849 18.8535C7.54527 20.1952 5.38891 20.9204 3.17017 20.91C2.78011 20.91 2.39006 20.8876 2 20.8429C4.17973 22.2065 6.77247 23 9.54876 23C18.5889 23 23.5564 15.6906 23.5564 9.35353C23.5564 9.14118 23.5564 8.94 23.5449 8.72765C24.5086 8.05706 25.3346 7.20765 26 6.23529Z" fill="#020659"/>
</svg>